<svg width="465" height="257" viewBox="0 0 465 257" fill="none" xmlns="http://www.w3.org/2000/svg">
<mask id="path-1-outside-1_1021_101" maskUnits="userSpaceOnUse" x="-4" y="-3.5" width="473" height="265" fill="black">
<rect fill="white" x="-4" y="-3.5" width="473" height="265"/>
<path d="M0.88 252.5L10.6 197.06H69.28L89.08 85.1H30.4L37.96 43.34C46.36 42.86 55.48 41.42 65.32 39.02C75.16 36.62 85.12 33.62 95.2 30.02C105.52 26.42 115.36 22.46 124.72 18.14C134.32 13.58 143.08 9.01999 151 4.46H175.12L140.92 197.06H197.44L187.72 252.5H0.88ZM335.317 256.82C313.477 256.82 295.837 253.22 282.397 246.02C269.197 238.82 259.597 228.62 253.597 215.42C247.837 202.22 244.957 186.74 244.957 168.98C244.957 164.66 245.077 160.22 245.317 155.66C245.797 150.86 246.277 146.06 246.757 141.26C247.477 136.46 248.317 131.54 249.277 126.5C252.877 107.3 257.557 90.02 263.317 74.66C269.317 59.06 276.997 45.74 286.357 34.7C295.957 23.66 307.837 15.26 321.997 9.5C336.397 3.49999 353.797 0.499983 374.197 0.499983C396.277 0.499983 413.797 4.09999 426.757 11.3C439.957 18.26 449.437 28.22 455.197 41.18C461.197 54.14 464.197 69.38 464.197 86.9C464.197 91.22 463.957 95.78 463.477 100.58C463.237 105.14 462.757 109.94 462.037 114.98C461.557 119.78 460.837 124.7 459.877 129.74C456.277 148.94 451.477 166.34 445.477 181.94C439.717 197.54 432.157 210.98 422.797 222.26C413.437 233.3 401.677 241.82 387.517 247.82C373.357 253.82 355.957 256.82 335.317 256.82ZM340.717 208.22C348.397 208.22 354.757 206.78 359.797 203.9C364.837 200.78 369.037 195.62 372.397 188.42C375.997 181.22 379.237 171.26 382.117 158.54C384.997 145.82 388.237 129.86 391.837 110.66C392.317 107.78 392.797 105.02 393.277 102.38C393.757 99.5 394.117 96.86 394.357 94.46C394.597 91.82 394.717 89.42 394.717 87.26C394.957 84.86 395.077 82.7 395.077 80.78C395.077 69.5 392.917 61.46 388.597 56.66C384.517 51.62 377.917 49.1 368.797 49.1C360.877 49.1 354.397 50.66 349.357 53.78C344.317 56.66 339.997 61.82 336.397 69.26C333.037 76.46 329.797 86.3 326.677 98.78C323.797 111.26 320.557 127.1 316.957 146.3C316.477 149.18 315.997 151.94 315.517 154.58C315.277 157.22 315.037 159.74 314.797 162.14C314.557 164.54 314.317 166.94 314.077 169.34C314.077 171.5 314.077 173.54 314.077 175.46C314.077 186.74 316.117 195.02 320.197 200.3C324.517 205.58 331.357 208.22 340.717 208.22Z"/>
</mask>
<path d="M0.88 252.5L-3.0599 251.809L-3.88231 256.5H0.88V252.5ZM10.6 197.06V193.06H7.24029L6.6601 196.369L10.6 197.06ZM69.28 197.06V201.06H72.6347L73.2189 197.757L69.28 197.06ZM89.08 85.1L93.0189 85.7966L93.8495 81.1H89.08V85.1ZM30.4 85.1L26.464 84.3874L25.6108 89.1H30.4V85.1ZM37.96 43.34L37.7318 39.3465L34.5854 39.5263L34.024 42.6274L37.96 43.34ZM65.32 39.02L64.3722 35.1339L64.3722 35.1339L65.32 39.02ZM95.2 30.02L93.8825 26.2432L93.8686 26.2481L93.8547 26.253L95.2 30.02ZM124.72 18.14L126.396 21.7718L126.416 21.7626L126.436 21.7531L124.72 18.14ZM151 4.46V0.459996H149.931L149.004 0.993506L151 4.46ZM175.12 4.46L179.058 5.15934L179.893 0.459996H175.12V4.46ZM140.92 197.06L136.982 196.361L136.147 201.06H140.92V197.06ZM197.44 197.06L201.38 197.751L202.202 193.06H197.44V197.06ZM187.72 252.5V256.5H191.08L191.66 253.191L187.72 252.5ZM4.8199 253.191L14.5399 197.751L6.6601 196.369L-3.0599 251.809L4.8199 253.191ZM10.6 201.06H69.28V193.06H10.6V201.06ZM73.2189 197.757L93.0189 85.7966L85.1411 84.4034L65.3411 196.363L73.2189 197.757ZM89.08 81.1H30.4V89.1H89.08V81.1ZM34.336 85.8125L41.896 44.0525L34.024 42.6274L26.464 84.3874L34.336 85.8125ZM38.1882 47.3335C46.8739 46.8372 56.2377 45.3524 66.2678 42.9061L64.3722 35.1339C54.7223 37.4875 45.8461 38.8828 37.7318 39.3465L38.1882 47.3335ZM66.2678 42.9061C76.2496 40.4715 86.3423 37.4309 96.5454 33.787L93.8547 26.253C83.8977 29.8091 74.0704 32.7685 64.3722 35.1339L66.2678 42.9061ZM96.5175 33.7968C106.952 30.1568 116.912 26.149 126.396 21.7718L123.044 14.5082C113.808 18.771 104.088 22.6832 93.8825 26.2432L96.5175 33.7968ZM126.436 21.7531C136.116 17.155 144.971 12.5466 152.996 7.92649L149.004 0.993506C141.189 5.49334 132.524 10.005 123.004 14.5269L126.436 21.7531ZM151 8.46H175.12V0.459996H151V8.46ZM171.182 3.76066L136.982 196.361L144.858 197.759L179.058 5.15934L171.182 3.76066ZM140.92 201.06H197.44V193.06H140.92V201.06ZM193.5 196.369L183.78 251.809L191.66 253.191L201.38 197.751L193.5 196.369ZM187.72 248.5H0.88V256.5H187.72V248.5ZM282.397 246.02L280.482 249.532L280.495 249.539L280.508 249.546L282.397 246.02ZM253.597 215.42L249.931 217.02L249.943 217.048L249.956 217.075L253.597 215.42ZM245.317 155.66L241.337 155.262L241.328 155.356L241.323 155.45L245.317 155.66ZM246.757 141.26L242.801 140.667L242.787 140.764L242.777 140.862L246.757 141.26ZM249.277 126.5L253.207 127.248L253.209 127.237L249.277 126.5ZM263.317 74.66L259.584 73.2241L259.578 73.2398L259.572 73.2555L263.317 74.66ZM286.357 34.7L283.339 32.0753L283.322 32.0942L283.306 32.1133L286.357 34.7ZM321.997 9.5L323.504 13.2052L323.52 13.1988L323.536 13.1923L321.997 9.5ZM426.757 11.3L424.815 14.7966L424.853 14.8179L424.892 14.8383L426.757 11.3ZM455.197 41.18L451.542 42.8045L451.554 42.8326L451.567 42.8605L455.197 41.18ZM463.477 100.58L459.497 100.182L459.488 100.276L459.483 100.37L463.477 100.58ZM462.037 114.98L458.077 114.414L458.065 114.498L458.057 114.582L462.037 114.98ZM459.877 129.74L455.948 128.992L455.946 129.003L459.877 129.74ZM445.477 181.94L441.744 180.504L441.734 180.529L441.725 180.555L445.477 181.94ZM422.797 222.26L425.848 224.847L425.862 224.831L425.875 224.814L422.797 222.26ZM387.517 247.82L389.078 251.503L389.078 251.503L387.517 247.82ZM359.797 203.9L361.782 207.373L361.843 207.338L361.903 207.301L359.797 203.9ZM372.397 188.42L368.819 186.631L368.795 186.679L368.772 186.728L372.397 188.42ZM391.837 110.66L395.769 111.397L395.776 111.357L395.783 111.318L391.837 110.66ZM393.277 102.38L397.213 103.096L397.218 103.067L397.223 103.038L393.277 102.38ZM394.357 94.46L398.337 94.858L398.339 94.8401L398.341 94.8221L394.357 94.46ZM394.717 87.26L390.737 86.862L390.717 87.0605V87.26H394.717ZM388.597 56.66L385.488 59.1768L385.554 59.2581L385.624 59.3359L388.597 56.66ZM349.357 53.78L351.342 57.253L351.403 57.2181L351.463 57.181L349.357 53.78ZM336.397 69.26L332.797 67.5178L332.784 67.543L332.772 67.5685L336.397 69.26ZM326.677 98.78L322.797 97.8099L322.788 97.8451L322.78 97.8806L326.677 98.78ZM316.957 146.3L313.026 145.563L313.018 145.603L313.012 145.642L316.957 146.3ZM315.517 154.58L311.582 153.864L311.55 154.04L311.534 154.218L315.517 154.58ZM314.797 162.14L310.817 161.742L310.817 161.742L314.797 162.14ZM314.077 169.34L310.097 168.942L310.077 169.14V169.34H314.077ZM320.197 200.3L317.032 202.746L317.066 202.79L317.101 202.833L320.197 200.3ZM335.317 252.82C313.869 252.82 296.948 249.277 284.286 242.494L280.508 249.546C294.726 257.163 313.085 260.82 335.317 260.82V252.82ZM284.313 242.508C271.844 235.707 262.866 226.144 257.239 213.765L249.956 217.075C256.329 231.096 266.551 241.933 280.482 249.532L284.313 242.508ZM257.263 213.82C251.769 201.228 248.957 186.314 248.957 168.98H240.957C240.957 187.166 243.906 203.212 249.931 217.02L257.263 213.82ZM248.957 168.98C248.957 164.734 249.075 160.364 249.312 155.87L241.323 155.45C241.079 160.076 240.957 164.586 240.957 168.98H248.957ZM249.297 156.058C249.777 151.258 250.257 146.458 250.737 141.658L242.777 140.862C242.297 145.662 241.817 150.462 241.337 155.262L249.297 156.058ZM250.713 141.853C251.425 137.108 252.256 132.24 253.207 127.248L245.348 125.752C244.379 130.84 243.53 135.812 242.801 140.667L250.713 141.853ZM253.209 127.237C256.774 108.223 261.397 91.1715 267.063 76.0645L259.572 73.2555C253.717 88.8684 248.981 106.377 245.346 125.763L253.209 127.237ZM267.051 76.0959C272.914 60.8514 280.38 47.9357 289.408 37.2867L283.306 32.1133C273.615 43.5443 265.721 57.2686 259.584 73.2241L267.051 76.0959ZM289.376 37.3247C298.545 26.7799 309.899 18.7396 323.504 13.2052L320.49 5.79481C305.775 11.7804 293.369 20.5401 283.339 32.0753L289.376 37.3247ZM323.536 13.1923C337.323 7.44746 354.171 4.49998 374.197 4.49998V-3.50002C353.424 -3.50002 335.471 -0.447485 320.459 5.80769L323.536 13.1923ZM374.197 4.49998C395.905 4.49998 412.67 8.04948 424.815 14.7966L428.7 7.80337C414.925 0.150491 396.649 -3.50002 374.197 -3.50002V4.49998ZM424.892 14.8383C437.342 21.4029 446.167 30.7102 451.542 42.8045L458.852 39.5554C452.708 25.7298 442.573 15.1171 428.623 7.76172L424.892 14.8383ZM451.567 42.8605C457.275 55.1883 460.197 69.8317 460.197 86.9H468.197C468.197 68.9283 465.12 53.0916 458.827 39.4995L451.567 42.8605ZM460.197 86.9C460.197 91.0728 459.965 95.4992 459.497 100.182L467.457 100.978C467.949 96.0608 468.197 91.3672 468.197 86.9H460.197ZM459.483 100.37C459.25 104.798 458.782 109.479 458.077 114.414L465.997 115.546C466.732 110.401 467.225 105.482 467.472 100.79L459.483 100.37ZM458.057 114.582C457.59 119.257 456.887 124.06 455.948 128.992L463.807 130.488C464.787 125.34 465.525 120.303 466.017 115.378L458.057 114.582ZM455.946 129.003C452.383 148.003 447.644 165.165 441.744 180.504L449.211 183.376C455.311 167.515 460.171 149.877 463.809 130.477L455.946 129.003ZM441.725 180.555C436.101 195.786 428.754 208.818 419.719 219.706L425.875 224.814C435.561 213.142 443.334 199.294 449.23 183.325L441.725 180.555ZM419.746 219.673C410.816 230.207 399.578 238.365 385.957 244.137L389.078 251.503C403.777 245.275 416.059 236.393 425.848 224.847L419.746 219.673ZM385.957 244.137C372.428 249.869 355.594 252.82 335.317 252.82V260.82C356.32 260.82 374.286 257.771 389.078 251.503L385.957 244.137ZM340.717 212.22C348.876 212.22 355.973 210.692 361.782 207.373L357.813 200.427C353.542 202.868 347.919 204.22 340.717 204.22V212.22ZM361.903 207.301C367.795 203.653 372.442 197.783 376.022 190.112L368.772 186.728C365.632 193.457 361.88 197.907 357.692 200.499L361.903 207.301ZM375.975 190.209C379.779 182.6 383.105 172.289 386.018 159.423L378.216 157.657C375.369 170.231 372.215 179.84 368.819 186.631L375.975 190.209ZM386.018 159.423C388.913 146.637 392.164 130.625 395.769 111.397L387.906 109.923C384.311 129.095 381.081 145.003 378.216 157.657L386.018 159.423ZM395.783 111.318C396.26 108.455 396.736 105.715 397.213 103.096L389.342 101.664C388.858 104.325 388.375 107.105 387.892 110.002L395.783 111.318ZM397.223 103.038C397.714 100.089 398.087 97.3607 398.337 94.858L390.377 94.062C390.147 96.3593 389.8 98.9113 389.332 101.722L397.223 103.038ZM398.341 94.8221C398.589 92.0876 398.717 89.5643 398.717 87.26H390.717C390.717 89.2756 390.605 91.5524 390.374 94.0979L398.341 94.8221ZM398.697 87.658C398.947 85.1576 399.077 82.8614 399.077 80.78H391.077C391.077 82.5385 390.967 84.5624 390.737 86.862L398.697 87.658ZM399.077 80.78C399.077 69.1849 396.894 59.8995 391.57 53.9841L385.624 59.3359C388.94 63.0205 391.077 69.8151 391.077 80.78H399.077ZM391.706 54.1432C386.593 47.8273 378.61 45.1 368.797 45.1V53.1C377.225 53.1 382.441 55.4127 385.488 59.1768L391.706 54.1432ZM368.797 45.1C360.376 45.1 353.103 46.7566 347.252 50.3789L351.463 57.181C355.691 54.5634 361.378 53.1 368.797 53.1V45.1ZM347.373 50.307C341.392 53.7244 336.605 59.6467 332.797 67.5178L339.998 71.0022C343.389 63.9933 347.242 59.5956 351.342 57.253L347.373 50.307ZM332.772 67.5685C329.259 75.0974 325.946 85.2138 322.797 97.8099L330.558 99.7501C333.649 87.3862 336.815 77.8226 340.022 70.9515L332.772 67.5685ZM322.78 97.8806C319.883 110.434 316.631 126.333 313.026 145.563L320.889 147.037C324.483 127.867 327.712 112.085 330.575 99.6794L322.78 97.8806ZM313.012 145.642C312.535 148.505 312.058 151.245 311.582 153.864L319.453 155.296C319.936 152.635 320.42 149.855 320.903 146.958L313.012 145.642ZM311.534 154.218C311.295 156.847 311.056 159.355 310.817 161.742L318.777 162.538C319.019 160.125 319.26 157.593 319.501 154.942L311.534 154.218ZM310.817 161.742C310.577 164.142 310.337 166.542 310.097 168.942L318.057 169.738C318.297 167.338 318.537 164.938 318.777 162.538L310.817 161.742ZM310.077 169.34C310.077 169.344 310.077 169.348 310.077 169.353C310.077 169.357 310.077 169.361 310.077 169.365C310.077 169.37 310.077 169.374 310.077 169.378C310.077 169.382 310.077 169.386 310.077 169.391C310.077 169.395 310.077 169.399 310.077 169.403C310.077 169.407 310.077 169.412 310.077 169.416C310.077 169.42 310.077 169.424 310.077 169.429C310.077 169.433 310.077 169.437 310.077 169.441C310.077 169.445 310.077 169.45 310.077 169.454C310.077 169.458 310.077 169.462 310.077 169.466C310.077 169.471 310.077 169.475 310.077 169.479C310.077 169.483 310.077 169.487 310.077 169.492C310.077 169.496 310.077 169.5 310.077 169.504C310.077 169.509 310.077 169.513 310.077 169.517C310.077 169.521 310.077 169.525 310.077 169.53C310.077 169.534 310.077 169.538 310.077 169.542C310.077 169.546 310.077 169.551 310.077 169.555C310.077 169.559 310.077 169.563 310.077 169.567C310.077 169.572 310.077 169.576 310.077 169.58C310.077 169.584 310.077 169.588 310.077 169.593C310.077 169.597 310.077 169.601 310.077 169.605C310.077 169.609 310.077 169.614 310.077 169.618C310.077 169.622 310.077 169.626 310.077 169.63C310.077 169.635 310.077 169.639 310.077 169.643C310.077 169.647 310.077 169.651 310.077 169.656C310.077 169.66 310.077 169.664 310.077 169.668C310.077 169.672 310.077 169.677 310.077 169.681C310.077 169.685 310.077 169.689 310.077 169.693C310.077 169.697 310.077 169.702 310.077 169.706C310.077 169.71 310.077 169.714 310.077 169.718C310.077 169.723 310.077 169.727 310.077 169.731C310.077 169.735 310.077 169.739 310.077 169.744C310.077 169.748 310.077 169.752 310.077 169.756C310.077 169.76 310.077 169.765 310.077 169.769C310.077 169.773 310.077 169.777 310.077 169.781C310.077 169.785 310.077 169.79 310.077 169.794C310.077 169.798 310.077 169.802 310.077 169.806C310.077 169.811 310.077 169.815 310.077 169.819C310.077 169.823 310.077 169.827 310.077 169.832C310.077 169.836 310.077 169.84 310.077 169.844C310.077 169.848 310.077 169.852 310.077 169.857C310.077 169.861 310.077 169.865 310.077 169.869C310.077 169.873 310.077 169.877 310.077 169.882C310.077 169.886 310.077 169.89 310.077 169.894C310.077 169.898 310.077 169.903 310.077 169.907C310.077 169.911 310.077 169.915 310.077 169.919C310.077 169.923 310.077 169.928 310.077 169.932C310.077 169.936 310.077 169.94 310.077 169.944C310.077 169.949 310.077 169.953 310.077 169.957C310.077 169.961 310.077 169.965 310.077 169.969C310.077 169.974 310.077 169.978 310.077 169.982C310.077 169.986 310.077 169.99 310.077 169.994C310.077 169.999 310.077 170.003 310.077 170.007C310.077 170.011 310.077 170.015 310.077 170.019C310.077 170.024 310.077 170.028 310.077 170.032C310.077 170.036 310.077 170.04 310.077 170.044C310.077 170.049 310.077 170.053 310.077 170.057C310.077 170.061 310.077 170.065 310.077 170.069C310.077 170.074 310.077 170.078 310.077 170.082C310.077 170.086 310.077 170.09 310.077 170.094C310.077 170.099 310.077 170.103 310.077 170.107C310.077 170.111 310.077 170.115 310.077 170.119C310.077 170.124 310.077 170.128 310.077 170.132C310.077 170.136 310.077 170.14 310.077 170.144C310.077 170.149 310.077 170.153 310.077 170.157C310.077 170.161 310.077 170.165 310.077 170.169C310.077 170.173 310.077 170.178 310.077 170.182C310.077 170.186 310.077 170.19 310.077 170.194C310.077 170.198 310.077 170.203 310.077 170.207C310.077 170.211 310.077 170.215 310.077 170.219C310.077 170.223 310.077 170.228 310.077 170.232C310.077 170.236 310.077 170.24 310.077 170.244C310.077 170.248 310.077 170.252 310.077 170.257C310.077 170.261 310.077 170.265 310.077 170.269C310.077 170.273 310.077 170.277 310.077 170.281C310.077 170.286 310.077 170.29 310.077 170.294C310.077 170.298 310.077 170.302 310.077 170.306C310.077 170.311 310.077 170.315 310.077 170.319C310.077 170.323 310.077 170.327 310.077 170.331C310.077 170.335 310.077 170.34 310.077 170.344C310.077 170.348 310.077 170.352 310.077 170.356C310.077 170.36 310.077 170.364 310.077 170.369C310.077 170.373 310.077 170.377 310.077 170.381C310.077 170.385 310.077 170.389 310.077 170.393C310.077 170.398 310.077 170.402 310.077 170.406C310.077 170.41 310.077 170.414 310.077 170.418C310.077 170.422 310.077 170.427 310.077 170.431C310.077 170.435 310.077 170.439 310.077 170.443C310.077 170.447 310.077 170.451 310.077 170.456C310.077 170.46 310.077 170.464 310.077 170.468C310.077 170.472 310.077 170.476 310.077 170.48C310.077 170.484 310.077 170.489 310.077 170.493C310.077 170.497 310.077 170.501 310.077 170.505C310.077 170.509 310.077 170.513 310.077 170.518C310.077 170.522 310.077 170.526 310.077 170.53C310.077 170.534 310.077 170.538 310.077 170.542C310.077 170.546 310.077 170.551 310.077 170.555C310.077 170.559 310.077 170.563 310.077 170.567C310.077 170.571 310.077 170.575 310.077 170.58C310.077 170.584 310.077 170.588 310.077 170.592C310.077 170.596 310.077 170.6 310.077 170.604C310.077 170.608 310.077 170.613 310.077 170.617C310.077 170.621 310.077 170.625 310.077 170.629C310.077 170.633 310.077 170.637 310.077 170.641C310.077 170.646 310.077 170.65 310.077 170.654C310.077 170.658 310.077 170.662 310.077 170.666C310.077 170.67 310.077 170.674 310.077 170.678C310.077 170.683 310.077 170.687 310.077 170.691C310.077 170.695 310.077 170.699 310.077 170.703C310.077 170.707 310.077 170.711 310.077 170.716C310.077 170.72 310.077 170.724 310.077 170.728C310.077 170.732 310.077 170.736 310.077 170.74C310.077 170.744 310.077 170.749 310.077 170.753C310.077 170.757 310.077 170.761 310.077 170.765C310.077 170.769 310.077 170.773 310.077 170.777C310.077 170.781 310.077 170.786 310.077 170.79C310.077 170.794 310.077 170.798 310.077 170.802C310.077 170.806 310.077 170.81 310.077 170.814C310.077 170.818 310.077 170.823 310.077 170.827C310.077 170.831 310.077 170.835 310.077 170.839C310.077 170.843 310.077 170.847 310.077 170.851C310.077 170.855 310.077 170.86 310.077 170.864C310.077 170.868 310.077 170.872 310.077 170.876C310.077 170.88 310.077 170.884 310.077 170.888C310.077 170.892 310.077 170.896 310.077 170.901C310.077 170.905 310.077 170.909 310.077 170.913C310.077 170.917 310.077 170.921 310.077 170.925C310.077 170.929 310.077 170.933 310.077 170.937C310.077 170.942 310.077 170.946 310.077 170.95C310.077 170.954 310.077 170.958 310.077 170.962C310.077 170.966 310.077 170.97 310.077 170.974C310.077 170.978 310.077 170.983 310.077 170.987C310.077 170.991 310.077 170.995 310.077 170.999C310.077 171.003 310.077 171.007 310.077 171.011C310.077 171.015 310.077 171.019 310.077 171.024C310.077 171.028 310.077 171.032 310.077 171.036C310.077 171.04 310.077 171.044 310.077 171.048C310.077 171.052 310.077 171.056 310.077 171.06C310.077 171.064 310.077 171.069 310.077 171.073C310.077 171.077 310.077 171.081 310.077 171.085C310.077 171.089 310.077 171.093 310.077 171.097C310.077 171.101 310.077 171.105 310.077 171.109C310.077 171.114 310.077 171.118 310.077 171.122C310.077 171.126 310.077 171.13 310.077 171.134C310.077 171.138 310.077 171.142 310.077 171.146C310.077 171.15 310.077 171.154 310.077 171.159C310.077 171.163 310.077 171.167 310.077 171.171C310.077 171.175 310.077 171.179 310.077 171.183C310.077 171.187 310.077 171.191 310.077 171.195C310.077 171.199 310.077 171.203 310.077 171.208C310.077 171.212 310.077 171.216 310.077 171.22C310.077 171.224 310.077 171.228 310.077 171.232C310.077 171.236 310.077 171.24 310.077 171.244C310.077 171.248 310.077 171.252 310.077 171.256C310.077 171.261 310.077 171.265 310.077 171.269C310.077 171.273 310.077 171.277 310.077 171.281C310.077 171.285 310.077 171.289 310.077 171.293C310.077 171.297 310.077 171.301 310.077 171.305C310.077 171.309 310.077 171.314 310.077 171.318C310.077 171.322 310.077 171.326 310.077 171.33C310.077 171.334 310.077 171.338 310.077 171.342C310.077 171.346 310.077 171.35 310.077 171.354C310.077 171.358 310.077 171.362 310.077 171.366C310.077 171.371 310.077 171.375 310.077 171.379C310.077 171.383 310.077 171.387 310.077 171.391C310.077 171.395 310.077 171.399 310.077 171.403C310.077 171.407 310.077 171.411 310.077 171.415C310.077 171.419 310.077 171.423 310.077 171.427C310.077 171.432 310.077 171.436 310.077 171.44C310.077 171.444 310.077 171.448 310.077 171.452C310.077 171.456 310.077 171.46 310.077 171.464C310.077 171.468 310.077 171.472 310.077 171.476C310.077 171.48 310.077 171.484 310.077 171.488C310.077 171.492 310.077 171.497 310.077 171.501C310.077 171.505 310.077 171.509 310.077 171.513C310.077 171.517 310.077 171.521 310.077 171.525C310.077 171.529 310.077 171.533 310.077 171.537C310.077 171.541 310.077 171.545 310.077 171.549C310.077 171.553 310.077 171.557 310.077 171.561C310.077 171.566 310.077 171.57 310.077 171.574C310.077 171.578 310.077 171.582 310.077 171.586C310.077 171.59 310.077 171.594 310.077 171.598C310.077 171.602 310.077 171.606 310.077 171.61C310.077 171.614 310.077 171.618 310.077 171.622C310.077 171.626 310.077 171.63 310.077 171.634C310.077 171.638 310.077 171.642 310.077 171.647C310.077 171.651 310.077 171.655 310.077 171.659C310.077 171.663 310.077 171.667 310.077 171.671C310.077 171.675 310.077 171.679 310.077 171.683C310.077 171.687 310.077 171.691 310.077 171.695C310.077 171.699 310.077 171.703 310.077 171.707C310.077 171.711 310.077 171.715 310.077 171.719C310.077 171.723 310.077 171.727 310.077 171.731C310.077 171.736 310.077 171.74 310.077 171.744C310.077 171.748 310.077 171.752 310.077 171.756C310.077 171.76 310.077 171.764 310.077 171.768C310.077 171.772 310.077 171.776 310.077 171.78C310.077 171.784 310.077 171.788 310.077 171.792C310.077 171.796 310.077 171.8 310.077 171.804C310.077 171.808 310.077 171.812 310.077 171.816C310.077 171.82 310.077 171.824 310.077 171.828C310.077 171.832 310.077 171.836 310.077 171.841C310.077 171.845 310.077 171.849 310.077 171.853C310.077 171.857 310.077 171.861 310.077 171.865C310.077 171.869 310.077 171.873 310.077 171.877C310.077 171.881 310.077 171.885 310.077 171.889C310.077 171.893 310.077 171.897 310.077 171.901C310.077 171.905 310.077 171.909 310.077 171.913C310.077 171.917 310.077 171.921 310.077 171.925C310.077 171.929 310.077 171.933 310.077 171.937C310.077 171.941 310.077 171.945 310.077 171.949C310.077 171.953 310.077 171.957 310.077 171.961C310.077 171.965 310.077 171.969 310.077 171.973C310.077 171.977 310.077 171.982 310.077 171.986C310.077 171.99 310.077 171.994 310.077 171.998C310.077 172.002 310.077 172.006 310.077 172.01C310.077 172.014 310.077 172.018 310.077 172.022C310.077 172.026 310.077 172.03 310.077 172.034C310.077 172.038 310.077 172.042 310.077 172.046C310.077 172.05 310.077 172.054 310.077 172.058C310.077 172.062 310.077 172.066 310.077 172.07C310.077 172.074 310.077 172.078 310.077 172.082C310.077 172.086 310.077 172.09 310.077 172.094C310.077 172.098 310.077 172.102 310.077 172.106C310.077 172.11 310.077 172.114 310.077 172.118C310.077 172.122 310.077 172.126 310.077 172.13C310.077 172.134 310.077 172.138 310.077 172.142C310.077 172.146 310.077 172.15 310.077 172.154C310.077 172.158 310.077 172.162 310.077 172.166C310.077 172.17 310.077 172.174 310.077 172.178C310.077 172.182 310.077 172.186 310.077 172.19C310.077 172.194 310.077 172.198 310.077 172.202C310.077 172.206 310.077 172.21 310.077 172.214C310.077 172.218 310.077 172.222 310.077 172.226C310.077 172.23 310.077 172.234 310.077 172.238C310.077 172.242 310.077 172.246 310.077 172.25C310.077 172.254 310.077 172.258 310.077 172.262C310.077 172.266 310.077 172.27 310.077 172.274C310.077 172.278 310.077 172.282 310.077 172.286C310.077 172.29 310.077 172.294 310.077 172.298C310.077 172.302 310.077 172.306 310.077 172.31C310.077 172.314 310.077 172.318 310.077 172.322C310.077 172.326 310.077 172.33 310.077 172.334C310.077 172.338 310.077 172.342 310.077 172.346C310.077 172.35 310.077 172.354 310.077 172.358C310.077 172.362 310.077 172.366 310.077 172.37C310.077 172.374 310.077 172.378 310.077 172.382C310.077 172.386 310.077 172.39 310.077 172.394C310.077 172.398 310.077 172.402 310.077 172.406C310.077 172.41 310.077 172.414 310.077 172.418C310.077 172.422 310.077 172.426 310.077 172.43C310.077 172.434 310.077 172.438 310.077 172.442C310.077 172.446 310.077 172.45 310.077 172.454C310.077 172.458 310.077 172.462 310.077 172.466C310.077 172.47 310.077 172.474 310.077 172.478C310.077 172.482 310.077 172.486 310.077 172.49C310.077 172.494 310.077 172.498 310.077 172.502C310.077 172.506 310.077 172.51 310.077 172.514C310.077 172.518 310.077 172.522 310.077 172.526C310.077 172.53 310.077 172.534 310.077 172.538C310.077 172.542 310.077 172.546 310.077 172.55C310.077 172.554 310.077 172.558 310.077 172.562C310.077 172.566 310.077 172.57 310.077 172.574C310.077 172.578 310.077 172.582 310.077 172.586C310.077 172.59 310.077 172.593 310.077 172.597C310.077 172.601 310.077 172.605 310.077 172.609C310.077 172.613 310.077 172.617 310.077 172.621C310.077 172.625 310.077 172.629 310.077 172.633C310.077 172.637 310.077 172.641 310.077 172.645C310.077 172.649 310.077 172.653 310.077 172.657C310.077 172.661 310.077 172.665 310.077 172.669C310.077 172.673 310.077 172.677 310.077 172.681C310.077 172.685 310.077 172.689 310.077 172.693C310.077 172.697 310.077 172.701 310.077 172.705C310.077 172.709 310.077 172.713 310.077 172.717C310.077 172.721 310.077 172.725 310.077 172.729C310.077 172.732 310.077 172.736 310.077 172.74C310.077 172.744 310.077 172.748 310.077 172.752C310.077 172.756 310.077 172.76 310.077 172.764C310.077 172.768 310.077 172.772 310.077 172.776C310.077 172.78 310.077 172.784 310.077 172.788C310.077 172.792 310.077 172.796 310.077 172.8C310.077 172.804 310.077 172.808 310.077 172.812C310.077 172.816 310.077 172.82 310.077 172.824C310.077 172.828 310.077 172.832 310.077 172.835C310.077 172.839 310.077 172.843 310.077 172.847C310.077 172.851 310.077 172.855 310.077 172.859C310.077 172.863 310.077 172.867 310.077 172.871C310.077 172.875 310.077 172.879 310.077 172.883C310.077 172.887 310.077 172.891 310.077 172.895C310.077 172.899 310.077 172.903 310.077 172.907C310.077 172.911 310.077 172.915 310.077 172.919C310.077 172.922 310.077 172.926 310.077 172.93C310.077 172.934 310.077 172.938 310.077 172.942C310.077 172.946 310.077 172.95 310.077 172.954C310.077 172.958 310.077 172.962 310.077 172.966C310.077 172.97 310.077 172.974 310.077 172.978C310.077 172.982 310.077 172.986 310.077 172.99C310.077 172.994 310.077 172.997 310.077 173.001C310.077 173.005 310.077 173.009 310.077 173.013C310.077 173.017 310.077 173.021 310.077 173.025C310.077 173.029 310.077 173.033 310.077 173.037C310.077 173.041 310.077 173.045 310.077 173.049C310.077 173.053 310.077 173.057 310.077 173.061C310.077 173.065 310.077 173.068 310.077 173.072C310.077 173.076 310.077 173.08 310.077 173.084C310.077 173.088 310.077 173.092 310.077 173.096C310.077 173.1 310.077 173.104 310.077 173.108C310.077 173.112 310.077 173.116 310.077 173.12C310.077 173.124 310.077 173.128 310.077 173.131C310.077 173.135 310.077 173.139 310.077 173.143C310.077 173.147 310.077 173.151 310.077 173.155C310.077 173.159 310.077 173.163 310.077 173.167C310.077 173.171 310.077 173.175 310.077 173.179C310.077 173.183 310.077 173.187 310.077 173.19C310.077 173.194 310.077 173.198 310.077 173.202C310.077 173.206 310.077 173.21 310.077 173.214C310.077 173.218 310.077 173.222 310.077 173.226C310.077 173.23 310.077 173.234 310.077 173.238C310.077 173.242 310.077 173.245 310.077 173.249C310.077 173.253 310.077 173.257 310.077 173.261C310.077 173.265 310.077 173.269 310.077 173.273C310.077 173.277 310.077 173.281 310.077 173.285C310.077 173.289 310.077 173.293 310.077 173.296C310.077 173.3 310.077 173.304 310.077 173.308C310.077 173.312 310.077 173.316 310.077 173.32C310.077 173.324 310.077 173.328 310.077 173.332C310.077 173.336 310.077 173.34 310.077 173.344C310.077 173.347 310.077 173.351 310.077 173.355C310.077 173.359 310.077 173.363 310.077 173.367C310.077 173.371 310.077 173.375 310.077 173.379C310.077 173.383 310.077 173.387 310.077 173.39C310.077 173.394 310.077 173.398 310.077 173.402C310.077 173.406 310.077 173.41 310.077 173.414C310.077 173.418 310.077 173.422 310.077 173.426C310.077 173.43 310.077 173.434 310.077 173.437C310.077 173.441 310.077 173.445 310.077 173.449C310.077 173.453 310.077 173.457 310.077 173.461C310.077 173.465 310.077 173.469 310.077 173.473C310.077 173.477 310.077 173.48 310.077 173.484C310.077 173.488 310.077 173.492 310.077 173.496C310.077 173.5 310.077 173.504 310.077 173.508C310.077 173.512 310.077 173.516 310.077 173.52C310.077 173.523 310.077 173.527 310.077 173.531C310.077 173.535 310.077 173.539 310.077 173.543C310.077 173.547 310.077 173.551 310.077 173.555C310.077 173.559 310.077 173.562 310.077 173.566C310.077 173.57 310.077 173.574 310.077 173.578C310.077 173.582 310.077 173.586 310.077 173.59C310.077 173.594 310.077 173.598 310.077 173.601C310.077 173.605 310.077 173.609 310.077 173.613C310.077 173.617 310.077 173.621 310.077 173.625C310.077 173.629 310.077 173.633 310.077 173.637C310.077 173.64 310.077 173.644 310.077 173.648C310.077 173.652 310.077 173.656 310.077 173.66C310.077 173.664 310.077 173.668 310.077 173.672C310.077 173.675 310.077 173.679 310.077 173.683C310.077 173.687 310.077 173.691 310.077 173.695C310.077 173.699 310.077 173.703 310.077 173.707C310.077 173.71 310.077 173.714 310.077 173.718C310.077 173.722 310.077 173.726 310.077 173.73C310.077 173.734 310.077 173.738 310.077 173.742C310.077 173.745 310.077 173.749 310.077 173.753C310.077 173.757 310.077 173.761 310.077 173.765C310.077 173.769 310.077 173.773 310.077 173.777C310.077 173.78 310.077 173.784 310.077 173.788C310.077 173.792 310.077 173.796 310.077 173.8C310.077 173.804 310.077 173.808 310.077 173.812C310.077 173.815 310.077 173.819 310.077 173.823C310.077 173.827 310.077 173.831 310.077 173.835C310.077 173.839 310.077 173.843 310.077 173.846C310.077 173.85 310.077 173.854 310.077 173.858C310.077 173.862 310.077 173.866 310.077 173.87C310.077 173.874 310.077 173.877 310.077 173.881C310.077 173.885 310.077 173.889 310.077 173.893C310.077 173.897 310.077 173.901 310.077 173.905C310.077 173.908 310.077 173.912 310.077 173.916C310.077 173.92 310.077 173.924 310.077 173.928C310.077 173.932 310.077 173.936 310.077 173.939C310.077 173.943 310.077 173.947 310.077 173.951C310.077 173.955 310.077 173.959 310.077 173.963C310.077 173.967 310.077 173.97 310.077 173.974C310.077 173.978 310.077 173.982 310.077 173.986C310.077 173.99 310.077 173.994 310.077 173.997C310.077 174.001 310.077 174.005 310.077 174.009C310.077 174.013 310.077 174.017 310.077 174.021C310.077 174.025 310.077 174.028 310.077 174.032C310.077 174.036 310.077 174.04 310.077 174.044C310.077 174.048 310.077 174.052 310.077 174.055C310.077 174.059 310.077 174.063 310.077 174.067C310.077 174.071 310.077 174.075 310.077 174.079C310.077 174.082 310.077 174.086 310.077 174.09C310.077 174.094 310.077 174.098 310.077 174.102C310.077 174.106 310.077 174.11 310.077 174.113C310.077 174.117 310.077 174.121 310.077 174.125C310.077 174.129 310.077 174.133 310.077 174.137C310.077 174.14 310.077 174.144 310.077 174.148C310.077 174.152 310.077 174.156 310.077 174.16C310.077 174.164 310.077 174.167 310.077 174.171C310.077 174.175 310.077 174.179 310.077 174.183C310.077 174.187 310.077 174.19 310.077 174.194C310.077 174.198 310.077 174.202 310.077 174.206C310.077 174.21 310.077 174.214 310.077 174.217C310.077 174.221 310.077 174.225 310.077 174.229C310.077 174.233 310.077 174.237 310.077 174.241C310.077 174.244 310.077 174.248 310.077 174.252C310.077 174.256 310.077 174.26 310.077 174.264C310.077 174.267 310.077 174.271 310.077 174.275C310.077 174.279 310.077 174.283 310.077 174.287C310.077 174.291 310.077 174.294 310.077 174.298C310.077 174.302 310.077 174.306 310.077 174.31C310.077 174.314 310.077 174.317 310.077 174.321C310.077 174.325 310.077 174.329 310.077 174.333C310.077 174.337 310.077 174.34 310.077 174.344C310.077 174.348 310.077 174.352 310.077 174.356C310.077 174.36 310.077 174.363 310.077 174.367C310.077 174.371 310.077 174.375 310.077 174.379C310.077 174.383 310.077 174.387 310.077 174.39C310.077 174.394 310.077 174.398 310.077 174.402C310.077 174.406 310.077 174.41 310.077 174.413C310.077 174.417 310.077 174.421 310.077 174.425C310.077 174.429 310.077 174.433 310.077 174.436C310.077 174.44 310.077 174.444 310.077 174.448C310.077 174.452 310.077 174.456 310.077 174.459C310.077 174.463 310.077 174.467 310.077 174.471C310.077 174.475 310.077 174.479 310.077 174.482C310.077 174.486 310.077 174.49 310.077 174.494C310.077 174.498 310.077 174.501 310.077 174.505C310.077 174.509 310.077 174.513 310.077 174.517C310.077 174.521 310.077 174.524 310.077 174.528C310.077 174.532 310.077 174.536 310.077 174.54C310.077 174.544 310.077 174.547 310.077 174.551C310.077 174.555 310.077 174.559 310.077 174.563C310.077 174.566 310.077 174.57 310.077 174.574C310.077 174.578 310.077 174.582 310.077 174.586C310.077 174.589 310.077 174.593 310.077 174.597C310.077 174.601 310.077 174.605 310.077 174.609C310.077 174.612 310.077 174.616 310.077 174.62C310.077 174.624 310.077 174.628 310.077 174.631C310.077 174.635 310.077 174.639 310.077 174.643C310.077 174.647 310.077 174.651 310.077 174.654C310.077 174.658 310.077 174.662 310.077 174.666C310.077 174.67 310.077 174.673 310.077 174.677C310.077 174.681 310.077 174.685 310.077 174.689C310.077 174.692 310.077 174.696 310.077 174.7C310.077 174.704 310.077 174.708 310.077 174.712C310.077 174.715 310.077 174.719 310.077 174.723C310.077 174.727 310.077 174.731 310.077 174.734C310.077 174.738 310.077 174.742 310.077 174.746C310.077 174.75 310.077 174.753 310.077 174.757C310.077 174.761 310.077 174.765 310.077 174.769C310.077 174.772 310.077 174.776 310.077 174.78C310.077 174.784 310.077 174.788 310.077 174.791C310.077 174.795 310.077 174.799 310.077 174.803C310.077 174.807 310.077 174.81 310.077 174.814C310.077 174.818 310.077 174.822 310.077 174.826C310.077 174.829 310.077 174.833 310.077 174.837C310.077 174.841 310.077 174.845 310.077 174.848C310.077 174.852 310.077 174.856 310.077 174.86C310.077 174.864 310.077 174.867 310.077 174.871C310.077 174.875 310.077 174.879 310.077 174.883C310.077 174.886 310.077 174.89 310.077 174.894C310.077 174.898 310.077 174.902 310.077 174.905C310.077 174.909 310.077 174.913 310.077 174.917C310.077 174.921 310.077 174.924 310.077 174.928C310.077 174.932 310.077 174.936 310.077 174.94C310.077 174.943 310.077 174.947 310.077 174.951C310.077 174.955 310.077 174.959 310.077 174.962C310.077 174.966 310.077 174.97 310.077 174.974C310.077 174.977 310.077 174.981 310.077 174.985C310.077 174.989 310.077 174.993 310.077 174.996C310.077 175 310.077 175.004 310.077 175.008C310.077 175.012 310.077 175.015 310.077 175.019C310.077 175.023 310.077 175.027 310.077 175.031C310.077 175.034 310.077 175.038 310.077 175.042C310.077 175.046 310.077 175.049 310.077 175.053C310.077 175.057 310.077 175.061 310.077 175.065C310.077 175.068 310.077 175.072 310.077 175.076C310.077 175.08 310.077 175.083 310.077 175.087C310.077 175.091 310.077 175.095 310.077 175.099C310.077 175.102 310.077 175.106 310.077 175.11C310.077 175.114 310.077 175.117 310.077 175.121C310.077 175.125 310.077 175.129 310.077 175.133C310.077 175.136 310.077 175.14 310.077 175.144C310.077 175.148 310.077 175.151 310.077 175.155C310.077 175.159 310.077 175.163 310.077 175.167C310.077 175.17 310.077 175.174 310.077 175.178C310.077 175.182 310.077 175.185 310.077 175.189C310.077 175.193 310.077 175.197 310.077 175.201C310.077 175.204 310.077 175.208 310.077 175.212C310.077 175.216 310.077 175.219 310.077 175.223C310.077 175.227 310.077 175.231 310.077 175.234C310.077 175.238 310.077 175.242 310.077 175.246C310.077 175.25 310.077 175.253 310.077 175.257C310.077 175.261 310.077 175.265 310.077 175.268C310.077 175.272 310.077 175.276 310.077 175.28C310.077 175.283 310.077 175.287 310.077 175.291C310.077 175.295 310.077 175.298 310.077 175.302C310.077 175.306 310.077 175.31 310.077 175.314C310.077 175.317 310.077 175.321 310.077 175.325C310.077 175.329 310.077 175.332 310.077 175.336C310.077 175.34 310.077 175.344 310.077 175.347C310.077 175.351 310.077 175.355 310.077 175.359C310.077 175.362 310.077 175.366 310.077 175.37C310.077 175.374 310.077 175.377 310.077 175.381C310.077 175.385 310.077 175.389 310.077 175.392C310.077 175.396 310.077 175.4 310.077 175.404C310.077 175.407 310.077 175.411 310.077 175.415C310.077 175.419 310.077 175.422 310.077 175.426C310.077 175.43 310.077 175.434 310.077 175.437C310.077 175.441 310.077 175.445 310.077 175.449C310.077 175.452 310.077 175.456 310.077 175.46H318.077C318.077 175.456 318.077 175.452 318.077 175.449C318.077 175.445 318.077 175.441 318.077 175.437C318.077 175.434 318.077 175.43 318.077 175.426C318.077 175.422 318.077 175.419 318.077 175.415C318.077 175.411 318.077 175.407 318.077 175.404C318.077 175.4 318.077 175.396 318.077 175.392C318.077 175.389 318.077 175.385 318.077 175.381C318.077 175.377 318.077 175.374 318.077 175.37C318.077 175.366 318.077 175.362 318.077 175.359C318.077 175.355 318.077 175.351 318.077 175.347C318.077 175.344 318.077 175.34 318.077 175.336C318.077 175.332 318.077 175.329 318.077 175.325C318.077 175.321 318.077 175.317 318.077 175.314C318.077 175.31 318.077 175.306 318.077 175.302C318.077 175.298 318.077 175.295 318.077 175.291C318.077 175.287 318.077 175.283 318.077 175.28C318.077 175.276 318.077 175.272 318.077 175.268C318.077 175.265 318.077 175.261 318.077 175.257C318.077 175.253 318.077 175.25 318.077 175.246C318.077 175.242 318.077 175.238 318.077 175.234C318.077 175.231 318.077 175.227 318.077 175.223C318.077 175.219 318.077 175.216 318.077 175.212C318.077 175.208 318.077 175.204 318.077 175.201C318.077 175.197 318.077 175.193 318.077 175.189C318.077 175.185 318.077 175.182 318.077 175.178C318.077 175.174 318.077 175.17 318.077 175.167C318.077 175.163 318.077 175.159 318.077 175.155C318.077 175.151 318.077 175.148 318.077 175.144C318.077 175.14 318.077 175.136 318.077 175.133C318.077 175.129 318.077 175.125 318.077 175.121C318.077 175.117 318.077 175.114 318.077 175.11C318.077 175.106 318.077 175.102 318.077 175.099C318.077 175.095 318.077 175.091 318.077 175.087C318.077 175.083 318.077 175.08 318.077 175.076C318.077 175.072 318.077 175.068 318.077 175.065C318.077 175.061 318.077 175.057 318.077 175.053C318.077 175.049 318.077 175.046 318.077 175.042C318.077 175.038 318.077 175.034 318.077 175.031C318.077 175.027 318.077 175.023 318.077 175.019C318.077 175.015 318.077 175.012 318.077 175.008C318.077 175.004 318.077 175 318.077 174.996C318.077 174.993 318.077 174.989 318.077 174.985C318.077 174.981 318.077 174.977 318.077 174.974C318.077 174.97 318.077 174.966 318.077 174.962C318.077 174.959 318.077 174.955 318.077 174.951C318.077 174.947 318.077 174.943 318.077 174.94C318.077 174.936 318.077 174.932 318.077 174.928C318.077 174.924 318.077 174.921 318.077 174.917C318.077 174.913 318.077 174.909 318.077 174.905C318.077 174.902 318.077 174.898 318.077 174.894C318.077 174.89 318.077 174.886 318.077 174.883C318.077 174.879 318.077 174.875 318.077 174.871C318.077 174.867 318.077 174.864 318.077 174.86C318.077 174.856 318.077 174.852 318.077 174.848C318.077 174.845 318.077 174.841 318.077 174.837C318.077 174.833 318.077 174.829 318.077 174.826C318.077 174.822 318.077 174.818 318.077 174.814C318.077 174.81 318.077 174.807 318.077 174.803C318.077 174.799 318.077 174.795 318.077 174.791C318.077 174.788 318.077 174.784 318.077 174.78C318.077 174.776 318.077 174.772 318.077 174.769C318.077 174.765 318.077 174.761 318.077 174.757C318.077 174.753 318.077 174.75 318.077 174.746C318.077 174.742 318.077 174.738 318.077 174.734C318.077 174.731 318.077 174.727 318.077 174.723C318.077 174.719 318.077 174.715 318.077 174.712C318.077 174.708 318.077 174.704 318.077 174.7C318.077 174.696 318.077 174.692 318.077 174.689C318.077 174.685 318.077 174.681 318.077 174.677C318.077 174.673 318.077 174.67 318.077 174.666C318.077 174.662 318.077 174.658 318.077 174.654C318.077 174.651 318.077 174.647 318.077 174.643C318.077 174.639 318.077 174.635 318.077 174.631C318.077 174.628 318.077 174.624 318.077 174.62C318.077 174.616 318.077 174.612 318.077 174.609C318.077 174.605 318.077 174.601 318.077 174.597C318.077 174.593 318.077 174.589 318.077 174.586C318.077 174.582 318.077 174.578 318.077 174.574C318.077 174.57 318.077 174.566 318.077 174.563C318.077 174.559 318.077 174.555 318.077 174.551C318.077 174.547 318.077 174.544 318.077 174.54C318.077 174.536 318.077 174.532 318.077 174.528C318.077 174.524 318.077 174.521 318.077 174.517C318.077 174.513 318.077 174.509 318.077 174.505C318.077 174.501 318.077 174.498 318.077 174.494C318.077 174.49 318.077 174.486 318.077 174.482C318.077 174.479 318.077 174.475 318.077 174.471C318.077 174.467 318.077 174.463 318.077 174.459C318.077 174.456 318.077 174.452 318.077 174.448C318.077 174.444 318.077 174.44 318.077 174.436C318.077 174.433 318.077 174.429 318.077 174.425C318.077 174.421 318.077 174.417 318.077 174.413C318.077 174.41 318.077 174.406 318.077 174.402C318.077 174.398 318.077 174.394 318.077 174.39C318.077 174.387 318.077 174.383 318.077 174.379C318.077 174.375 318.077 174.371 318.077 174.367C318.077 174.363 318.077 174.36 318.077 174.356C318.077 174.352 318.077 174.348 318.077 174.344C318.077 174.34 318.077 174.337 318.077 174.333C318.077 174.329 318.077 174.325 318.077 174.321C318.077 174.317 318.077 174.314 318.077 174.31C318.077 174.306 318.077 174.302 318.077 174.298C318.077 174.294 318.077 174.291 318.077 174.287C318.077 174.283 318.077 174.279 318.077 174.275C318.077 174.271 318.077 174.267 318.077 174.264C318.077 174.26 318.077 174.256 318.077 174.252C318.077 174.248 318.077 174.244 318.077 174.241C318.077 174.237 318.077 174.233 318.077 174.229C318.077 174.225 318.077 174.221 318.077 174.217C318.077 174.214 318.077 174.21 318.077 174.206C318.077 174.202 318.077 174.198 318.077 174.194C318.077 174.19 318.077 174.187 318.077 174.183C318.077 174.179 318.077 174.175 318.077 174.171C318.077 174.167 318.077 174.164 318.077 174.16C318.077 174.156 318.077 174.152 318.077 174.148C318.077 174.144 318.077 174.14 318.077 174.137C318.077 174.133 318.077 174.129 318.077 174.125C318.077 174.121 318.077 174.117 318.077 174.113C318.077 174.11 318.077 174.106 318.077 174.102C318.077 174.098 318.077 174.094 318.077 174.09C318.077 174.086 318.077 174.082 318.077 174.079C318.077 174.075 318.077 174.071 318.077 174.067C318.077 174.063 318.077 174.059 318.077 174.055C318.077 174.052 318.077 174.048 318.077 174.044C318.077 174.04 318.077 174.036 318.077 174.032C318.077 174.028 318.077 174.025 318.077 174.021C318.077 174.017 318.077 174.013 318.077 174.009C318.077 174.005 318.077 174.001 318.077 173.997C318.077 173.994 318.077 173.99 318.077 173.986C318.077 173.982 318.077 173.978 318.077 173.974C318.077 173.97 318.077 173.967 318.077 173.963C318.077 173.959 318.077 173.955 318.077 173.951C318.077 173.947 318.077 173.943 318.077 173.939C318.077 173.936 318.077 173.932 318.077 173.928C318.077 173.924 318.077 173.92 318.077 173.916C318.077 173.912 318.077 173.908 318.077 173.905C318.077 173.901 318.077 173.897 318.077 173.893C318.077 173.889 318.077 173.885 318.077 173.881C318.077 173.877 318.077 173.874 318.077 173.87C318.077 173.866 318.077 173.862 318.077 173.858C318.077 173.854 318.077 173.85 318.077 173.846C318.077 173.843 318.077 173.839 318.077 173.835C318.077 173.831 318.077 173.827 318.077 173.823C318.077 173.819 318.077 173.815 318.077 173.812C318.077 173.808 318.077 173.804 318.077 173.8C318.077 173.796 318.077 173.792 318.077 173.788C318.077 173.784 318.077 173.78 318.077 173.777C318.077 173.773 318.077 173.769 318.077 173.765C318.077 173.761 318.077 173.757 318.077 173.753C318.077 173.749 318.077 173.745 318.077 173.742C318.077 173.738 318.077 173.734 318.077 173.73C318.077 173.726 318.077 173.722 318.077 173.718C318.077 173.714 318.077 173.71 318.077 173.707C318.077 173.703 318.077 173.699 318.077 173.695C318.077 173.691 318.077 173.687 318.077 173.683C318.077 173.679 318.077 173.675 318.077 173.672C318.077 173.668 318.077 173.664 318.077 173.66C318.077 173.656 318.077 173.652 318.077 173.648C318.077 173.644 318.077 173.64 318.077 173.637C318.077 173.633 318.077 173.629 318.077 173.625C318.077 173.621 318.077 173.617 318.077 173.613C318.077 173.609 318.077 173.605 318.077 173.601C318.077 173.598 318.077 173.594 318.077 173.59C318.077 173.586 318.077 173.582 318.077 173.578C318.077 173.574 318.077 173.57 318.077 173.566C318.077 173.562 318.077 173.559 318.077 173.555C318.077 173.551 318.077 173.547 318.077 173.543C318.077 173.539 318.077 173.535 318.077 173.531C318.077 173.527 318.077 173.523 318.077 173.52C318.077 173.516 318.077 173.512 318.077 173.508C318.077 173.504 318.077 173.5 318.077 173.496C318.077 173.492 318.077 173.488 318.077 173.484C318.077 173.48 318.077 173.477 318.077 173.473C318.077 173.469 318.077 173.465 318.077 173.461C318.077 173.457 318.077 173.453 318.077 173.449C318.077 173.445 318.077 173.441 318.077 173.437C318.077 173.434 318.077 173.43 318.077 173.426C318.077 173.422 318.077 173.418 318.077 173.414C318.077 173.41 318.077 173.406 318.077 173.402C318.077 173.398 318.077 173.394 318.077 173.39C318.077 173.387 318.077 173.383 318.077 173.379C318.077 173.375 318.077 173.371 318.077 173.367C318.077 173.363 318.077 173.359 318.077 173.355C318.077 173.351 318.077 173.347 318.077 173.344C318.077 173.34 318.077 173.336 318.077 173.332C318.077 173.328 318.077 173.324 318.077 173.32C318.077 173.316 318.077 173.312 318.077 173.308C318.077 173.304 318.077 173.3 318.077 173.296C318.077 173.293 318.077 173.289 318.077 173.285C318.077 173.281 318.077 173.277 318.077 173.273C318.077 173.269 318.077 173.265 318.077 173.261C318.077 173.257 318.077 173.253 318.077 173.249C318.077 173.245 318.077 173.242 318.077 173.238C318.077 173.234 318.077 173.23 318.077 173.226C318.077 173.222 318.077 173.218 318.077 173.214C318.077 173.21 318.077 173.206 318.077 173.202C318.077 173.198 318.077 173.194 318.077 173.19C318.077 173.187 318.077 173.183 318.077 173.179C318.077 173.175 318.077 173.171 318.077 173.167C318.077 173.163 318.077 173.159 318.077 173.155C318.077 173.151 318.077 173.147 318.077 173.143C318.077 173.139 318.077 173.135 318.077 173.131C318.077 173.128 318.077 173.124 318.077 173.12C318.077 173.116 318.077 173.112 318.077 173.108C318.077 173.104 318.077 173.1 318.077 173.096C318.077 173.092 318.077 173.088 318.077 173.084C318.077 173.08 318.077 173.076 318.077 173.072C318.077 173.068 318.077 173.065 318.077 173.061C318.077 173.057 318.077 173.053 318.077 173.049C318.077 173.045 318.077 173.041 318.077 173.037C318.077 173.033 318.077 173.029 318.077 173.025C318.077 173.021 318.077 173.017 318.077 173.013C318.077 173.009 318.077 173.005 318.077 173.001C318.077 172.997 318.077 172.994 318.077 172.99C318.077 172.986 318.077 172.982 318.077 172.978C318.077 172.974 318.077 172.97 318.077 172.966C318.077 172.962 318.077 172.958 318.077 172.954C318.077 172.95 318.077 172.946 318.077 172.942C318.077 172.938 318.077 172.934 318.077 172.93C318.077 172.926 318.077 172.922 318.077 172.919C318.077 172.915 318.077 172.911 318.077 172.907C318.077 172.903 318.077 172.899 318.077 172.895C318.077 172.891 318.077 172.887 318.077 172.883C318.077 172.879 318.077 172.875 318.077 172.871C318.077 172.867 318.077 172.863 318.077 172.859C318.077 172.855 318.077 172.851 318.077 172.847C318.077 172.843 318.077 172.839 318.077 172.835C318.077 172.832 318.077 172.828 318.077 172.824C318.077 172.82 318.077 172.816 318.077 172.812C318.077 172.808 318.077 172.804 318.077 172.8C318.077 172.796 318.077 172.792 318.077 172.788C318.077 172.784 318.077 172.78 318.077 172.776C318.077 172.772 318.077 172.768 318.077 172.764C318.077 172.76 318.077 172.756 318.077 172.752C318.077 172.748 318.077 172.744 318.077 172.74C318.077 172.736 318.077 172.732 318.077 172.729C318.077 172.725 318.077 172.721 318.077 172.717C318.077 172.713 318.077 172.709 318.077 172.705C318.077 172.701 318.077 172.697 318.077 172.693C318.077 172.689 318.077 172.685 318.077 172.681C318.077 172.677 318.077 172.673 318.077 172.669C318.077 172.665 318.077 172.661 318.077 172.657C318.077 172.653 318.077 172.649 318.077 172.645C318.077 172.641 318.077 172.637 318.077 172.633C318.077 172.629 318.077 172.625 318.077 172.621C318.077 172.617 318.077 172.613 318.077 172.609C318.077 172.605 318.077 172.601 318.077 172.597C318.077 172.593 318.077 172.59 318.077 172.586C318.077 172.582 318.077 172.578 318.077 172.574C318.077 172.57 318.077 172.566 318.077 172.562C318.077 172.558 318.077 172.554 318.077 172.55C318.077 172.546 318.077 172.542 318.077 172.538C318.077 172.534 318.077 172.53 318.077 172.526C318.077 172.522 318.077 172.518 318.077 172.514C318.077 172.51 318.077 172.506 318.077 172.502C318.077 172.498 318.077 172.494 318.077 172.49C318.077 172.486 318.077 172.482 318.077 172.478C318.077 172.474 318.077 172.47 318.077 172.466C318.077 172.462 318.077 172.458 318.077 172.454C318.077 172.45 318.077 172.446 318.077 172.442C318.077 172.438 318.077 172.434 318.077 172.43C318.077 172.426 318.077 172.422 318.077 172.418C318.077 172.414 318.077 172.41 318.077 172.406C318.077 172.402 318.077 172.398 318.077 172.394C318.077 172.39 318.077 172.386 318.077 172.382C318.077 172.378 318.077 172.374 318.077 172.37C318.077 172.366 318.077 172.362 318.077 172.358C318.077 172.354 318.077 172.35 318.077 172.346C318.077 172.342 318.077 172.338 318.077 172.334C318.077 172.33 318.077 172.326 318.077 172.322C318.077 172.318 318.077 172.314 318.077 172.31C318.077 172.306 318.077 172.302 318.077 172.298C318.077 172.294 318.077 172.29 318.077 172.286C318.077 172.282 318.077 172.278 318.077 172.274C318.077 172.27 318.077 172.266 318.077 172.262C318.077 172.258 318.077 172.254 318.077 172.25C318.077 172.246 318.077 172.242 318.077 172.238C318.077 172.234 318.077 172.23 318.077 172.226C318.077 172.222 318.077 172.218 318.077 172.214C318.077 172.21 318.077 172.206 318.077 172.202C318.077 172.198 318.077 172.194 318.077 172.19C318.077 172.186 318.077 172.182 318.077 172.178C318.077 172.174 318.077 172.17 318.077 172.166C318.077 172.162 318.077 172.158 318.077 172.154C318.077 172.15 318.077 172.146 318.077 172.142C318.077 172.138 318.077 172.134 318.077 172.13C318.077 172.126 318.077 172.122 318.077 172.118C318.077 172.114 318.077 172.11 318.077 172.106C318.077 172.102 318.077 172.098 318.077 172.094C318.077 172.09 318.077 172.086 318.077 172.082C318.077 172.078 318.077 172.074 318.077 172.07C318.077 172.066 318.077 172.062 318.077 172.058C318.077 172.054 318.077 172.05 318.077 172.046C318.077 172.042 318.077 172.038 318.077 172.034C318.077 172.03 318.077 172.026 318.077 172.022C318.077 172.018 318.077 172.014 318.077 172.01C318.077 172.006 318.077 172.002 318.077 171.998C318.077 171.994 318.077 171.99 318.077 171.986C318.077 171.982 318.077 171.977 318.077 171.973C318.077 171.969 318.077 171.965 318.077 171.961C318.077 171.957 318.077 171.953 318.077 171.949C318.077 171.945 318.077 171.941 318.077 171.937C318.077 171.933 318.077 171.929 318.077 171.925C318.077 171.921 318.077 171.917 318.077 171.913C318.077 171.909 318.077 171.905 318.077 171.901C318.077 171.897 318.077 171.893 318.077 171.889C318.077 171.885 318.077 171.881 318.077 171.877C318.077 171.873 318.077 171.869 318.077 171.865C318.077 171.861 318.077 171.857 318.077 171.853C318.077 171.849 318.077 171.845 318.077 171.841C318.077 171.836 318.077 171.832 318.077 171.828C318.077 171.824 318.077 171.82 318.077 171.816C318.077 171.812 318.077 171.808 318.077 171.804C318.077 171.8 318.077 171.796 318.077 171.792C318.077 171.788 318.077 171.784 318.077 171.78C318.077 171.776 318.077 171.772 318.077 171.768C318.077 171.764 318.077 171.76 318.077 171.756C318.077 171.752 318.077 171.748 318.077 171.744C318.077 171.74 318.077 171.736 318.077 171.731C318.077 171.727 318.077 171.723 318.077 171.719C318.077 171.715 318.077 171.711 318.077 171.707C318.077 171.703 318.077 171.699 318.077 171.695C318.077 171.691 318.077 171.687 318.077 171.683C318.077 171.679 318.077 171.675 318.077 171.671C318.077 171.667 318.077 171.663 318.077 171.659C318.077 171.655 318.077 171.651 318.077 171.647C318.077 171.642 318.077 171.638 318.077 171.634C318.077 171.63 318.077 171.626 318.077 171.622C318.077 171.618 318.077 171.614 318.077 171.61C318.077 171.606 318.077 171.602 318.077 171.598C318.077 171.594 318.077 171.59 318.077 171.586C318.077 171.582 318.077 171.578 318.077 171.574C318.077 171.57 318.077 171.566 318.077 171.561C318.077 171.557 318.077 171.553 318.077 171.549C318.077 171.545 318.077 171.541 318.077 171.537C318.077 171.533 318.077 171.529 318.077 171.525C318.077 171.521 318.077 171.517 318.077 171.513C318.077 171.509 318.077 171.505 318.077 171.501C318.077 171.497 318.077 171.492 318.077 171.488C318.077 171.484 318.077 171.48 318.077 171.476C318.077 171.472 318.077 171.468 318.077 171.464C318.077 171.46 318.077 171.456 318.077 171.452C318.077 171.448 318.077 171.444 318.077 171.44C318.077 171.436 318.077 171.432 318.077 171.427C318.077 171.423 318.077 171.419 318.077 171.415C318.077 171.411 318.077 171.407 318.077 171.403C318.077 171.399 318.077 171.395 318.077 171.391C318.077 171.387 318.077 171.383 318.077 171.379C318.077 171.375 318.077 171.371 318.077 171.366C318.077 171.362 318.077 171.358 318.077 171.354C318.077 171.35 318.077 171.346 318.077 171.342C318.077 171.338 318.077 171.334 318.077 171.33C318.077 171.326 318.077 171.322 318.077 171.318C318.077 171.314 318.077 171.309 318.077 171.305C318.077 171.301 318.077 171.297 318.077 171.293C318.077 171.289 318.077 171.285 318.077 171.281C318.077 171.277 318.077 171.273 318.077 171.269C318.077 171.265 318.077 171.261 318.077 171.256C318.077 171.252 318.077 171.248 318.077 171.244C318.077 171.24 318.077 171.236 318.077 171.232C318.077 171.228 318.077 171.224 318.077 171.22C318.077 171.216 318.077 171.212 318.077 171.208C318.077 171.203 318.077 171.199 318.077 171.195C318.077 171.191 318.077 171.187 318.077 171.183C318.077 171.179 318.077 171.175 318.077 171.171C318.077 171.167 318.077 171.163 318.077 171.159C318.077 171.154 318.077 171.15 318.077 171.146C318.077 171.142 318.077 171.138 318.077 171.134C318.077 171.13 318.077 171.126 318.077 171.122C318.077 171.118 318.077 171.114 318.077 171.109C318.077 171.105 318.077 171.101 318.077 171.097C318.077 171.093 318.077 171.089 318.077 171.085C318.077 171.081 318.077 171.077 318.077 171.073C318.077 171.069 318.077 171.064 318.077 171.06C318.077 171.056 318.077 171.052 318.077 171.048C318.077 171.044 318.077 171.04 318.077 171.036C318.077 171.032 318.077 171.028 318.077 171.024C318.077 171.019 318.077 171.015 318.077 171.011C318.077 171.007 318.077 171.003 318.077 170.999C318.077 170.995 318.077 170.991 318.077 170.987C318.077 170.983 318.077 170.978 318.077 170.974C318.077 170.97 318.077 170.966 318.077 170.962C318.077 170.958 318.077 170.954 318.077 170.95C318.077 170.946 318.077 170.942 318.077 170.937C318.077 170.933 318.077 170.929 318.077 170.925C318.077 170.921 318.077 170.917 318.077 170.913C318.077 170.909 318.077 170.905 318.077 170.901C318.077 170.896 318.077 170.892 318.077 170.888C318.077 170.884 318.077 170.88 318.077 170.876C318.077 170.872 318.077 170.868 318.077 170.864C318.077 170.86 318.077 170.855 318.077 170.851C318.077 170.847 318.077 170.843 318.077 170.839C318.077 170.835 318.077 170.831 318.077 170.827C318.077 170.823 318.077 170.818 318.077 170.814C318.077 170.81 318.077 170.806 318.077 170.802C318.077 170.798 318.077 170.794 318.077 170.79C318.077 170.786 318.077 170.781 318.077 170.777C318.077 170.773 318.077 170.769 318.077 170.765C318.077 170.761 318.077 170.757 318.077 170.753C318.077 170.749 318.077 170.744 318.077 170.74C318.077 170.736 318.077 170.732 318.077 170.728C318.077 170.724 318.077 170.72 318.077 170.716C318.077 170.711 318.077 170.707 318.077 170.703C318.077 170.699 318.077 170.695 318.077 170.691C318.077 170.687 318.077 170.683 318.077 170.678C318.077 170.674 318.077 170.67 318.077 170.666C318.077 170.662 318.077 170.658 318.077 170.654C318.077 170.65 318.077 170.646 318.077 170.641C318.077 170.637 318.077 170.633 318.077 170.629C318.077 170.625 318.077 170.621 318.077 170.617C318.077 170.613 318.077 170.608 318.077 170.604C318.077 170.6 318.077 170.596 318.077 170.592C318.077 170.588 318.077 170.584 318.077 170.58C318.077 170.575 318.077 170.571 318.077 170.567C318.077 170.563 318.077 170.559 318.077 170.555C318.077 170.551 318.077 170.546 318.077 170.542C318.077 170.538 318.077 170.534 318.077 170.53C318.077 170.526 318.077 170.522 318.077 170.518C318.077 170.513 318.077 170.509 318.077 170.505C318.077 170.501 318.077 170.497 318.077 170.493C318.077 170.489 318.077 170.484 318.077 170.48C318.077 170.476 318.077 170.472 318.077 170.468C318.077 170.464 318.077 170.46 318.077 170.456C318.077 170.451 318.077 170.447 318.077 170.443C318.077 170.439 318.077 170.435 318.077 170.431C318.077 170.427 318.077 170.422 318.077 170.418C318.077 170.414 318.077 170.41 318.077 170.406C318.077 170.402 318.077 170.398 318.077 170.393C318.077 170.389 318.077 170.385 318.077 170.381C318.077 170.377 318.077 170.373 318.077 170.369C318.077 170.364 318.077 170.36 318.077 170.356C318.077 170.352 318.077 170.348 318.077 170.344C318.077 170.34 318.077 170.335 318.077 170.331C318.077 170.327 318.077 170.323 318.077 170.319C318.077 170.315 318.077 170.311 318.077 170.306C318.077 170.302 318.077 170.298 318.077 170.294C318.077 170.29 318.077 170.286 318.077 170.281C318.077 170.277 318.077 170.273 318.077 170.269C318.077 170.265 318.077 170.261 318.077 170.257C318.077 170.252 318.077 170.248 318.077 170.244C318.077 170.24 318.077 170.236 318.077 170.232C318.077 170.228 318.077 170.223 318.077 170.219C318.077 170.215 318.077 170.211 318.077 170.207C318.077 170.203 318.077 170.198 318.077 170.194C318.077 170.19 318.077 170.186 318.077 170.182C318.077 170.178 318.077 170.173 318.077 170.169C318.077 170.165 318.077 170.161 318.077 170.157C318.077 170.153 318.077 170.149 318.077 170.144C318.077 170.14 318.077 170.136 318.077 170.132C318.077 170.128 318.077 170.124 318.077 170.119C318.077 170.115 318.077 170.111 318.077 170.107C318.077 170.103 318.077 170.099 318.077 170.094C318.077 170.09 318.077 170.086 318.077 170.082C318.077 170.078 318.077 170.074 318.077 170.069C318.077 170.065 318.077 170.061 318.077 170.057C318.077 170.053 318.077 170.049 318.077 170.044C318.077 170.04 318.077 170.036 318.077 170.032C318.077 170.028 318.077 170.024 318.077 170.019C318.077 170.015 318.077 170.011 318.077 170.007C318.077 170.003 318.077 169.999 318.077 169.994C318.077 169.99 318.077 169.986 318.077 169.982C318.077 169.978 318.077 169.974 318.077 169.969C318.077 169.965 318.077 169.961 318.077 169.957C318.077 169.953 318.077 169.949 318.077 169.944C318.077 169.94 318.077 169.936 318.077 169.932C318.077 169.928 318.077 169.923 318.077 169.919C318.077 169.915 318.077 169.911 318.077 169.907C318.077 169.903 318.077 169.898 318.077 169.894C318.077 169.89 318.077 169.886 318.077 169.882C318.077 169.877 318.077 169.873 318.077 169.869C318.077 169.865 318.077 169.861 318.077 169.857C318.077 169.852 318.077 169.848 318.077 169.844C318.077 169.84 318.077 169.836 318.077 169.832C318.077 169.827 318.077 169.823 318.077 169.819C318.077 169.815 318.077 169.811 318.077 169.806C318.077 169.802 318.077 169.798 318.077 169.794C318.077 169.79 318.077 169.785 318.077 169.781C318.077 169.777 318.077 169.773 318.077 169.769C318.077 169.765 318.077 169.76 318.077 169.756C318.077 169.752 318.077 169.748 318.077 169.744C318.077 169.739 318.077 169.735 318.077 169.731C318.077 169.727 318.077 169.723 318.077 169.718C318.077 169.714 318.077 169.71 318.077 169.706C318.077 169.702 318.077 169.697 318.077 169.693C318.077 169.689 318.077 169.685 318.077 169.681C318.077 169.677 318.077 169.672 318.077 169.668C318.077 169.664 318.077 169.66 318.077 169.656C318.077 169.651 318.077 169.647 318.077 169.643C318.077 169.639 318.077 169.635 318.077 169.63C318.077 169.626 318.077 169.622 318.077 169.618C318.077 169.614 318.077 169.609 318.077 169.605C318.077 169.601 318.077 169.597 318.077 169.593C318.077 169.588 318.077 169.584 318.077 169.58C318.077 169.576 318.077 169.572 318.077 169.567C318.077 169.563 318.077 169.559 318.077 169.555C318.077 169.551 318.077 169.546 318.077 169.542C318.077 169.538 318.077 169.534 318.077 169.53C318.077 169.525 318.077 169.521 318.077 169.517C318.077 169.513 318.077 169.509 318.077 169.504C318.077 169.5 318.077 169.496 318.077 169.492C318.077 169.487 318.077 169.483 318.077 169.479C318.077 169.475 318.077 169.471 318.077 169.466C318.077 169.462 318.077 169.458 318.077 169.454C318.077 169.45 318.077 169.445 318.077 169.441C318.077 169.437 318.077 169.433 318.077 169.429C318.077 169.424 318.077 169.42 318.077 169.416C318.077 169.412 318.077 169.407 318.077 169.403C318.077 169.399 318.077 169.395 318.077 169.391C318.077 169.386 318.077 169.382 318.077 169.378C318.077 169.374 318.077 169.37 318.077 169.365C318.077 169.361 318.077 169.357 318.077 169.353C318.077 169.348 318.077 169.344 318.077 169.34H310.077ZM310.077 175.46C310.077 187.07 312.149 196.426 317.032 202.746L323.362 197.854C320.086 193.614 318.077 186.41 318.077 175.46H310.077ZM317.101 202.833C322.436 209.354 330.629 212.22 340.717 212.22V204.22C332.085 204.22 326.598 201.806 323.293 197.767L317.101 202.833Z" fill="url(#paint0_linear_1021_101)" mask="url(#path-1-outside-1_1021_101)"/>
<defs>
<linearGradient id="paint0_linear_1021_101" x1="-11" y1="132.5" x2="470" y2="132.5" gradientUnits="userSpaceOnUse">
<stop stop-color="#6A11CB"/>
<stop offset="1" stop-color="#2575FC"/>
</linearGradient>
</defs>
</svg>
