<svg width="44" height="44" viewBox="0 0 44 44" fill="none" xmlns="http://www.w3.org/2000/svg">
<path d="M22 3.66699C20.187 3.66699 18.4147 4.20461 16.9073 5.21185C15.3998 6.2191 14.2249 7.65074 13.5311 9.32573C12.8373 11.0007 12.6558 12.8438 13.0095 14.622C13.3632 16.4001 14.2362 18.0335 15.5182 19.3155C16.8002 20.5975 18.4335 21.4705 20.2117 21.8242C21.9898 22.1779 23.8329 21.9964 25.5079 21.3026C27.1829 20.6088 28.6146 19.4338 29.6218 17.9264C30.6291 16.4189 31.1667 14.6467 31.1667 12.8337C31.1667 10.4025 30.2009 8.07093 28.4818 6.35185C26.7627 4.63276 24.4312 3.66699 22 3.66699ZM22 18.3337C20.9122 18.3337 19.8488 18.0111 18.9444 17.4067C18.0399 16.8024 17.3349 15.9434 16.9187 14.9384C16.5024 13.9334 16.3935 12.8276 16.6057 11.7607C16.8179 10.6938 17.3417 9.71376 18.1109 8.94457C18.8801 8.17538 19.8601 7.65156 20.927 7.43934C21.9939 7.22712 23.0998 7.33604 24.1048 7.75232C25.1098 8.1686 25.9687 8.87355 26.5731 9.77802C27.1774 10.6825 27.5 11.7459 27.5 12.8337C27.5 14.2923 26.9205 15.6913 25.8891 16.7227C24.8576 17.7542 23.4587 18.3337 22 18.3337ZM38.5 38.5003V36.667C38.5 33.2634 37.1479 29.9992 34.7412 27.5925C32.3345 25.1857 29.0703 23.8337 25.6667 23.8337H18.3333C14.9297 23.8337 11.6655 25.1857 9.2588 27.5925C6.85208 29.9992 5.5 33.2634 5.5 36.667V38.5003H9.16667V36.667C9.16667 34.2358 10.1324 31.9043 11.8515 30.1852C13.5706 28.4661 15.9022 27.5003 18.3333 27.5003H25.6667C28.0978 27.5003 30.4294 28.4661 32.1485 30.1852C33.8676 31.9043 34.8333 34.2358 34.8333 36.667V38.5003H38.5Z" fill="#BABABA"/>
</svg>
