<svg width="221" height="257" viewBox="0 0 221 257" fill="none" xmlns="http://www.w3.org/2000/svg">
<mask id="path-1-outside-1_1021_97" maskUnits="userSpaceOnUse" x="-4" y="-3.5" width="229" height="265" fill="black">
<rect fill="white" x="-4" y="-3.5" width="229" height="265"/>
<path d="M89.68 256.82C72.16 256.82 56.68 254.3 43.24 249.26C29.8 244.22 19.24 236.66 11.56 226.58C4.12 216.5 0.400001 204.14 0.400001 189.5C0.400001 186.86 0.520001 184.22 0.76 181.58C1 178.94 1.36 176.18 1.84 173.3H65.92C65.68 174.98 65.44 176.54 65.2 177.98C65.2 179.42 65.2 180.74 65.2 181.94C65.2 190.82 67.72 197.42 72.76 201.74C77.8 206.06 84.76 208.22 93.64 208.22C103.48 208.22 111.28 206.06 117.04 201.74C123.04 197.18 127.84 190.22 131.44 180.86C135.04 171.5 138.16 159.26 140.8 144.14C136.24 147.98 131.08 151.34 125.32 154.22C119.56 156.86 113.44 159.02 106.96 160.7C100.72 162.14 94.24 162.86 87.52 162.86C72.88 162.86 59.68 160.34 47.92 155.3C36.16 150.26 26.8 142.94 19.84 133.34C13.12 123.74 9.76 112.1 9.76 98.42C9.76 83.3 12.64 69.74 18.4 57.74C24.16 45.5 32.2 35.18 42.52 26.78C53.08 18.14 65.56 11.66 79.96 7.33998C94.6 2.77998 110.56 0.499983 127.84 0.499983C148 0.499983 164.92 3.73998 178.6 10.22C192.52 16.7 202.96 26.54 209.92 39.74C217.12 52.7 220.72 69.02 220.72 88.7C220.72 94.22 220.36 100.1 219.64 106.34C219.16 112.58 218.32 119.06 217.12 125.78C211.6 157.7 203.44 183.26 192.64 202.46C181.84 221.66 167.92 235.58 150.88 244.22C134.08 252.62 113.68 256.82 89.68 256.82ZM109.84 119.66C115.84 119.66 121.24 118.7 126.04 116.78C131.08 114.86 135.4 112.34 139 109.22C143.32 105.14 146.56 100.34 148.72 94.82C151.12 89.06 152.32 82.58 152.32 75.38C152.32 69.62 151.24 64.82 149.08 60.98C146.92 57.14 143.56 54.26 139 52.34C134.68 50.18 129.28 49.1 122.8 49.1C117.28 49.1 112.24 49.82 107.68 51.26C103.12 52.7 99.16 54.74 95.8 57.38C90.76 61.22 86.92 66.14 84.28 72.14C81.64 78.14 80.32 84.98 80.32 92.66C80.32 98.42 81.4 103.34 83.56 107.42C85.96 111.26 89.32 114.26 93.64 116.42C97.96 118.58 103.36 119.66 109.84 119.66Z"/>
</mask>
<path d="M43.24 249.26L44.6445 245.515L44.6445 245.515L43.24 249.26ZM11.56 226.58L8.3417 228.955L8.3598 228.98L8.37827 229.004L11.56 226.58ZM0.76 181.58L-3.22357 181.218L-3.22357 181.218L0.76 181.58ZM1.84 173.3V169.3H-1.54851L-2.10557 172.642L1.84 173.3ZM65.92 173.3L69.8798 173.866L70.532 169.3H65.92V173.3ZM65.2 177.98L61.2544 177.322L61.2 177.649V177.98H65.2ZM72.76 201.74L70.1568 204.777L70.1568 204.777L72.76 201.74ZM117.04 201.74L119.44 204.94L119.45 204.932L119.46 204.925L117.04 201.74ZM131.44 180.86L127.707 179.424L127.707 179.424L131.44 180.86ZM140.8 144.14L144.74 144.828L146.631 134L138.223 141.08L140.8 144.14ZM125.32 154.22L126.987 157.856L127.048 157.828L127.109 157.798L125.32 154.22ZM106.96 160.7L107.859 164.598L107.912 164.585L107.964 164.572L106.96 160.7ZM47.92 155.3L46.3443 158.977L46.3443 158.977L47.92 155.3ZM19.84 133.34L16.5631 135.634L16.5821 135.661L16.6016 135.688L19.84 133.34ZM18.4 57.74L22.0061 59.4709L22.0127 59.4571L22.0193 59.4432L18.4 57.74ZM42.52 26.78L45.0451 29.8822L45.053 29.8758L42.52 26.78ZM79.96 7.33998L81.1094 11.1713L81.1295 11.1653L81.1495 11.159L79.96 7.33998ZM178.6 10.22L176.888 13.8349L176.9 13.8407L176.912 13.8463L178.6 10.22ZM209.92 39.74L206.382 41.6056L206.402 41.6443L206.423 41.6826L209.92 39.74ZM219.64 106.34L215.666 105.882L215.658 105.957L215.652 106.033L219.64 106.34ZM217.12 125.78L213.182 125.077L213.18 125.088L213.179 125.098L217.12 125.78ZM192.64 202.46L189.154 200.499L189.154 200.499L192.64 202.46ZM150.88 244.22L152.669 247.798L152.679 247.793L152.689 247.788L150.88 244.22ZM126.04 116.78L124.616 113.042L124.585 113.054L124.554 113.066L126.04 116.78ZM139 109.22L141.62 112.243L141.684 112.187L141.746 112.128L139 109.22ZM148.72 94.82L145.028 93.2815L145.011 93.3218L144.995 93.3624L148.72 94.82ZM149.08 60.98L145.594 62.941L145.594 62.941L149.08 60.98ZM139 52.34L137.211 55.9177L137.328 55.976L137.448 56.0265L139 52.34ZM107.68 51.26L108.885 55.0743L108.885 55.0743L107.68 51.26ZM95.8 57.38L98.2242 60.5617L98.2479 60.5437L98.2713 60.5253L95.8 57.38ZM84.28 72.14L80.6187 70.529L80.6187 70.529L84.28 72.14ZM83.56 107.42L80.0249 109.292L80.092 109.418L80.168 109.54L83.56 107.42ZM93.64 116.42L95.4289 112.842L95.4289 112.842L93.64 116.42ZM89.68 252.82C72.5372 252.82 57.5485 250.354 44.6445 245.515L41.8355 253.005C55.8115 258.246 71.7828 260.82 89.68 260.82V252.82ZM44.6445 245.515C31.8134 240.703 21.9071 233.56 14.7417 224.156L8.37827 229.004C16.573 239.76 27.7866 247.737 41.8355 253.005L44.6445 245.515ZM14.7783 224.205C7.92798 214.924 4.4 203.434 4.4 189.5H-3.6C-3.6 204.846 0.312019 218.076 8.3417 228.955L14.7783 224.205ZM4.4 189.5C4.4 186.981 4.51447 184.462 4.74357 181.942L-3.22357 181.218C-3.47447 183.978 -3.6 186.739 -3.6 189.5H4.4ZM4.74357 181.942C4.97373 179.41 5.32029 176.749 5.78558 173.958L-2.10557 172.642C-2.60029 175.611 -2.97373 178.47 -3.22357 181.218L4.74357 181.942ZM1.84 177.3H65.92V169.3H1.84V177.3ZM61.9602 172.734C61.7239 174.388 61.4886 175.917 61.2544 177.322L69.1456 178.638C69.3914 177.163 69.6361 175.572 69.8798 173.866L61.9602 172.734ZM61.2 177.98C61.2 177.983 61.2 177.986 61.2 177.988C61.2 177.991 61.2 177.994 61.2 177.997C61.2 178 61.2 178.002 61.2 178.005C61.2 178.008 61.2 178.011 61.2 178.014C61.2 178.017 61.2 178.019 61.2 178.022C61.2 178.025 61.2 178.028 61.2 178.031C61.2 178.033 61.2 178.036 61.2 178.039C61.2 178.042 61.2 178.045 61.2 178.047C61.2 178.05 61.2 178.053 61.2 178.056C61.2 178.059 61.2 178.061 61.2 178.064C61.2 178.067 61.2 178.07 61.2 178.073C61.2 178.075 61.2 178.078 61.2 178.081C61.2 178.084 61.2 178.087 61.2 178.089C61.2 178.092 61.2 178.095 61.2 178.098C61.2 178.101 61.2 178.103 61.2 178.106C61.2 178.109 61.2 178.112 61.2 178.115C61.2 178.117 61.2 178.12 61.2 178.123C61.2 178.126 61.2 178.129 61.2 178.131C61.2 178.134 61.2 178.137 61.2 178.14C61.2 178.143 61.2 178.145 61.2 178.148C61.2 178.151 61.2 178.154 61.2 178.157C61.2 178.159 61.2 178.162 61.2 178.165C61.2 178.168 61.2 178.171 61.2 178.173C61.2 178.176 61.2 178.179 61.2 178.182C61.2 178.184 61.2 178.187 61.2 178.19C61.2 178.193 61.2 178.196 61.2 178.198C61.2 178.201 61.2 178.204 61.2 178.207C61.2 178.21 61.2 178.212 61.2 178.215C61.2 178.218 61.2 178.221 61.2 178.224C61.2 178.226 61.2 178.229 61.2 178.232C61.2 178.235 61.2 178.237 61.2 178.24C61.2 178.243 61.2 178.246 61.2 178.249C61.2 178.251 61.2 178.254 61.2 178.257C61.2 178.26 61.2 178.263 61.2 178.265C61.2 178.268 61.2 178.271 61.2 178.274C61.2 178.276 61.2 178.279 61.2 178.282C61.2 178.285 61.2 178.288 61.2 178.29C61.2 178.293 61.2 178.296 61.2 178.299C61.2 178.301 61.2 178.304 61.2 178.307C61.2 178.31 61.2 178.313 61.2 178.315C61.2 178.318 61.2 178.321 61.2 178.324C61.2 178.326 61.2 178.329 61.2 178.332C61.2 178.335 61.2 178.337 61.2 178.34C61.2 178.343 61.2 178.346 61.2 178.349C61.2 178.351 61.2 178.354 61.2 178.357C61.2 178.36 61.2 178.362 61.2 178.365C61.2 178.368 61.2 178.371 61.2 178.374C61.2 178.376 61.2 178.379 61.2 178.382C61.2 178.385 61.2 178.387 61.2 178.39C61.2 178.393 61.2 178.396 61.2 178.398C61.2 178.401 61.2 178.404 61.2 178.407C61.2 178.41 61.2 178.412 61.2 178.415C61.2 178.418 61.2 178.421 61.2 178.423C61.2 178.426 61.2 178.429 61.2 178.432C61.2 178.434 61.2 178.437 61.2 178.44C61.2 178.443 61.2 178.445 61.2 178.448C61.2 178.451 61.2 178.454 61.2 178.456C61.2 178.459 61.2 178.462 61.2 178.465C61.2 178.468 61.2 178.47 61.2 178.473C61.2 178.476 61.2 178.479 61.2 178.481C61.2 178.484 61.2 178.487 61.2 178.49C61.2 178.492 61.2 178.495 61.2 178.498C61.2 178.501 61.2 178.503 61.2 178.506C61.2 178.509 61.2 178.512 61.2 178.514C61.2 178.517 61.2 178.52 61.2 178.523C61.2 178.525 61.2 178.528 61.2 178.531C61.2 178.534 61.2 178.536 61.2 178.539C61.2 178.542 61.2 178.545 61.2 178.547C61.2 178.55 61.2 178.553 61.2 178.556C61.2 178.558 61.2 178.561 61.2 178.564C61.2 178.567 61.2 178.569 61.2 178.572C61.2 178.575 61.2 178.578 61.2 178.58C61.2 178.583 61.2 178.586 61.2 178.589C61.2 178.591 61.2 178.594 61.2 178.597C61.2 178.6 61.2 178.602 61.2 178.605C61.2 178.608 61.2 178.611 61.2 178.613C61.2 178.616 61.2 178.619 61.2 178.622C61.2 178.624 61.2 178.627 61.2 178.63C61.2 178.633 61.2 178.635 61.2 178.638C61.2 178.641 61.2 178.643 61.2 178.646C61.2 178.649 61.2 178.652 61.2 178.654C61.2 178.657 61.2 178.66 61.2 178.663C61.2 178.665 61.2 178.668 61.2 178.671C61.2 178.674 61.2 178.676 61.2 178.679C61.2 178.682 61.2 178.685 61.2 178.687C61.2 178.69 61.2 178.693 61.2 178.695C61.2 178.698 61.2 178.701 61.2 178.704C61.2 178.706 61.2 178.709 61.2 178.712C61.2 178.715 61.2 178.717 61.2 178.72C61.2 178.723 61.2 178.726 61.2 178.728C61.2 178.731 61.2 178.734 61.2 178.736C61.2 178.739 61.2 178.742 61.2 178.745C61.2 178.747 61.2 178.75 61.2 178.753C61.2 178.756 61.2 178.758 61.2 178.761C61.2 178.764 61.2 178.766 61.2 178.769C61.2 178.772 61.2 178.775 61.2 178.777C61.2 178.78 61.2 178.783 61.2 178.786C61.2 178.788 61.2 178.791 61.2 178.794C61.2 178.796 61.2 178.799 61.2 178.802C61.2 178.805 61.2 178.807 61.2 178.81C61.2 178.813 61.2 178.815 61.2 178.818C61.2 178.821 61.2 178.824 61.2 178.826C61.2 178.829 61.2 178.832 61.2 178.834C61.2 178.837 61.2 178.84 61.2 178.843C61.2 178.845 61.2 178.848 61.2 178.851C61.2 178.854 61.2 178.856 61.2 178.859C61.2 178.862 61.2 178.864 61.2 178.867C61.2 178.87 61.2 178.873 61.2 178.875C61.2 178.878 61.2 178.881 61.2 178.883C61.2 178.886 61.2 178.889 61.2 178.892C61.2 178.894 61.2 178.897 61.2 178.9C61.2 178.902 61.2 178.905 61.2 178.908C61.2 178.91 61.2 178.913 61.2 178.916C61.2 178.919 61.2 178.921 61.2 178.924C61.2 178.927 61.2 178.929 61.2 178.932C61.2 178.935 61.2 178.938 61.2 178.94C61.2 178.943 61.2 178.946 61.2 178.948C61.2 178.951 61.2 178.954 61.2 178.956C61.2 178.959 61.2 178.962 61.2 178.965C61.2 178.967 61.2 178.97 61.2 178.973C61.2 178.975 61.2 178.978 61.2 178.981C61.2 178.984 61.2 178.986 61.2 178.989C61.2 178.992 61.2 178.994 61.2 178.997C61.2 179 61.2 179.002 61.2 179.005C61.2 179.008 61.2 179.011 61.2 179.013C61.2 179.016 61.2 179.019 61.2 179.021C61.2 179.024 61.2 179.027 61.2 179.029C61.2 179.032 61.2 179.035 61.2 179.037C61.2 179.04 61.2 179.043 61.2 179.046C61.2 179.048 61.2 179.051 61.2 179.054C61.2 179.056 61.2 179.059 61.2 179.062C61.2 179.064 61.2 179.067 61.2 179.07C61.2 179.073 61.2 179.075 61.2 179.078C61.2 179.081 61.2 179.083 61.2 179.086C61.2 179.089 61.2 179.091 61.2 179.094C61.2 179.097 61.2 179.099 61.2 179.102C61.2 179.105 61.2 179.107 61.2 179.11C61.2 179.113 61.2 179.116 61.2 179.118C61.2 179.121 61.2 179.124 61.2 179.126C61.2 179.129 61.2 179.132 61.2 179.134C61.2 179.137 61.2 179.14 61.2 179.142C61.2 179.145 61.2 179.148 61.2 179.15C61.2 179.153 61.2 179.156 61.2 179.158C61.2 179.161 61.2 179.164 61.2 179.167C61.2 179.169 61.2 179.172 61.2 179.175C61.2 179.177 61.2 179.18 61.2 179.183C61.2 179.185 61.2 179.188 61.2 179.191C61.2 179.193 61.2 179.196 61.2 179.199C61.2 179.201 61.2 179.204 61.2 179.207C61.2 179.209 61.2 179.212 61.2 179.215C61.2 179.217 61.2 179.22 61.2 179.223C61.2 179.225 61.2 179.228 61.2 179.231C61.2 179.233 61.2 179.236 61.2 179.239C61.2 179.241 61.2 179.244 61.2 179.247C61.2 179.249 61.2 179.252 61.2 179.255C61.2 179.257 61.2 179.26 61.2 179.263C61.2 179.265 61.2 179.268 61.2 179.271C61.2 179.274 61.2 179.276 61.2 179.279C61.2 179.282 61.2 179.284 61.2 179.287C61.2 179.29 61.2 179.292 61.2 179.295C61.2 179.298 61.2 179.3 61.2 179.303C61.2 179.306 61.2 179.308 61.2 179.311C61.2 179.313 61.2 179.316 61.2 179.319C61.2 179.321 61.2 179.324 61.2 179.327C61.2 179.329 61.2 179.332 61.2 179.335C61.2 179.337 61.2 179.34 61.2 179.343C61.2 179.345 61.2 179.348 61.2 179.351C61.2 179.353 61.2 179.356 61.2 179.359C61.2 179.361 61.2 179.364 61.2 179.367C61.2 179.369 61.2 179.372 61.2 179.375C61.2 179.377 61.2 179.38 61.2 179.383C61.2 179.385 61.2 179.388 61.2 179.391C61.2 179.393 61.2 179.396 61.2 179.399C61.2 179.401 61.2 179.404 61.2 179.407C61.2 179.409 61.2 179.412 61.2 179.415C61.2 179.417 61.2 179.42 61.2 179.422C61.2 179.425 61.2 179.428 61.2 179.43C61.2 179.433 61.2 179.436 61.2 179.438C61.2 179.441 61.2 179.444 61.2 179.446C61.2 179.449 61.2 179.452 61.2 179.454C61.2 179.457 61.2 179.46 61.2 179.462C61.2 179.465 61.2 179.467 61.2 179.47C61.2 179.473 61.2 179.475 61.2 179.478C61.2 179.481 61.2 179.483 61.2 179.486C61.2 179.489 61.2 179.491 61.2 179.494C61.2 179.497 61.2 179.499 61.2 179.502C61.2 179.505 61.2 179.507 61.2 179.51C61.2 179.512 61.2 179.515 61.2 179.518C61.2 179.52 61.2 179.523 61.2 179.526C61.2 179.528 61.2 179.531 61.2 179.534C61.2 179.536 61.2 179.539 61.2 179.541C61.2 179.544 61.2 179.547 61.2 179.549C61.2 179.552 61.2 179.555 61.2 179.557C61.2 179.56 61.2 179.563 61.2 179.565C61.2 179.568 61.2 179.57 61.2 179.573C61.2 179.576 61.2 179.578 61.2 179.581C61.2 179.584 61.2 179.586 61.2 179.589C61.2 179.592 61.2 179.594 61.2 179.597C61.2 179.599 61.2 179.602 61.2 179.605C61.2 179.607 61.2 179.61 61.2 179.613C61.2 179.615 61.2 179.618 61.2 179.62C61.2 179.623 61.2 179.626 61.2 179.628C61.2 179.631 61.2 179.634 61.2 179.636C61.2 179.639 61.2 179.641 61.2 179.644C61.2 179.647 61.2 179.649 61.2 179.652C61.2 179.655 61.2 179.657 61.2 179.66C61.2 179.662 61.2 179.665 61.2 179.668C61.2 179.67 61.2 179.673 61.2 179.676C61.2 179.678 61.2 179.681 61.2 179.683C61.2 179.686 61.2 179.689 61.2 179.691C61.2 179.694 61.2 179.697 61.2 179.699C61.2 179.702 61.2 179.704 61.2 179.707C61.2 179.71 61.2 179.712 61.2 179.715C61.2 179.717 61.2 179.72 61.2 179.723C61.2 179.725 61.2 179.728 61.2 179.731C61.2 179.733 61.2 179.736 61.2 179.738C61.2 179.741 61.2 179.744 61.2 179.746C61.2 179.749 61.2 179.751 61.2 179.754C61.2 179.757 61.2 179.759 61.2 179.762C61.2 179.765 61.2 179.767 61.2 179.77C61.2 179.772 61.2 179.775 61.2 179.778C61.2 179.78 61.2 179.783 61.2 179.785C61.2 179.788 61.2 179.791 61.2 179.793C61.2 179.796 61.2 179.798 61.2 179.801C61.2 179.804 61.2 179.806 61.2 179.809C61.2 179.812 61.2 179.814 61.2 179.817C61.2 179.819 61.2 179.822 61.2 179.825C61.2 179.827 61.2 179.83 61.2 179.832C61.2 179.835 61.2 179.838 61.2 179.84C61.2 179.843 61.2 179.845 61.2 179.848C61.2 179.851 61.2 179.853 61.2 179.856C61.2 179.858 61.2 179.861 61.2 179.864C61.2 179.866 61.2 179.869 61.2 179.871C61.2 179.874 61.2 179.877 61.2 179.879C61.2 179.882 61.2 179.884 61.2 179.887C61.2 179.89 61.2 179.892 61.2 179.895C61.2 179.897 61.2 179.9 61.2 179.903C61.2 179.905 61.2 179.908 61.2 179.91C61.2 179.913 61.2 179.916 61.2 179.918C61.2 179.921 61.2 179.923 61.2 179.926C61.2 179.928 61.2 179.931 61.2 179.934C61.2 179.936 61.2 179.939 61.2 179.941C61.2 179.944 61.2 179.947 61.2 179.949C61.2 179.952 61.2 179.954 61.2 179.957C61.2 179.96 61.2 179.962 61.2 179.965C61.2 179.967 61.2 179.97 61.2 179.973C61.2 179.975 61.2 179.978 61.2 179.98C61.2 179.983 61.2 179.985 61.2 179.988C61.2 179.991 61.2 179.993 61.2 179.996C61.2 179.998 61.2 180.001 61.2 180.004C61.2 180.006 61.2 180.009 61.2 180.011C61.2 180.014 61.2 180.016 61.2 180.019C61.2 180.022 61.2 180.024 61.2 180.027C61.2 180.029 61.2 180.032 61.2 180.035C61.2 180.037 61.2 180.04 61.2 180.042C61.2 180.045 61.2 180.047 61.2 180.05C61.2 180.053 61.2 180.055 61.2 180.058C61.2 180.06 61.2 180.063 61.2 180.065C61.2 180.068 61.2 180.071 61.2 180.073C61.2 180.076 61.2 180.078 61.2 180.081C61.2 180.083 61.2 180.086 61.2 180.089C61.2 180.091 61.2 180.094 61.2 180.096C61.2 180.099 61.2 180.101 61.2 180.104C61.2 180.107 61.2 180.109 61.2 180.112C61.2 180.114 61.2 180.117 61.2 180.119C61.2 180.122 61.2 180.125 61.2 180.127C61.2 180.13 61.2 180.132 61.2 180.135C61.2 180.137 61.2 180.14 61.2 180.143C61.2 180.145 61.2 180.148 61.2 180.15C61.2 180.153 61.2 180.155 61.2 180.158C61.2 180.161 61.2 180.163 61.2 180.166C61.2 180.168 61.2 180.171 61.2 180.173C61.2 180.176 61.2 180.179 61.2 180.181C61.2 180.184 61.2 180.186 61.2 180.189C61.2 180.191 61.2 180.194 61.2 180.196C61.2 180.199 61.2 180.202 61.2 180.204C61.2 180.207 61.2 180.209 61.2 180.212C61.2 180.214 61.2 180.217 61.2 180.219C61.2 180.222 61.2 180.225 61.2 180.227C61.2 180.23 61.2 180.232 61.2 180.235C61.2 180.237 61.2 180.24 61.2 180.242C61.2 180.245 61.2 180.248 61.2 180.25C61.2 180.253 61.2 180.255 61.2 180.258C61.2 180.26 61.2 180.263 61.2 180.265C61.2 180.268 61.2 180.271 61.2 180.273C61.2 180.276 61.2 180.278 61.2 180.281C61.2 180.283 61.2 180.286 61.2 180.288C61.2 180.291 61.2 180.294 61.2 180.296C61.2 180.299 61.2 180.301 61.2 180.304C61.2 180.306 61.2 180.309 61.2 180.311C61.2 180.314 61.2 180.316 61.2 180.319C61.2 180.322 61.2 180.324 61.2 180.327C61.2 180.329 61.2 180.332 61.2 180.334C61.2 180.337 61.2 180.339 61.2 180.342C61.2 180.344 61.2 180.347 61.2 180.35C61.2 180.352 61.2 180.355 61.2 180.357C61.2 180.36 61.2 180.362 61.2 180.365C61.2 180.367 61.2 180.37 61.2 180.372C61.2 180.375 61.2 180.377 61.2 180.38C61.2 180.383 61.2 180.385 61.2 180.388C61.2 180.39 61.2 180.393 61.2 180.395C61.2 180.398 61.2 180.4 61.2 180.403C61.2 180.405 61.2 180.408 61.2 180.41C61.2 180.413 61.2 180.416 61.2 180.418C61.2 180.421 61.2 180.423 61.2 180.426C61.2 180.428 61.2 180.431 61.2 180.433C61.2 180.436 61.2 180.438 61.2 180.441C61.2 180.443 61.2 180.446 61.2 180.448C61.2 180.451 61.2 180.454 61.2 180.456C61.2 180.459 61.2 180.461 61.2 180.464C61.2 180.466 61.2 180.469 61.2 180.471C61.2 180.474 61.2 180.476 61.2 180.479C61.2 180.481 61.2 180.484 61.2 180.486C61.2 180.489 61.2 180.491 61.2 180.494C61.2 180.496 61.2 180.499 61.2 180.502C61.2 180.504 61.2 180.507 61.2 180.509C61.2 180.512 61.2 180.514 61.2 180.517C61.2 180.519 61.2 180.522 61.2 180.524C61.2 180.527 61.2 180.529 61.2 180.532C61.2 180.534 61.2 180.537 61.2 180.539C61.2 180.542 61.2 180.544 61.2 180.547C61.2 180.549 61.2 180.552 61.2 180.554C61.2 180.557 61.2 180.56 61.2 180.562C61.2 180.565 61.2 180.567 61.2 180.57C61.2 180.572 61.2 180.575 61.2 180.577C61.2 180.58 61.2 180.582 61.2 180.585C61.2 180.587 61.2 180.59 61.2 180.592C61.2 180.595 61.2 180.597 61.2 180.6C61.2 180.602 61.2 180.605 61.2 180.607C61.2 180.61 61.2 180.612 61.2 180.615C61.2 180.617 61.2 180.62 61.2 180.622C61.2 180.625 61.2 180.627 61.2 180.63C61.2 180.632 61.2 180.635 61.2 180.637C61.2 180.64 61.2 180.642 61.2 180.645C61.2 180.647 61.2 180.65 61.2 180.652C61.2 180.655 61.2 180.657 61.2 180.66C61.2 180.662 61.2 180.665 61.2 180.667C61.2 180.67 61.2 180.672 61.2 180.675C61.2 180.677 61.2 180.68 61.2 180.682C61.2 180.685 61.2 180.687 61.2 180.69C61.2 180.692 61.2 180.695 61.2 180.697C61.2 180.7 61.2 180.702 61.2 180.705C61.2 180.707 61.2 180.71 61.2 180.712C61.2 180.715 61.2 180.717 61.2 180.72C61.2 180.722 61.2 180.725 61.2 180.727C61.2 180.73 61.2 180.732 61.2 180.735C61.2 180.737 61.2 180.74 61.2 180.742C61.2 180.745 61.2 180.747 61.2 180.75C61.2 180.752 61.2 180.755 61.2 180.757C61.2 180.76 61.2 180.762 61.2 180.765C61.2 180.767 61.2 180.77 61.2 180.772C61.2 180.775 61.2 180.777 61.2 180.78C61.2 180.782 61.2 180.785 61.2 180.787C61.2 180.79 61.2 180.792 61.2 180.795C61.2 180.797 61.2 180.8 61.2 180.802C61.2 180.805 61.2 180.807 61.2 180.81C61.2 180.812 61.2 180.815 61.2 180.817C61.2 180.82 61.2 180.822 61.2 180.825C61.2 180.827 61.2 180.83 61.2 180.832C61.2 180.835 61.2 180.837 61.2 180.84C61.2 180.842 61.2 180.844 61.2 180.847C61.2 180.849 61.2 180.852 61.2 180.854C61.2 180.857 61.2 180.859 61.2 180.862C61.2 180.864 61.2 180.867 61.2 180.869C61.2 180.872 61.2 180.874 61.2 180.877C61.2 180.879 61.2 180.882 61.2 180.884C61.2 180.887 61.2 180.889 61.2 180.892C61.2 180.894 61.2 180.897 61.2 180.899C61.2 180.901 61.2 180.904 61.2 180.906C61.2 180.909 61.2 180.911 61.2 180.914C61.2 180.916 61.2 180.919 61.2 180.921C61.2 180.924 61.2 180.926 61.2 180.929C61.2 180.931 61.2 180.934 61.2 180.936C61.2 180.939 61.2 180.941 61.2 180.944C61.2 180.946 61.2 180.948 61.2 180.951C61.2 180.953 61.2 180.956 61.2 180.958C61.2 180.961 61.2 180.963 61.2 180.966C61.2 180.968 61.2 180.971 61.2 180.973C61.2 180.976 61.2 180.978 61.2 180.981C61.2 180.983 61.2 180.985 61.2 180.988C61.2 180.99 61.2 180.993 61.2 180.995C61.2 180.998 61.2 181 61.2 181.003C61.2 181.005 61.2 181.008 61.2 181.01C61.2 181.013 61.2 181.015 61.2 181.017C61.2 181.02 61.2 181.022 61.2 181.025C61.2 181.027 61.2 181.03 61.2 181.032C61.2 181.035 61.2 181.037 61.2 181.04C61.2 181.042 61.2 181.045 61.2 181.047C61.2 181.049 61.2 181.052 61.2 181.054C61.2 181.057 61.2 181.059 61.2 181.062C61.2 181.064 61.2 181.067 61.2 181.069C61.2 181.072 61.2 181.074 61.2 181.076C61.2 181.079 61.2 181.081 61.2 181.084C61.2 181.086 61.2 181.089 61.2 181.091C61.2 181.094 61.2 181.096 61.2 181.099C61.2 181.101 61.2 181.103 61.2 181.106C61.2 181.108 61.2 181.111 61.2 181.113C61.2 181.116 61.2 181.118 61.2 181.121C61.2 181.123 61.2 181.125 61.2 181.128C61.2 181.13 61.2 181.133 61.2 181.135C61.2 181.138 61.2 181.14 61.2 181.143C61.2 181.145 61.2 181.147 61.2 181.15C61.2 181.152 61.2 181.155 61.2 181.157C61.2 181.16 61.2 181.162 61.2 181.165C61.2 181.167 61.2 181.169 61.2 181.172C61.2 181.174 61.2 181.177 61.2 181.179C61.2 181.182 61.2 181.184 61.2 181.187C61.2 181.189 61.2 181.191 61.2 181.194C61.2 181.196 61.2 181.199 61.2 181.201C61.2 181.204 61.2 181.206 61.2 181.209C61.2 181.211 61.2 181.213 61.2 181.216C61.2 181.218 61.2 181.221 61.2 181.223C61.2 181.226 61.2 181.228 61.2 181.23C61.2 181.233 61.2 181.235 61.2 181.238C61.2 181.24 61.2 181.243 61.2 181.245C61.2 181.247 61.2 181.25 61.2 181.252C61.2 181.255 61.2 181.257 61.2 181.26C61.2 181.262 61.2 181.264 61.2 181.267C61.2 181.269 61.2 181.272 61.2 181.274C61.2 181.277 61.2 181.279 61.2 181.281C61.2 181.284 61.2 181.286 61.2 181.289C61.2 181.291 61.2 181.294 61.2 181.296C61.2 181.298 61.2 181.301 61.2 181.303C61.2 181.306 61.2 181.308 61.2 181.311C61.2 181.313 61.2 181.315 61.2 181.318C61.2 181.32 61.2 181.323 61.2 181.325C61.2 181.328 61.2 181.33 61.2 181.332C61.2 181.335 61.2 181.337 61.2 181.34C61.2 181.342 61.2 181.345 61.2 181.347C61.2 181.349 61.2 181.352 61.2 181.354C61.2 181.357 61.2 181.359 61.2 181.361C61.2 181.364 61.2 181.366 61.2 181.369C61.2 181.371 61.2 181.374 61.2 181.376C61.2 181.378 61.2 181.381 61.2 181.383C61.2 181.386 61.2 181.388 61.2 181.39C61.2 181.393 61.2 181.395 61.2 181.398C61.2 181.4 61.2 181.403 61.2 181.405C61.2 181.407 61.2 181.41 61.2 181.412C61.2 181.415 61.2 181.417 61.2 181.419C61.2 181.422 61.2 181.424 61.2 181.427C61.2 181.429 61.2 181.431 61.2 181.434C61.2 181.436 61.2 181.439 61.2 181.441C61.2 181.443 61.2 181.446 61.2 181.448C61.2 181.451 61.2 181.453 61.2 181.456C61.2 181.458 61.2 181.46 61.2 181.463C61.2 181.465 61.2 181.468 61.2 181.47C61.2 181.472 61.2 181.475 61.2 181.477C61.2 181.48 61.2 181.482 61.2 181.484C61.2 181.487 61.2 181.489 61.2 181.492C61.2 181.494 61.2 181.496 61.2 181.499C61.2 181.501 61.2 181.504 61.2 181.506C61.2 181.508 61.2 181.511 61.2 181.513C61.2 181.516 61.2 181.518 61.2 181.52C61.2 181.523 61.2 181.525 61.2 181.528C61.2 181.53 61.2 181.532 61.2 181.535C61.2 181.537 61.2 181.54 61.2 181.542C61.2 181.544 61.2 181.547 61.2 181.549C61.2 181.552 61.2 181.554 61.2 181.556C61.2 181.559 61.2 181.561 61.2 181.563C61.2 181.566 61.2 181.568 61.2 181.571C61.2 181.573 61.2 181.575 61.2 181.578C61.2 181.58 61.2 181.583 61.2 181.585C61.2 181.587 61.2 181.59 61.2 181.592C61.2 181.595 61.2 181.597 61.2 181.599C61.2 181.602 61.2 181.604 61.2 181.606C61.2 181.609 61.2 181.611 61.2 181.614C61.2 181.616 61.2 181.618 61.2 181.621C61.2 181.623 61.2 181.626 61.2 181.628C61.2 181.63 61.2 181.633 61.2 181.635C61.2 181.637 61.2 181.64 61.2 181.642C61.2 181.645 61.2 181.647 61.2 181.649C61.2 181.652 61.2 181.654 61.2 181.657C61.2 181.659 61.2 181.661 61.2 181.664C61.2 181.666 61.2 181.668 61.2 181.671C61.2 181.673 61.2 181.676 61.2 181.678C61.2 181.68 61.2 181.683 61.2 181.685C61.2 181.687 61.2 181.69 61.2 181.692C61.2 181.695 61.2 181.697 61.2 181.699C61.2 181.702 61.2 181.704 61.2 181.706C61.2 181.709 61.2 181.711 61.2 181.714C61.2 181.716 61.2 181.718 61.2 181.721C61.2 181.723 61.2 181.725 61.2 181.728C61.2 181.73 61.2 181.733 61.2 181.735C61.2 181.737 61.2 181.74 61.2 181.742C61.2 181.744 61.2 181.747 61.2 181.749C61.2 181.752 61.2 181.754 61.2 181.756C61.2 181.759 61.2 181.761 61.2 181.763C61.2 181.766 61.2 181.768 61.2 181.77C61.2 181.773 61.2 181.775 61.2 181.778C61.2 181.78 61.2 181.782 61.2 181.785C61.2 181.787 61.2 181.789 61.2 181.792C61.2 181.794 61.2 181.796 61.2 181.799C61.2 181.801 61.2 181.804 61.2 181.806C61.2 181.808 61.2 181.811 61.2 181.813C61.2 181.815 61.2 181.818 61.2 181.82C61.2 181.822 61.2 181.825 61.2 181.827C61.2 181.83 61.2 181.832 61.2 181.834C61.2 181.837 61.2 181.839 61.2 181.841C61.2 181.844 61.2 181.846 61.2 181.848C61.2 181.851 61.2 181.853 61.2 181.855C61.2 181.858 61.2 181.86 61.2 181.862C61.2 181.865 61.2 181.867 61.2 181.87C61.2 181.872 61.2 181.874 61.2 181.877C61.2 181.879 61.2 181.881 61.2 181.884C61.2 181.886 61.2 181.888 61.2 181.891C61.2 181.893 61.2 181.895 61.2 181.898C61.2 181.9 61.2 181.902 61.2 181.905C61.2 181.907 61.2 181.91 61.2 181.912C61.2 181.914 61.2 181.917 61.2 181.919C61.2 181.921 61.2 181.924 61.2 181.926C61.2 181.928 61.2 181.931 61.2 181.933C61.2 181.935 61.2 181.938 61.2 181.94H69.2C69.2 181.938 69.2 181.935 69.2 181.933C69.2 181.931 69.2 181.928 69.2 181.926C69.2 181.924 69.2 181.921 69.2 181.919C69.2 181.917 69.2 181.914 69.2 181.912C69.2 181.91 69.2 181.907 69.2 181.905C69.2 181.902 69.2 181.9 69.2 181.898C69.2 181.895 69.2 181.893 69.2 181.891C69.2 181.888 69.2 181.886 69.2 181.884C69.2 181.881 69.2 181.879 69.2 181.877C69.2 181.874 69.2 181.872 69.2 181.87C69.2 181.867 69.2 181.865 69.2 181.862C69.2 181.86 69.2 181.858 69.2 181.855C69.2 181.853 69.2 181.851 69.2 181.848C69.2 181.846 69.2 181.844 69.2 181.841C69.2 181.839 69.2 181.837 69.2 181.834C69.2 181.832 69.2 181.83 69.2 181.827C69.2 181.825 69.2 181.822 69.2 181.82C69.2 181.818 69.2 181.815 69.2 181.813C69.2 181.811 69.2 181.808 69.2 181.806C69.2 181.804 69.2 181.801 69.2 181.799C69.2 181.796 69.2 181.794 69.2 181.792C69.2 181.789 69.2 181.787 69.2 181.785C69.2 181.782 69.2 181.78 69.2 181.778C69.2 181.775 69.2 181.773 69.2 181.77C69.2 181.768 69.2 181.766 69.2 181.763C69.2 181.761 69.2 181.759 69.2 181.756C69.2 181.754 69.2 181.752 69.2 181.749C69.2 181.747 69.2 181.744 69.2 181.742C69.2 181.74 69.2 181.737 69.2 181.735C69.2 181.733 69.2 181.73 69.2 181.728C69.2 181.725 69.2 181.723 69.2 181.721C69.2 181.718 69.2 181.716 69.2 181.714C69.2 181.711 69.2 181.709 69.2 181.706C69.2 181.704 69.2 181.702 69.2 181.699C69.2 181.697 69.2 181.695 69.2 181.692C69.2 181.69 69.2 181.687 69.2 181.685C69.2 181.683 69.2 181.68 69.2 181.678C69.2 181.676 69.2 181.673 69.2 181.671C69.2 181.668 69.2 181.666 69.2 181.664C69.2 181.661 69.2 181.659 69.2 181.657C69.2 181.654 69.2 181.652 69.2 181.649C69.2 181.647 69.2 181.645 69.2 181.642C69.2 181.64 69.2 181.637 69.2 181.635C69.2 181.633 69.2 181.63 69.2 181.628C69.2 181.626 69.2 181.623 69.2 181.621C69.2 181.618 69.2 181.616 69.2 181.614C69.2 181.611 69.2 181.609 69.2 181.606C69.2 181.604 69.2 181.602 69.2 181.599C69.2 181.597 69.2 181.595 69.2 181.592C69.2 181.59 69.2 181.587 69.2 181.585C69.2 181.583 69.2 181.58 69.2 181.578C69.2 181.575 69.2 181.573 69.2 181.571C69.2 181.568 69.2 181.566 69.2 181.563C69.2 181.561 69.2 181.559 69.2 181.556C69.2 181.554 69.2 181.552 69.2 181.549C69.2 181.547 69.2 181.544 69.2 181.542C69.2 181.54 69.2 181.537 69.2 181.535C69.2 181.532 69.2 181.53 69.2 181.528C69.2 181.525 69.2 181.523 69.2 181.52C69.2 181.518 69.2 181.516 69.2 181.513C69.2 181.511 69.2 181.508 69.2 181.506C69.2 181.504 69.2 181.501 69.2 181.499C69.2 181.496 69.2 181.494 69.2 181.492C69.2 181.489 69.2 181.487 69.2 181.484C69.2 181.482 69.2 181.48 69.2 181.477C69.2 181.475 69.2 181.472 69.2 181.47C69.2 181.468 69.2 181.465 69.2 181.463C69.2 181.46 69.2 181.458 69.2 181.456C69.2 181.453 69.2 181.451 69.2 181.448C69.2 181.446 69.2 181.443 69.2 181.441C69.2 181.439 69.2 181.436 69.2 181.434C69.2 181.431 69.2 181.429 69.2 181.427C69.2 181.424 69.2 181.422 69.2 181.419C69.2 181.417 69.2 181.415 69.2 181.412C69.2 181.41 69.2 181.407 69.2 181.405C69.2 181.403 69.2 181.4 69.2 181.398C69.2 181.395 69.2 181.393 69.2 181.39C69.2 181.388 69.2 181.386 69.2 181.383C69.2 181.381 69.2 181.378 69.2 181.376C69.2 181.374 69.2 181.371 69.2 181.369C69.2 181.366 69.2 181.364 69.2 181.361C69.2 181.359 69.2 181.357 69.2 181.354C69.2 181.352 69.2 181.349 69.2 181.347C69.2 181.345 69.2 181.342 69.2 181.34C69.2 181.337 69.2 181.335 69.2 181.332C69.2 181.33 69.2 181.328 69.2 181.325C69.2 181.323 69.2 181.32 69.2 181.318C69.2 181.315 69.2 181.313 69.2 181.311C69.2 181.308 69.2 181.306 69.2 181.303C69.2 181.301 69.2 181.298 69.2 181.296C69.2 181.294 69.2 181.291 69.2 181.289C69.2 181.286 69.2 181.284 69.2 181.281C69.2 181.279 69.2 181.277 69.2 181.274C69.2 181.272 69.2 181.269 69.2 181.267C69.2 181.264 69.2 181.262 69.2 181.26C69.2 181.257 69.2 181.255 69.2 181.252C69.2 181.25 69.2 181.247 69.2 181.245C69.2 181.243 69.2 181.24 69.2 181.238C69.2 181.235 69.2 181.233 69.2 181.23C69.2 181.228 69.2 181.226 69.2 181.223C69.2 181.221 69.2 181.218 69.2 181.216C69.2 181.213 69.2 181.211 69.2 181.209C69.2 181.206 69.2 181.204 69.2 181.201C69.2 181.199 69.2 181.196 69.2 181.194C69.2 181.191 69.2 181.189 69.2 181.187C69.2 181.184 69.2 181.182 69.2 181.179C69.2 181.177 69.2 181.174 69.2 181.172C69.2 181.169 69.2 181.167 69.2 181.165C69.2 181.162 69.2 181.16 69.2 181.157C69.2 181.155 69.2 181.152 69.2 181.15C69.2 181.147 69.2 181.145 69.2 181.143C69.2 181.14 69.2 181.138 69.2 181.135C69.2 181.133 69.2 181.13 69.2 181.128C69.2 181.125 69.2 181.123 69.2 181.121C69.2 181.118 69.2 181.116 69.2 181.113C69.2 181.111 69.2 181.108 69.2 181.106C69.2 181.103 69.2 181.101 69.2 181.099C69.2 181.096 69.2 181.094 69.2 181.091C69.2 181.089 69.2 181.086 69.2 181.084C69.2 181.081 69.2 181.079 69.2 181.076C69.2 181.074 69.2 181.072 69.2 181.069C69.2 181.067 69.2 181.064 69.2 181.062C69.2 181.059 69.2 181.057 69.2 181.054C69.2 181.052 69.2 181.049 69.2 181.047C69.2 181.045 69.2 181.042 69.2 181.04C69.2 181.037 69.2 181.035 69.2 181.032C69.2 181.03 69.2 181.027 69.2 181.025C69.2 181.022 69.2 181.02 69.2 181.017C69.2 181.015 69.2 181.013 69.2 181.01C69.2 181.008 69.2 181.005 69.2 181.003C69.2 181 69.2 180.998 69.2 180.995C69.2 180.993 69.2 180.99 69.2 180.988C69.2 180.985 69.2 180.983 69.2 180.981C69.2 180.978 69.2 180.976 69.2 180.973C69.2 180.971 69.2 180.968 69.2 180.966C69.2 180.963 69.2 180.961 69.2 180.958C69.2 180.956 69.2 180.953 69.2 180.951C69.2 180.948 69.2 180.946 69.2 180.944C69.2 180.941 69.2 180.939 69.2 180.936C69.2 180.934 69.2 180.931 69.2 180.929C69.2 180.926 69.2 180.924 69.2 180.921C69.2 180.919 69.2 180.916 69.2 180.914C69.2 180.911 69.2 180.909 69.2 180.906C69.2 180.904 69.2 180.901 69.2 180.899C69.2 180.897 69.2 180.894 69.2 180.892C69.2 180.889 69.2 180.887 69.2 180.884C69.2 180.882 69.2 180.879 69.2 180.877C69.2 180.874 69.2 180.872 69.2 180.869C69.2 180.867 69.2 180.864 69.2 180.862C69.2 180.859 69.2 180.857 69.2 180.854C69.2 180.852 69.2 180.849 69.2 180.847C69.2 180.844 69.2 180.842 69.2 180.84C69.2 180.837 69.2 180.835 69.2 180.832C69.2 180.83 69.2 180.827 69.2 180.825C69.2 180.822 69.2 180.82 69.2 180.817C69.2 180.815 69.2 180.812 69.2 180.81C69.2 180.807 69.2 180.805 69.2 180.802C69.2 180.8 69.2 180.797 69.2 180.795C69.2 180.792 69.2 180.79 69.2 180.787C69.2 180.785 69.2 180.782 69.2 180.78C69.2 180.777 69.2 180.775 69.2 180.772C69.2 180.77 69.2 180.767 69.2 180.765C69.2 180.762 69.2 180.76 69.2 180.757C69.2 180.755 69.2 180.752 69.2 180.75C69.2 180.747 69.2 180.745 69.2 180.742C69.2 180.74 69.2 180.737 69.2 180.735C69.2 180.732 69.2 180.73 69.2 180.727C69.2 180.725 69.2 180.722 69.2 180.72C69.2 180.717 69.2 180.715 69.2 180.712C69.2 180.71 69.2 180.707 69.2 180.705C69.2 180.702 69.2 180.7 69.2 180.697C69.2 180.695 69.2 180.692 69.2 180.69C69.2 180.687 69.2 180.685 69.2 180.682C69.2 180.68 69.2 180.677 69.2 180.675C69.2 180.672 69.2 180.67 69.2 180.667C69.2 180.665 69.2 180.662 69.2 180.66C69.2 180.657 69.2 180.655 69.2 180.652C69.2 180.65 69.2 180.647 69.2 180.645C69.2 180.642 69.2 180.64 69.2 180.637C69.2 180.635 69.2 180.632 69.2 180.63C69.2 180.627 69.2 180.625 69.2 180.622C69.2 180.62 69.2 180.617 69.2 180.615C69.2 180.612 69.2 180.61 69.2 180.607C69.2 180.605 69.2 180.602 69.2 180.6C69.2 180.597 69.2 180.595 69.2 180.592C69.2 180.59 69.2 180.587 69.2 180.585C69.2 180.582 69.2 180.58 69.2 180.577C69.2 180.575 69.2 180.572 69.2 180.57C69.2 180.567 69.2 180.565 69.2 180.562C69.2 180.56 69.2 180.557 69.2 180.554C69.2 180.552 69.2 180.549 69.2 180.547C69.2 180.544 69.2 180.542 69.2 180.539C69.2 180.537 69.2 180.534 69.2 180.532C69.2 180.529 69.2 180.527 69.2 180.524C69.2 180.522 69.2 180.519 69.2 180.517C69.2 180.514 69.2 180.512 69.2 180.509C69.2 180.507 69.2 180.504 69.2 180.502C69.2 180.499 69.2 180.496 69.2 180.494C69.2 180.491 69.2 180.489 69.2 180.486C69.2 180.484 69.2 180.481 69.2 180.479C69.2 180.476 69.2 180.474 69.2 180.471C69.2 180.469 69.2 180.466 69.2 180.464C69.2 180.461 69.2 180.459 69.2 180.456C69.2 180.454 69.2 180.451 69.2 180.448C69.2 180.446 69.2 180.443 69.2 180.441C69.2 180.438 69.2 180.436 69.2 180.433C69.2 180.431 69.2 180.428 69.2 180.426C69.2 180.423 69.2 180.421 69.2 180.418C69.2 180.416 69.2 180.413 69.2 180.41C69.2 180.408 69.2 180.405 69.2 180.403C69.2 180.4 69.2 180.398 69.2 180.395C69.2 180.393 69.2 180.39 69.2 180.388C69.2 180.385 69.2 180.383 69.2 180.38C69.2 180.377 69.2 180.375 69.2 180.372C69.2 180.37 69.2 180.367 69.2 180.365C69.2 180.362 69.2 180.36 69.2 180.357C69.2 180.355 69.2 180.352 69.2 180.35C69.2 180.347 69.2 180.344 69.2 180.342C69.2 180.339 69.2 180.337 69.2 180.334C69.2 180.332 69.2 180.329 69.2 180.327C69.2 180.324 69.2 180.322 69.2 180.319C69.2 180.316 69.2 180.314 69.2 180.311C69.2 180.309 69.2 180.306 69.2 180.304C69.2 180.301 69.2 180.299 69.2 180.296C69.2 180.294 69.2 180.291 69.2 180.288C69.2 180.286 69.2 180.283 69.2 180.281C69.2 180.278 69.2 180.276 69.2 180.273C69.2 180.271 69.2 180.268 69.2 180.265C69.2 180.263 69.2 180.26 69.2 180.258C69.2 180.255 69.2 180.253 69.2 180.25C69.2 180.248 69.2 180.245 69.2 180.242C69.2 180.24 69.2 180.237 69.2 180.235C69.2 180.232 69.2 180.23 69.2 180.227C69.2 180.225 69.2 180.222 69.2 180.219C69.2 180.217 69.2 180.214 69.2 180.212C69.2 180.209 69.2 180.207 69.2 180.204C69.2 180.202 69.2 180.199 69.2 180.196C69.2 180.194 69.2 180.191 69.2 180.189C69.2 180.186 69.2 180.184 69.2 180.181C69.2 180.179 69.2 180.176 69.2 180.173C69.2 180.171 69.2 180.168 69.2 180.166C69.2 180.163 69.2 180.161 69.2 180.158C69.2 180.155 69.2 180.153 69.2 180.15C69.2 180.148 69.2 180.145 69.2 180.143C69.2 180.14 69.2 180.137 69.2 180.135C69.2 180.132 69.2 180.13 69.2 180.127C69.2 180.125 69.2 180.122 69.2 180.119C69.2 180.117 69.2 180.114 69.2 180.112C69.2 180.109 69.2 180.107 69.2 180.104C69.2 180.101 69.2 180.099 69.2 180.096C69.2 180.094 69.2 180.091 69.2 180.089C69.2 180.086 69.2 180.083 69.2 180.081C69.2 180.078 69.2 180.076 69.2 180.073C69.2 180.071 69.2 180.068 69.2 180.065C69.2 180.063 69.2 180.06 69.2 180.058C69.2 180.055 69.2 180.053 69.2 180.05C69.2 180.047 69.2 180.045 69.2 180.042C69.2 180.04 69.2 180.037 69.2 180.035C69.2 180.032 69.2 180.029 69.2 180.027C69.2 180.024 69.2 180.022 69.2 180.019C69.2 180.016 69.2 180.014 69.2 180.011C69.2 180.009 69.2 180.006 69.2 180.004C69.2 180.001 69.2 179.998 69.2 179.996C69.2 179.993 69.2 179.991 69.2 179.988C69.2 179.985 69.2 179.983 69.2 179.98C69.2 179.978 69.2 179.975 69.2 179.973C69.2 179.97 69.2 179.967 69.2 179.965C69.2 179.962 69.2 179.96 69.2 179.957C69.2 179.954 69.2 179.952 69.2 179.949C69.2 179.947 69.2 179.944 69.2 179.941C69.2 179.939 69.2 179.936 69.2 179.934C69.2 179.931 69.2 179.928 69.2 179.926C69.2 179.923 69.2 179.921 69.2 179.918C69.2 179.916 69.2 179.913 69.2 179.91C69.2 179.908 69.2 179.905 69.2 179.903C69.2 179.9 69.2 179.897 69.2 179.895C69.2 179.892 69.2 179.89 69.2 179.887C69.2 179.884 69.2 179.882 69.2 179.879C69.2 179.877 69.2 179.874 69.2 179.871C69.2 179.869 69.2 179.866 69.2 179.864C69.2 179.861 69.2 179.858 69.2 179.856C69.2 179.853 69.2 179.851 69.2 179.848C69.2 179.845 69.2 179.843 69.2 179.84C69.2 179.838 69.2 179.835 69.2 179.832C69.2 179.83 69.2 179.827 69.2 179.825C69.2 179.822 69.2 179.819 69.2 179.817C69.2 179.814 69.2 179.812 69.2 179.809C69.2 179.806 69.2 179.804 69.2 179.801C69.2 179.798 69.2 179.796 69.2 179.793C69.2 179.791 69.2 179.788 69.2 179.785C69.2 179.783 69.2 179.78 69.2 179.778C69.2 179.775 69.2 179.772 69.2 179.77C69.2 179.767 69.2 179.765 69.2 179.762C69.2 179.759 69.2 179.757 69.2 179.754C69.2 179.751 69.2 179.749 69.2 179.746C69.2 179.744 69.2 179.741 69.2 179.738C69.2 179.736 69.2 179.733 69.2 179.731C69.2 179.728 69.2 179.725 69.2 179.723C69.2 179.72 69.2 179.717 69.2 179.715C69.2 179.712 69.2 179.71 69.2 179.707C69.2 179.704 69.2 179.702 69.2 179.699C69.2 179.697 69.2 179.694 69.2 179.691C69.2 179.689 69.2 179.686 69.2 179.683C69.2 179.681 69.2 179.678 69.2 179.676C69.2 179.673 69.2 179.67 69.2 179.668C69.2 179.665 69.2 179.662 69.2 179.66C69.2 179.657 69.2 179.655 69.2 179.652C69.2 179.649 69.2 179.647 69.2 179.644C69.2 179.641 69.2 179.639 69.2 179.636C69.2 179.634 69.2 179.631 69.2 179.628C69.2 179.626 69.2 179.623 69.2 179.62C69.2 179.618 69.2 179.615 69.2 179.613C69.2 179.61 69.2 179.607 69.2 179.605C69.2 179.602 69.2 179.599 69.2 179.597C69.2 179.594 69.2 179.592 69.2 179.589C69.2 179.586 69.2 179.584 69.2 179.581C69.2 179.578 69.2 179.576 69.2 179.573C69.2 179.57 69.2 179.568 69.2 179.565C69.2 179.563 69.2 179.56 69.2 179.557C69.2 179.555 69.2 179.552 69.2 179.549C69.2 179.547 69.2 179.544 69.2 179.541C69.2 179.539 69.2 179.536 69.2 179.534C69.2 179.531 69.2 179.528 69.2 179.526C69.2 179.523 69.2 179.52 69.2 179.518C69.2 179.515 69.2 179.512 69.2 179.51C69.2 179.507 69.2 179.505 69.2 179.502C69.2 179.499 69.2 179.497 69.2 179.494C69.2 179.491 69.2 179.489 69.2 179.486C69.2 179.483 69.2 179.481 69.2 179.478C69.2 179.475 69.2 179.473 69.2 179.47C69.2 179.467 69.2 179.465 69.2 179.462C69.2 179.46 69.2 179.457 69.2 179.454C69.2 179.452 69.2 179.449 69.2 179.446C69.2 179.444 69.2 179.441 69.2 179.438C69.2 179.436 69.2 179.433 69.2 179.43C69.2 179.428 69.2 179.425 69.2 179.422C69.2 179.42 69.2 179.417 69.2 179.415C69.2 179.412 69.2 179.409 69.2 179.407C69.2 179.404 69.2 179.401 69.2 179.399C69.2 179.396 69.2 179.393 69.2 179.391C69.2 179.388 69.2 179.385 69.2 179.383C69.2 179.38 69.2 179.377 69.2 179.375C69.2 179.372 69.2 179.369 69.2 179.367C69.2 179.364 69.2 179.361 69.2 179.359C69.2 179.356 69.2 179.353 69.2 179.351C69.2 179.348 69.2 179.345 69.2 179.343C69.2 179.34 69.2 179.337 69.2 179.335C69.2 179.332 69.2 179.329 69.2 179.327C69.2 179.324 69.2 179.321 69.2 179.319C69.2 179.316 69.2 179.313 69.2 179.311C69.2 179.308 69.2 179.306 69.2 179.303C69.2 179.3 69.2 179.298 69.2 179.295C69.2 179.292 69.2 179.29 69.2 179.287C69.2 179.284 69.2 179.282 69.2 179.279C69.2 179.276 69.2 179.274 69.2 179.271C69.2 179.268 69.2 179.265 69.2 179.263C69.2 179.26 69.2 179.257 69.2 179.255C69.2 179.252 69.2 179.249 69.2 179.247C69.2 179.244 69.2 179.241 69.2 179.239C69.2 179.236 69.2 179.233 69.2 179.231C69.2 179.228 69.2 179.225 69.2 179.223C69.2 179.22 69.2 179.217 69.2 179.215C69.2 179.212 69.2 179.209 69.2 179.207C69.2 179.204 69.2 179.201 69.2 179.199C69.2 179.196 69.2 179.193 69.2 179.191C69.2 179.188 69.2 179.185 69.2 179.183C69.2 179.18 69.2 179.177 69.2 179.175C69.2 179.172 69.2 179.169 69.2 179.167C69.2 179.164 69.2 179.161 69.2 179.158C69.2 179.156 69.2 179.153 69.2 179.15C69.2 179.148 69.2 179.145 69.2 179.142C69.2 179.14 69.2 179.137 69.2 179.134C69.2 179.132 69.2 179.129 69.2 179.126C69.2 179.124 69.2 179.121 69.2 179.118C69.2 179.116 69.2 179.113 69.2 179.11C69.2 179.107 69.2 179.105 69.2 179.102C69.2 179.099 69.2 179.097 69.2 179.094C69.2 179.091 69.2 179.089 69.2 179.086C69.2 179.083 69.2 179.081 69.2 179.078C69.2 179.075 69.2 179.073 69.2 179.07C69.2 179.067 69.2 179.064 69.2 179.062C69.2 179.059 69.2 179.056 69.2 179.054C69.2 179.051 69.2 179.048 69.2 179.046C69.2 179.043 69.2 179.04 69.2 179.037C69.2 179.035 69.2 179.032 69.2 179.029C69.2 179.027 69.2 179.024 69.2 179.021C69.2 179.019 69.2 179.016 69.2 179.013C69.2 179.011 69.2 179.008 69.2 179.005C69.2 179.002 69.2 179 69.2 178.997C69.2 178.994 69.2 178.992 69.2 178.989C69.2 178.986 69.2 178.984 69.2 178.981C69.2 178.978 69.2 178.975 69.2 178.973C69.2 178.97 69.2 178.967 69.2 178.965C69.2 178.962 69.2 178.959 69.2 178.956C69.2 178.954 69.2 178.951 69.2 178.948C69.2 178.946 69.2 178.943 69.2 178.94C69.2 178.938 69.2 178.935 69.2 178.932C69.2 178.929 69.2 178.927 69.2 178.924C69.2 178.921 69.2 178.919 69.2 178.916C69.2 178.913 69.2 178.91 69.2 178.908C69.2 178.905 69.2 178.902 69.2 178.9C69.2 178.897 69.2 178.894 69.2 178.892C69.2 178.889 69.2 178.886 69.2 178.883C69.2 178.881 69.2 178.878 69.2 178.875C69.2 178.873 69.2 178.87 69.2 178.867C69.2 178.864 69.2 178.862 69.2 178.859C69.2 178.856 69.2 178.854 69.2 178.851C69.2 178.848 69.2 178.845 69.2 178.843C69.2 178.84 69.2 178.837 69.2 178.834C69.2 178.832 69.2 178.829 69.2 178.826C69.2 178.824 69.2 178.821 69.2 178.818C69.2 178.815 69.2 178.813 69.2 178.81C69.2 178.807 69.2 178.805 69.2 178.802C69.2 178.799 69.2 178.796 69.2 178.794C69.2 178.791 69.2 178.788 69.2 178.786C69.2 178.783 69.2 178.78 69.2 178.777C69.2 178.775 69.2 178.772 69.2 178.769C69.2 178.766 69.2 178.764 69.2 178.761C69.2 178.758 69.2 178.756 69.2 178.753C69.2 178.75 69.2 178.747 69.2 178.745C69.2 178.742 69.2 178.739 69.2 178.736C69.2 178.734 69.2 178.731 69.2 178.728C69.2 178.726 69.2 178.723 69.2 178.72C69.2 178.717 69.2 178.715 69.2 178.712C69.2 178.709 69.2 178.706 69.2 178.704C69.2 178.701 69.2 178.698 69.2 178.695C69.2 178.693 69.2 178.69 69.2 178.687C69.2 178.685 69.2 178.682 69.2 178.679C69.2 178.676 69.2 178.674 69.2 178.671C69.2 178.668 69.2 178.665 69.2 178.663C69.2 178.66 69.2 178.657 69.2 178.654C69.2 178.652 69.2 178.649 69.2 178.646C69.2 178.643 69.2 178.641 69.2 178.638C69.2 178.635 69.2 178.633 69.2 178.63C69.2 178.627 69.2 178.624 69.2 178.622C69.2 178.619 69.2 178.616 69.2 178.613C69.2 178.611 69.2 178.608 69.2 178.605C69.2 178.602 69.2 178.6 69.2 178.597C69.2 178.594 69.2 178.591 69.2 178.589C69.2 178.586 69.2 178.583 69.2 178.58C69.2 178.578 69.2 178.575 69.2 178.572C69.2 178.569 69.2 178.567 69.2 178.564C69.2 178.561 69.2 178.558 69.2 178.556C69.2 178.553 69.2 178.55 69.2 178.547C69.2 178.545 69.2 178.542 69.2 178.539C69.2 178.536 69.2 178.534 69.2 178.531C69.2 178.528 69.2 178.525 69.2 178.523C69.2 178.52 69.2 178.517 69.2 178.514C69.2 178.512 69.2 178.509 69.2 178.506C69.2 178.503 69.2 178.501 69.2 178.498C69.2 178.495 69.2 178.492 69.2 178.49C69.2 178.487 69.2 178.484 69.2 178.481C69.2 178.479 69.2 178.476 69.2 178.473C69.2 178.47 69.2 178.468 69.2 178.465C69.2 178.462 69.2 178.459 69.2 178.456C69.2 178.454 69.2 178.451 69.2 178.448C69.2 178.445 69.2 178.443 69.2 178.44C69.2 178.437 69.2 178.434 69.2 178.432C69.2 178.429 69.2 178.426 69.2 178.423C69.2 178.421 69.2 178.418 69.2 178.415C69.2 178.412 69.2 178.41 69.2 178.407C69.2 178.404 69.2 178.401 69.2 178.398C69.2 178.396 69.2 178.393 69.2 178.39C69.2 178.387 69.2 178.385 69.2 178.382C69.2 178.379 69.2 178.376 69.2 178.374C69.2 178.371 69.2 178.368 69.2 178.365C69.2 178.362 69.2 178.36 69.2 178.357C69.2 178.354 69.2 178.351 69.2 178.349C69.2 178.346 69.2 178.343 69.2 178.34C69.2 178.337 69.2 178.335 69.2 178.332C69.2 178.329 69.2 178.326 69.2 178.324C69.2 178.321 69.2 178.318 69.2 178.315C69.2 178.313 69.2 178.31 69.2 178.307C69.2 178.304 69.2 178.301 69.2 178.299C69.2 178.296 69.2 178.293 69.2 178.29C69.2 178.288 69.2 178.285 69.2 178.282C69.2 178.279 69.2 178.276 69.2 178.274C69.2 178.271 69.2 178.268 69.2 178.265C69.2 178.263 69.2 178.26 69.2 178.257C69.2 178.254 69.2 178.251 69.2 178.249C69.2 178.246 69.2 178.243 69.2 178.24C69.2 178.237 69.2 178.235 69.2 178.232C69.2 178.229 69.2 178.226 69.2 178.224C69.2 178.221 69.2 178.218 69.2 178.215C69.2 178.212 69.2 178.21 69.2 178.207C69.2 178.204 69.2 178.201 69.2 178.198C69.2 178.196 69.2 178.193 69.2 178.19C69.2 178.187 69.2 178.184 69.2 178.182C69.2 178.179 69.2 178.176 69.2 178.173C69.2 178.171 69.2 178.168 69.2 178.165C69.2 178.162 69.2 178.159 69.2 178.157C69.2 178.154 69.2 178.151 69.2 178.148C69.2 178.145 69.2 178.143 69.2 178.14C69.2 178.137 69.2 178.134 69.2 178.131C69.2 178.129 69.2 178.126 69.2 178.123C69.2 178.12 69.2 178.117 69.2 178.115C69.2 178.112 69.2 178.109 69.2 178.106C69.2 178.103 69.2 178.101 69.2 178.098C69.2 178.095 69.2 178.092 69.2 178.089C69.2 178.087 69.2 178.084 69.2 178.081C69.2 178.078 69.2 178.075 69.2 178.073C69.2 178.07 69.2 178.067 69.2 178.064C69.2 178.061 69.2 178.059 69.2 178.056C69.2 178.053 69.2 178.05 69.2 178.047C69.2 178.045 69.2 178.042 69.2 178.039C69.2 178.036 69.2 178.033 69.2 178.031C69.2 178.028 69.2 178.025 69.2 178.022C69.2 178.019 69.2 178.017 69.2 178.014C69.2 178.011 69.2 178.008 69.2 178.005C69.2 178.002 69.2 178 69.2 177.997C69.2 177.994 69.2 177.991 69.2 177.988C69.2 177.986 69.2 177.983 69.2 177.98H61.2ZM61.2 181.94C61.2 191.57 63.9561 199.462 70.1568 204.777L75.3632 198.703C71.4839 195.378 69.2 190.07 69.2 181.94H61.2ZM70.1568 204.777C76.1356 209.902 84.1305 212.22 93.64 212.22V204.22C85.3895 204.22 79.4644 202.218 75.3632 198.703L70.1568 204.777ZM93.64 212.22C104.033 212.22 112.774 209.94 119.44 204.94L114.64 198.54C109.786 202.18 102.927 204.22 93.64 204.22V212.22ZM119.46 204.925C126.217 199.789 131.393 192.126 135.173 182.296L127.707 179.424C124.288 188.314 119.863 194.571 114.62 198.555L119.46 204.925ZM135.173 182.296C138.902 172.602 142.077 160.084 144.74 144.828L136.86 143.452C134.243 158.436 131.178 170.398 127.707 179.424L135.173 182.296ZM138.223 141.08C133.923 144.702 129.031 147.892 123.531 150.642L127.109 157.798C133.129 154.788 138.557 151.258 143.377 147.2L138.223 141.08ZM123.653 150.584C118.119 153.121 112.221 155.204 105.956 156.828L107.964 164.572C114.659 162.836 121.001 160.599 126.987 157.856L123.653 150.584ZM106.061 156.802C100.13 158.171 93.9522 158.86 87.52 158.86V166.86C94.5278 166.86 101.31 166.109 107.859 164.598L106.061 156.802ZM87.52 158.86C73.344 158.86 60.691 156.421 49.4957 151.623L46.3443 158.977C58.669 164.259 72.416 166.86 87.52 166.86V158.86ZM49.4957 151.623C38.3454 146.845 29.5809 139.961 23.0784 130.992L16.6016 135.688C24.0191 145.919 33.9746 153.675 46.3443 158.977L49.4957 151.623ZM23.1169 131.046C16.9426 122.226 13.76 111.421 13.76 98.42H5.76C5.76 112.779 9.2974 125.254 16.5631 135.634L23.1169 131.046ZM13.76 98.42C13.76 83.8175 16.5386 70.8616 22.0061 59.4709L14.7939 56.0091C8.74144 68.6184 5.76 82.7825 5.76 98.42H13.76ZM22.0193 59.4432C27.5284 47.7363 35.198 37.8973 45.0451 29.8822L39.9949 23.6777C29.202 32.4627 20.7916 43.2637 14.7807 56.0368L22.0193 59.4432ZM45.053 29.8758C55.165 21.6023 67.1629 15.3552 81.1094 11.1713L78.8106 3.50868C63.9571 7.96473 50.995 14.6777 39.9871 23.6842L45.053 29.8758ZM81.1495 11.159C95.3591 6.7331 110.913 4.49998 127.84 4.49998V-3.50002C110.207 -3.50002 93.841 -1.17314 78.7705 3.52095L81.1495 11.159ZM127.84 4.49998C147.595 4.49998 163.89 7.67799 176.888 13.8349L180.312 6.60504C165.95 -0.198021 148.405 -3.50002 127.84 -3.50002V4.49998ZM176.912 13.8463C190.064 19.9689 199.842 29.2027 206.382 41.6056L213.458 37.8744C206.078 23.8773 194.976 13.4311 180.288 6.59366L176.912 13.8463ZM206.423 41.6826C213.203 53.8852 216.72 69.485 216.72 88.7H224.72C224.72 68.555 221.037 51.5148 213.417 37.7974L206.423 41.6826ZM216.72 88.7C216.72 94.0476 216.371 99.7734 215.666 105.882L223.614 106.798C224.349 100.427 224.72 94.3924 224.72 88.7H216.72ZM215.652 106.033C215.183 112.129 214.361 118.476 213.182 125.077L221.058 126.483C222.279 119.644 223.137 113.031 223.628 106.647L215.652 106.033ZM213.179 125.098C207.703 156.761 199.651 181.836 189.154 200.499L196.126 204.421C207.229 184.684 215.497 158.639 221.062 126.462L213.179 125.098ZM189.154 200.499C178.681 219.118 165.302 232.423 149.071 240.652L152.689 247.788C170.538 238.737 184.999 224.202 196.126 204.421L189.154 200.499ZM149.091 240.642C132.979 248.698 113.226 252.82 89.68 252.82V260.82C114.134 260.82 135.181 256.542 152.669 247.798L149.091 240.642ZM109.84 123.66C116.268 123.66 122.184 122.631 127.526 120.494L124.554 113.066C120.296 114.769 115.412 115.66 109.84 115.66V123.66ZM127.464 120.518C132.884 118.453 137.623 115.707 141.62 112.243L136.38 106.197C133.177 108.973 129.276 111.267 124.616 113.042L127.464 120.518ZM141.746 112.128C146.495 107.644 150.069 102.349 152.445 96.2776L144.995 93.3624C143.051 98.3312 140.145 102.636 136.254 106.312L141.746 112.128ZM152.412 96.3585C155.044 90.0418 156.32 83.0276 156.32 75.38H148.32C148.32 82.1324 147.196 88.0782 145.028 93.2815L152.412 96.3585ZM156.32 75.38C156.32 69.1381 155.151 63.6141 152.566 59.019L145.594 62.941C147.329 66.0259 148.32 70.1019 148.32 75.38H156.32ZM152.566 59.019C149.918 54.3104 145.825 50.8734 140.552 48.6534L137.448 56.0265C141.295 57.6466 143.922 59.9696 145.594 62.941L152.566 59.019ZM140.789 48.7623C135.757 46.2464 129.699 45.1 122.8 45.1V53.1C128.861 53.1 133.603 54.1136 137.211 55.9177L140.789 48.7623ZM122.8 45.1C116.933 45.1 111.48 45.8653 106.475 47.4457L108.885 55.0743C113 53.7747 117.627 53.1 122.8 53.1V45.1ZM106.475 47.4457C101.511 49.0135 97.1096 51.264 93.3287 54.2347L98.2713 60.5253C101.21 58.216 104.729 56.3865 108.885 55.0743L106.475 47.4457ZM93.3758 54.1983C87.7781 58.4632 83.5217 63.9315 80.6187 70.529L87.9413 73.7509C90.3183 68.3485 93.7419 63.9768 98.2242 60.5617L93.3758 54.1983ZM80.6187 70.529C77.7203 77.1163 76.32 84.5195 76.32 92.66H84.32C84.32 85.4405 85.5597 79.1637 87.9413 73.7509L80.6187 70.529ZM76.32 92.66C76.32 98.9138 77.4931 104.509 80.0249 109.292L87.0952 105.548C85.3069 102.171 84.32 97.9262 84.32 92.66H76.32ZM80.168 109.54C82.9843 114.046 86.9185 117.531 91.8512 119.998L95.4289 112.842C91.7215 110.989 88.9357 108.474 86.952 105.3L80.168 109.54ZM91.8512 119.998C96.883 122.514 102.941 123.66 109.84 123.66V115.66C103.779 115.66 99.037 114.646 95.4289 112.842L91.8512 119.998Z" fill="url(#paint0_linear_1021_97)" mask="url(#path-1-outside-1_1021_97)"/>
<defs>
<linearGradient id="paint0_linear_1021_97" x1="-14" y1="132.5" x2="227" y2="132.5" gradientUnits="userSpaceOnUse">
<stop stop-color="#6A11CB"/>
<stop offset="1" stop-color="#2575FC"/>
</linearGradient>
</defs>
</svg>
