<svg width="224" height="253" viewBox="0 0 224 253" fill="none" xmlns="http://www.w3.org/2000/svg">
<mask id="path-1-outside-1_1021_40" maskUnits="userSpaceOnUse" x="-4" y="-3.5" width="233" height="261" fill="black">
<rect fill="white" x="-4" y="-3.5" width="233" height="261"/>
<path d="M100.44 252.82C78.84 252.82 60.6 249.94 45.72 244.18C30.84 238.42 19.56 230.38 11.88 220.06C4.2 209.5 0.36 197.26 0.36 183.34C0.36 180.94 0.48 178.54 0.72 176.14C0.96 173.5 1.32 170.98 1.8 168.58H65.16C64.92 169.78 64.68 170.98 64.44 172.18C64.44 173.14 64.44 174.22 64.44 175.42C64.44 180.7 65.64 185.5 68.04 189.82C70.44 193.9 74.04 197.14 78.84 199.54C83.88 201.94 90.12 203.14 97.56 203.14C104.52 203.14 110.76 202.06 116.28 199.9C121.8 197.5 126.48 194.26 130.32 190.18C134.4 185.86 137.52 181.06 139.68 175.78C141.84 170.26 142.92 164.5 142.92 158.5C142.92 149.86 140.16 142.9 134.64 137.62C129.36 132.1 121.44 129.34 110.88 129.34C102.96 129.34 96.48 130.54 91.44 132.94C86.4 135.34 82.44 137.98 79.56 140.86C76.92 143.5 74.76 145.66 73.08 147.34L17.64 139.42L52.56 0.819992H223.92L213.12 62.02H95.4L85.68 99.46C88.08 97.54 91.44 95.38 95.76 92.98C100.08 90.34 105.6 88.06 112.32 86.14C119.28 84.22 127.68 83.26 137.52 83.26C153.12 83.26 166.56 86.02 177.84 91.54C189.36 97.06 198.24 104.98 204.48 115.3C210.96 125.38 214.2 137.5 214.2 151.66C214.2 172.06 209.16 189.82 199.08 204.94C189 220.06 175.32 231.82 158.04 240.22C141 248.62 121.8 252.82 100.44 252.82Z"/>
</mask>
<path d="M45.72 244.18L44.276 247.91L44.276 247.91L45.72 244.18ZM11.88 220.06L8.64506 222.413L8.65797 222.43L8.67107 222.448L11.88 220.06ZM0.72 176.14L4.70015 176.538L4.70194 176.52L4.70357 176.502L0.72 176.14ZM1.8 168.58V164.58H-1.47922L-2.12232 167.796L1.8 168.58ZM65.16 168.58L69.0823 169.364L70.0392 164.58H65.16V168.58ZM64.44 172.18L60.5177 171.396L60.44 171.784V172.18H64.44ZM68.04 189.82L64.5434 191.763L64.5673 191.806L64.5923 191.848L68.04 189.82ZM78.84 199.54L77.0512 203.118L77.0855 203.135L77.1203 203.151L78.84 199.54ZM116.28 199.9L117.738 203.625L117.807 203.598L117.875 203.568L116.28 199.9ZM130.32 190.18L127.412 187.434L127.407 187.439L130.32 190.18ZM139.68 175.78L143.382 177.295L143.394 177.266L143.405 177.238L139.68 175.78ZM134.64 137.62L131.749 140.385L131.811 140.449L131.875 140.511L134.64 137.62ZM91.44 132.94L93.1597 136.551L93.1597 136.551L91.44 132.94ZM79.56 140.86L76.7316 138.032L76.7316 138.032L79.56 140.86ZM73.08 147.34L72.5143 151.3L74.4942 151.583L75.9084 150.168L73.08 147.34ZM17.64 139.42L13.7612 138.443L12.6757 142.751L17.0743 143.38L17.64 139.42ZM52.56 0.819992V-3.18001H49.4428L48.6812 -0.157261L52.56 0.819992ZM223.92 0.819992L227.859 1.51513L228.688 -3.18001H223.92V0.819992ZM213.12 62.02V66.02H216.476L217.059 62.7151L213.12 62.02ZM95.4 62.02V58.02H92.3059L91.5284 61.0149L95.4 62.02ZM85.68 99.46L81.8084 98.4548L78.7856 110.098L88.1788 102.583L85.68 99.46ZM95.76 92.98L97.7026 96.4766L97.7751 96.4364L97.8458 96.3931L95.76 92.98ZM112.32 86.14L111.256 82.284L111.239 82.2889L111.221 82.2939L112.32 86.14ZM177.84 91.54L176.082 95.1329L176.097 95.1401L176.112 95.1473L177.84 91.54ZM204.48 115.3L201.057 117.37L201.086 117.417L201.115 117.463L204.48 115.3ZM199.08 204.94L202.408 207.159L202.408 207.159L199.08 204.94ZM158.04 240.22L156.291 236.623L156.281 236.627L156.271 236.632L158.04 240.22ZM100.44 248.82C79.1702 248.82 61.4521 245.981 47.164 240.45L44.276 247.91C59.7479 253.899 78.5098 256.82 100.44 256.82V248.82ZM47.164 240.45C32.8183 234.897 22.2218 227.257 15.0889 217.672L8.67107 222.448C16.8982 233.503 28.8617 241.943 44.276 247.91L47.164 240.45ZM15.1149 217.707C7.96591 207.877 4.36 196.474 4.36 183.34H-3.64C-3.64 198.046 0.434086 211.123 8.64506 222.413L15.1149 217.707ZM4.36 183.34C4.36 181.074 4.47331 178.806 4.70015 176.538L-3.26015 175.742C-3.51331 178.274 -3.64 180.806 -3.64 183.34H4.36ZM4.70357 176.502C4.93174 173.992 5.27243 171.614 5.72232 169.364L-2.12232 167.796C-2.63243 170.346 -3.01174 173.008 -3.26357 175.778L4.70357 176.502ZM1.8 172.58H65.16V164.58H1.8V172.58ZM61.2377 167.796C60.9977 168.996 60.7577 170.196 60.5177 171.396L68.3623 172.964C68.6023 171.764 68.8423 170.564 69.0823 169.364L61.2377 167.796ZM60.44 172.18C60.44 172.182 60.44 172.184 60.44 172.186C60.44 172.187 60.44 172.189 60.44 172.191C60.44 172.193 60.44 172.195 60.44 172.197C60.44 172.199 60.44 172.201 60.44 172.203C60.44 172.204 60.44 172.206 60.44 172.208C60.44 172.21 60.44 172.212 60.44 172.214C60.44 172.216 60.44 172.218 60.44 172.219C60.44 172.221 60.44 172.223 60.44 172.225C60.44 172.227 60.44 172.229 60.44 172.231C60.44 172.233 60.44 172.234 60.44 172.236C60.44 172.238 60.44 172.24 60.44 172.242C60.44 172.244 60.44 172.246 60.44 172.248C60.44 172.25 60.44 172.251 60.44 172.253C60.44 172.255 60.44 172.257 60.44 172.259C60.44 172.261 60.44 172.263 60.44 172.265C60.44 172.267 60.44 172.268 60.44 172.27C60.44 172.272 60.44 172.274 60.44 172.276C60.44 172.278 60.44 172.28 60.44 172.282C60.44 172.284 60.44 172.285 60.44 172.287C60.44 172.289 60.44 172.291 60.44 172.293C60.44 172.295 60.44 172.297 60.44 172.299C60.44 172.301 60.44 172.303 60.44 172.304C60.44 172.306 60.44 172.308 60.44 172.31C60.44 172.312 60.44 172.314 60.44 172.316C60.44 172.318 60.44 172.32 60.44 172.321C60.44 172.323 60.44 172.325 60.44 172.327C60.44 172.329 60.44 172.331 60.44 172.333C60.44 172.335 60.44 172.337 60.44 172.339C60.44 172.34 60.44 172.342 60.44 172.344C60.44 172.346 60.44 172.348 60.44 172.35C60.44 172.352 60.44 172.354 60.44 172.356C60.44 172.358 60.44 172.359 60.44 172.361C60.44 172.363 60.44 172.365 60.44 172.367C60.44 172.369 60.44 172.371 60.44 172.373C60.44 172.375 60.44 172.377 60.44 172.379C60.44 172.38 60.44 172.382 60.44 172.384C60.44 172.386 60.44 172.388 60.44 172.39C60.44 172.392 60.44 172.394 60.44 172.396C60.44 172.398 60.44 172.4 60.44 172.401C60.44 172.403 60.44 172.405 60.44 172.407C60.44 172.409 60.44 172.411 60.44 172.413C60.44 172.415 60.44 172.417 60.44 172.419C60.44 172.421 60.44 172.422 60.44 172.424C60.44 172.426 60.44 172.428 60.44 172.43C60.44 172.432 60.44 172.434 60.44 172.436C60.44 172.438 60.44 172.44 60.44 172.442C60.44 172.444 60.44 172.445 60.44 172.447C60.44 172.449 60.44 172.451 60.44 172.453C60.44 172.455 60.44 172.457 60.44 172.459C60.44 172.461 60.44 172.463 60.44 172.465C60.44 172.467 60.44 172.469 60.44 172.47C60.44 172.472 60.44 172.474 60.44 172.476C60.44 172.478 60.44 172.48 60.44 172.482C60.44 172.484 60.44 172.486 60.44 172.488C60.44 172.49 60.44 172.492 60.44 172.494C60.44 172.495 60.44 172.497 60.44 172.499C60.44 172.501 60.44 172.503 60.44 172.505C60.44 172.507 60.44 172.509 60.44 172.511C60.44 172.513 60.44 172.515 60.44 172.517C60.44 172.519 60.44 172.521 60.44 172.522C60.44 172.524 60.44 172.526 60.44 172.528C60.44 172.53 60.44 172.532 60.44 172.534C60.44 172.536 60.44 172.538 60.44 172.54C60.44 172.542 60.44 172.544 60.44 172.546C60.44 172.548 60.44 172.549 60.44 172.551C60.44 172.553 60.44 172.555 60.44 172.557C60.44 172.559 60.44 172.561 60.44 172.563C60.44 172.565 60.44 172.567 60.44 172.569C60.44 172.571 60.44 172.573 60.44 172.575C60.44 172.577 60.44 172.579 60.44 172.58C60.44 172.582 60.44 172.584 60.44 172.586C60.44 172.588 60.44 172.59 60.44 172.592C60.44 172.594 60.44 172.596 60.44 172.598C60.44 172.6 60.44 172.602 60.44 172.604C60.44 172.606 60.44 172.608 60.44 172.61C60.44 172.612 60.44 172.613 60.44 172.615C60.44 172.617 60.44 172.619 60.44 172.621C60.44 172.623 60.44 172.625 60.44 172.627C60.44 172.629 60.44 172.631 60.44 172.633C60.44 172.635 60.44 172.637 60.44 172.639C60.44 172.641 60.44 172.643 60.44 172.645C60.44 172.647 60.44 172.649 60.44 172.65C60.44 172.652 60.44 172.654 60.44 172.656C60.44 172.658 60.44 172.66 60.44 172.662C60.44 172.664 60.44 172.666 60.44 172.668C60.44 172.67 60.44 172.672 60.44 172.674C60.44 172.676 60.44 172.678 60.44 172.68C60.44 172.682 60.44 172.684 60.44 172.686C60.44 172.688 60.44 172.69 60.44 172.691C60.44 172.693 60.44 172.695 60.44 172.697C60.44 172.699 60.44 172.701 60.44 172.703C60.44 172.705 60.44 172.707 60.44 172.709C60.44 172.711 60.44 172.713 60.44 172.715C60.44 172.717 60.44 172.719 60.44 172.721C60.44 172.723 60.44 172.725 60.44 172.727C60.44 172.729 60.44 172.731 60.44 172.733C60.44 172.735 60.44 172.737 60.44 172.739C60.44 172.741 60.44 172.742 60.44 172.744C60.44 172.746 60.44 172.748 60.44 172.75C60.44 172.752 60.44 172.754 60.44 172.756C60.44 172.758 60.44 172.76 60.44 172.762C60.44 172.764 60.44 172.766 60.44 172.768C60.44 172.77 60.44 172.772 60.44 172.774C60.44 172.776 60.44 172.778 60.44 172.78C60.44 172.782 60.44 172.784 60.44 172.786C60.44 172.788 60.44 172.79 60.44 172.792C60.44 172.794 60.44 172.796 60.44 172.798C60.44 172.8 60.44 172.802 60.44 172.804C60.44 172.805 60.44 172.807 60.44 172.809C60.44 172.811 60.44 172.813 60.44 172.815C60.44 172.817 60.44 172.819 60.44 172.821C60.44 172.823 60.44 172.825 60.44 172.827C60.44 172.829 60.44 172.831 60.44 172.833C60.44 172.835 60.44 172.837 60.44 172.839C60.44 172.841 60.44 172.843 60.44 172.845C60.44 172.847 60.44 172.849 60.44 172.851C60.44 172.853 60.44 172.855 60.44 172.857C60.44 172.859 60.44 172.861 60.44 172.863C60.44 172.865 60.44 172.867 60.44 172.869C60.44 172.871 60.44 172.873 60.44 172.875C60.44 172.877 60.44 172.879 60.44 172.881C60.44 172.883 60.44 172.885 60.44 172.887C60.44 172.889 60.44 172.891 60.44 172.893C60.44 172.895 60.44 172.897 60.44 172.899C60.44 172.901 60.44 172.903 60.44 172.905C60.44 172.907 60.44 172.909 60.44 172.911C60.44 172.913 60.44 172.915 60.44 172.917C60.44 172.919 60.44 172.921 60.44 172.922C60.44 172.924 60.44 172.926 60.44 172.928C60.44 172.93 60.44 172.932 60.44 172.934C60.44 172.936 60.44 172.938 60.44 172.94C60.44 172.942 60.44 172.944 60.44 172.946C60.44 172.948 60.44 172.95 60.44 172.952C60.44 172.954 60.44 172.956 60.44 172.958C60.44 172.96 60.44 172.962 60.44 172.964C60.44 172.966 60.44 172.968 60.44 172.97C60.44 172.972 60.44 172.974 60.44 172.976C60.44 172.978 60.44 172.98 60.44 172.982C60.44 172.984 60.44 172.986 60.44 172.988C60.44 172.99 60.44 172.992 60.44 172.994C60.44 172.996 60.44 172.998 60.44 173C60.44 173.002 60.44 173.004 60.44 173.006C60.44 173.008 60.44 173.01 60.44 173.012C60.44 173.014 60.44 173.016 60.44 173.018C60.44 173.02 60.44 173.022 60.44 173.024C60.44 173.027 60.44 173.029 60.44 173.031C60.44 173.033 60.44 173.035 60.44 173.037C60.44 173.039 60.44 173.041 60.44 173.043C60.44 173.045 60.44 173.047 60.44 173.049C60.44 173.051 60.44 173.053 60.44 173.055C60.44 173.057 60.44 173.059 60.44 173.061C60.44 173.063 60.44 173.065 60.44 173.067C60.44 173.069 60.44 173.071 60.44 173.073C60.44 173.075 60.44 173.077 60.44 173.079C60.44 173.081 60.44 173.083 60.44 173.085C60.44 173.087 60.44 173.089 60.44 173.091C60.44 173.093 60.44 173.095 60.44 173.097C60.44 173.099 60.44 173.101 60.44 173.103C60.44 173.105 60.44 173.107 60.44 173.109C60.44 173.111 60.44 173.113 60.44 173.115C60.44 173.117 60.44 173.119 60.44 173.121C60.44 173.123 60.44 173.125 60.44 173.127C60.44 173.129 60.44 173.131 60.44 173.133C60.44 173.135 60.44 173.137 60.44 173.139C60.44 173.141 60.44 173.143 60.44 173.146C60.44 173.148 60.44 173.15 60.44 173.152C60.44 173.154 60.44 173.156 60.44 173.158C60.44 173.16 60.44 173.162 60.44 173.164C60.44 173.166 60.44 173.168 60.44 173.17C60.44 173.172 60.44 173.174 60.44 173.176C60.44 173.178 60.44 173.18 60.44 173.182C60.44 173.184 60.44 173.186 60.44 173.188C60.44 173.19 60.44 173.192 60.44 173.194C60.44 173.196 60.44 173.198 60.44 173.2C60.44 173.202 60.44 173.204 60.44 173.206C60.44 173.208 60.44 173.21 60.44 173.213C60.44 173.215 60.44 173.217 60.44 173.219C60.44 173.221 60.44 173.223 60.44 173.225C60.44 173.227 60.44 173.229 60.44 173.231C60.44 173.233 60.44 173.235 60.44 173.237C60.44 173.239 60.44 173.241 60.44 173.243C60.44 173.245 60.44 173.247 60.44 173.249C60.44 173.251 60.44 173.253 60.44 173.255C60.44 173.257 60.44 173.259 60.44 173.261C60.44 173.264 60.44 173.266 60.44 173.268C60.44 173.27 60.44 173.272 60.44 173.274C60.44 173.276 60.44 173.278 60.44 173.28C60.44 173.282 60.44 173.284 60.44 173.286C60.44 173.288 60.44 173.29 60.44 173.292C60.44 173.294 60.44 173.296 60.44 173.298C60.44 173.3 60.44 173.302 60.44 173.304C60.44 173.307 60.44 173.309 60.44 173.311C60.44 173.313 60.44 173.315 60.44 173.317C60.44 173.319 60.44 173.321 60.44 173.323C60.44 173.325 60.44 173.327 60.44 173.329C60.44 173.331 60.44 173.333 60.44 173.335C60.44 173.337 60.44 173.339 60.44 173.341C60.44 173.343 60.44 173.346 60.44 173.348C60.44 173.35 60.44 173.352 60.44 173.354C60.44 173.356 60.44 173.358 60.44 173.36C60.44 173.362 60.44 173.364 60.44 173.366C60.44 173.368 60.44 173.37 60.44 173.372C60.44 173.374 60.44 173.376 60.44 173.378C60.44 173.381 60.44 173.383 60.44 173.385C60.44 173.387 60.44 173.389 60.44 173.391C60.44 173.393 60.44 173.395 60.44 173.397C60.44 173.399 60.44 173.401 60.44 173.403C60.44 173.405 60.44 173.407 60.44 173.409C60.44 173.411 60.44 173.414 60.44 173.416C60.44 173.418 60.44 173.42 60.44 173.422C60.44 173.424 60.44 173.426 60.44 173.428C60.44 173.43 60.44 173.432 60.44 173.434C60.44 173.436 60.44 173.438 60.44 173.44C60.44 173.442 60.44 173.445 60.44 173.447C60.44 173.449 60.44 173.451 60.44 173.453C60.44 173.455 60.44 173.457 60.44 173.459C60.44 173.461 60.44 173.463 60.44 173.465C60.44 173.467 60.44 173.469 60.44 173.472C60.44 173.474 60.44 173.476 60.44 173.478C60.44 173.48 60.44 173.482 60.44 173.484C60.44 173.486 60.44 173.488 60.44 173.49C60.44 173.492 60.44 173.494 60.44 173.496C60.44 173.499 60.44 173.501 60.44 173.503C60.44 173.505 60.44 173.507 60.44 173.509C60.44 173.511 60.44 173.513 60.44 173.515C60.44 173.517 60.44 173.519 60.44 173.521C60.44 173.523 60.44 173.526 60.44 173.528C60.44 173.53 60.44 173.532 60.44 173.534C60.44 173.536 60.44 173.538 60.44 173.54C60.44 173.542 60.44 173.544 60.44 173.546C60.44 173.548 60.44 173.551 60.44 173.553C60.44 173.555 60.44 173.557 60.44 173.559C60.44 173.561 60.44 173.563 60.44 173.565C60.44 173.567 60.44 173.569 60.44 173.571C60.44 173.574 60.44 173.576 60.44 173.578C60.44 173.58 60.44 173.582 60.44 173.584C60.44 173.586 60.44 173.588 60.44 173.59C60.44 173.592 60.44 173.594 60.44 173.597C60.44 173.599 60.44 173.601 60.44 173.603C60.44 173.605 60.44 173.607 60.44 173.609C60.44 173.611 60.44 173.613 60.44 173.615C60.44 173.617 60.44 173.62 60.44 173.622C60.44 173.624 60.44 173.626 60.44 173.628C60.44 173.63 60.44 173.632 60.44 173.634C60.44 173.636 60.44 173.638 60.44 173.641C60.44 173.643 60.44 173.645 60.44 173.647C60.44 173.649 60.44 173.651 60.44 173.653C60.44 173.655 60.44 173.657 60.44 173.659C60.44 173.662 60.44 173.664 60.44 173.666C60.44 173.668 60.44 173.67 60.44 173.672C60.44 173.674 60.44 173.676 60.44 173.678C60.44 173.68 60.44 173.683 60.44 173.685C60.44 173.687 60.44 173.689 60.44 173.691C60.44 173.693 60.44 173.695 60.44 173.697C60.44 173.699 60.44 173.702 60.44 173.704C60.44 173.706 60.44 173.708 60.44 173.71C60.44 173.712 60.44 173.714 60.44 173.716C60.44 173.718 60.44 173.721 60.44 173.723C60.44 173.725 60.44 173.727 60.44 173.729C60.44 173.731 60.44 173.733 60.44 173.735C60.44 173.737 60.44 173.74 60.44 173.742C60.44 173.744 60.44 173.746 60.44 173.748C60.44 173.75 60.44 173.752 60.44 173.754C60.44 173.756 60.44 173.759 60.44 173.761C60.44 173.763 60.44 173.765 60.44 173.767C60.44 173.769 60.44 173.771 60.44 173.773C60.44 173.776 60.44 173.778 60.44 173.78C60.44 173.782 60.44 173.784 60.44 173.786C60.44 173.788 60.44 173.79 60.44 173.792C60.44 173.795 60.44 173.797 60.44 173.799C60.44 173.801 60.44 173.803 60.44 173.805C60.44 173.807 60.44 173.809 60.44 173.812C60.44 173.814 60.44 173.816 60.44 173.818C60.44 173.82 60.44 173.822 60.44 173.824C60.44 173.826 60.44 173.829 60.44 173.831C60.44 173.833 60.44 173.835 60.44 173.837C60.44 173.839 60.44 173.841 60.44 173.843C60.44 173.846 60.44 173.848 60.44 173.85C60.44 173.852 60.44 173.854 60.44 173.856C60.44 173.858 60.44 173.861 60.44 173.863C60.44 173.865 60.44 173.867 60.44 173.869C60.44 173.871 60.44 173.873 60.44 173.875C60.44 173.878 60.44 173.88 60.44 173.882C60.44 173.884 60.44 173.886 60.44 173.888C60.44 173.89 60.44 173.893 60.44 173.895C60.44 173.897 60.44 173.899 60.44 173.901C60.44 173.903 60.44 173.905 60.44 173.907C60.44 173.91 60.44 173.912 60.44 173.914C60.44 173.916 60.44 173.918 60.44 173.92C60.44 173.922 60.44 173.925 60.44 173.927C60.44 173.929 60.44 173.931 60.44 173.933C60.44 173.935 60.44 173.937 60.44 173.94C60.44 173.942 60.44 173.944 60.44 173.946C60.44 173.948 60.44 173.95 60.44 173.952C60.44 173.955 60.44 173.957 60.44 173.959C60.44 173.961 60.44 173.963 60.44 173.965C60.44 173.967 60.44 173.97 60.44 173.972C60.44 173.974 60.44 173.976 60.44 173.978C60.44 173.98 60.44 173.982 60.44 173.985C60.44 173.987 60.44 173.989 60.44 173.991C60.44 173.993 60.44 173.995 60.44 173.998C60.44 174 60.44 174.002 60.44 174.004C60.44 174.006 60.44 174.008 60.44 174.01C60.44 174.013 60.44 174.015 60.44 174.017C60.44 174.019 60.44 174.021 60.44 174.023C60.44 174.026 60.44 174.028 60.44 174.03C60.44 174.032 60.44 174.034 60.44 174.036C60.44 174.038 60.44 174.041 60.44 174.043C60.44 174.045 60.44 174.047 60.44 174.049C60.44 174.051 60.44 174.054 60.44 174.056C60.44 174.058 60.44 174.06 60.44 174.062C60.44 174.064 60.44 174.067 60.44 174.069C60.44 174.071 60.44 174.073 60.44 174.075C60.44 174.077 60.44 174.079 60.44 174.082C60.44 174.084 60.44 174.086 60.44 174.088C60.44 174.09 60.44 174.092 60.44 174.095C60.44 174.097 60.44 174.099 60.44 174.101C60.44 174.103 60.44 174.105 60.44 174.108C60.44 174.11 60.44 174.112 60.44 174.114C60.44 174.116 60.44 174.118 60.44 174.121C60.44 174.123 60.44 174.125 60.44 174.127C60.44 174.129 60.44 174.131 60.44 174.134C60.44 174.136 60.44 174.138 60.44 174.14C60.44 174.142 60.44 174.144 60.44 174.147C60.44 174.149 60.44 174.151 60.44 174.153C60.44 174.155 60.44 174.158 60.44 174.16C60.44 174.162 60.44 174.164 60.44 174.166C60.44 174.168 60.44 174.171 60.44 174.173C60.44 174.175 60.44 174.177 60.44 174.179C60.44 174.181 60.44 174.184 60.44 174.186C60.44 174.188 60.44 174.19 60.44 174.192C60.44 174.195 60.44 174.197 60.44 174.199C60.44 174.201 60.44 174.203 60.44 174.205C60.44 174.208 60.44 174.21 60.44 174.212C60.44 174.214 60.44 174.216 60.44 174.218C60.44 174.221 60.44 174.223 60.44 174.225C60.44 174.227 60.44 174.229 60.44 174.232C60.44 174.234 60.44 174.236 60.44 174.238C60.44 174.24 60.44 174.243 60.44 174.245C60.44 174.247 60.44 174.249 60.44 174.251C60.44 174.253 60.44 174.256 60.44 174.258C60.44 174.26 60.44 174.262 60.44 174.264C60.44 174.267 60.44 174.269 60.44 174.271C60.44 174.273 60.44 174.275 60.44 174.278C60.44 174.28 60.44 174.282 60.44 174.284C60.44 174.286 60.44 174.288 60.44 174.291C60.44 174.293 60.44 174.295 60.44 174.297C60.44 174.299 60.44 174.302 60.44 174.304C60.44 174.306 60.44 174.308 60.44 174.31C60.44 174.313 60.44 174.315 60.44 174.317C60.44 174.319 60.44 174.321 60.44 174.324C60.44 174.326 60.44 174.328 60.44 174.33C60.44 174.332 60.44 174.335 60.44 174.337C60.44 174.339 60.44 174.341 60.44 174.343C60.44 174.346 60.44 174.348 60.44 174.35C60.44 174.352 60.44 174.354 60.44 174.357C60.44 174.359 60.44 174.361 60.44 174.363C60.44 174.365 60.44 174.368 60.44 174.37C60.44 174.372 60.44 174.374 60.44 174.376C60.44 174.379 60.44 174.381 60.44 174.383C60.44 174.385 60.44 174.387 60.44 174.39C60.44 174.392 60.44 174.394 60.44 174.396C60.44 174.398 60.44 174.401 60.44 174.403C60.44 174.405 60.44 174.407 60.44 174.409C60.44 174.412 60.44 174.414 60.44 174.416C60.44 174.418 60.44 174.42 60.44 174.423C60.44 174.425 60.44 174.427 60.44 174.429C60.44 174.432 60.44 174.434 60.44 174.436C60.44 174.438 60.44 174.44 60.44 174.443C60.44 174.445 60.44 174.447 60.44 174.449C60.44 174.451 60.44 174.454 60.44 174.456C60.44 174.458 60.44 174.46 60.44 174.463C60.44 174.465 60.44 174.467 60.44 174.469C60.44 174.471 60.44 174.474 60.44 174.476C60.44 174.478 60.44 174.48 60.44 174.482C60.44 174.485 60.44 174.487 60.44 174.489C60.44 174.491 60.44 174.494 60.44 174.496C60.44 174.498 60.44 174.5 60.44 174.502C60.44 174.505 60.44 174.507 60.44 174.509C60.44 174.511 60.44 174.514 60.44 174.516C60.44 174.518 60.44 174.52 60.44 174.522C60.44 174.525 60.44 174.527 60.44 174.529C60.44 174.531 60.44 174.534 60.44 174.536C60.44 174.538 60.44 174.54 60.44 174.542C60.44 174.545 60.44 174.547 60.44 174.549C60.44 174.551 60.44 174.554 60.44 174.556C60.44 174.558 60.44 174.56 60.44 174.563C60.44 174.565 60.44 174.567 60.44 174.569C60.44 174.571 60.44 174.574 60.44 174.576C60.44 174.578 60.44 174.58 60.44 174.583C60.44 174.585 60.44 174.587 60.44 174.589C60.44 174.592 60.44 174.594 60.44 174.596C60.44 174.598 60.44 174.6 60.44 174.603C60.44 174.605 60.44 174.607 60.44 174.609C60.44 174.612 60.44 174.614 60.44 174.616C60.44 174.618 60.44 174.621 60.44 174.623C60.44 174.625 60.44 174.627 60.44 174.63C60.44 174.632 60.44 174.634 60.44 174.636C60.44 174.639 60.44 174.641 60.44 174.643C60.44 174.645 60.44 174.647 60.44 174.65C60.44 174.652 60.44 174.654 60.44 174.656C60.44 174.659 60.44 174.661 60.44 174.663C60.44 174.665 60.44 174.668 60.44 174.67C60.44 174.672 60.44 174.674 60.44 174.677C60.44 174.679 60.44 174.681 60.44 174.683C60.44 174.686 60.44 174.688 60.44 174.69C60.44 174.692 60.44 174.695 60.44 174.697C60.44 174.699 60.44 174.701 60.44 174.704C60.44 174.706 60.44 174.708 60.44 174.71C60.44 174.713 60.44 174.715 60.44 174.717C60.44 174.719 60.44 174.722 60.44 174.724C60.44 174.726 60.44 174.728 60.44 174.731C60.44 174.733 60.44 174.735 60.44 174.737C60.44 174.74 60.44 174.742 60.44 174.744C60.44 174.746 60.44 174.749 60.44 174.751C60.44 174.753 60.44 174.755 60.44 174.758C60.44 174.76 60.44 174.762 60.44 174.764C60.44 174.767 60.44 174.769 60.44 174.771C60.44 174.773 60.44 174.776 60.44 174.778C60.44 174.78 60.44 174.782 60.44 174.785C60.44 174.787 60.44 174.789 60.44 174.792C60.44 174.794 60.44 174.796 60.44 174.798C60.44 174.801 60.44 174.803 60.44 174.805C60.44 174.807 60.44 174.81 60.44 174.812C60.44 174.814 60.44 174.816 60.44 174.819C60.44 174.821 60.44 174.823 60.44 174.825C60.44 174.828 60.44 174.83 60.44 174.832C60.44 174.835 60.44 174.837 60.44 174.839C60.44 174.841 60.44 174.844 60.44 174.846C60.44 174.848 60.44 174.85 60.44 174.853C60.44 174.855 60.44 174.857 60.44 174.859C60.44 174.862 60.44 174.864 60.44 174.866C60.44 174.869 60.44 174.871 60.44 174.873C60.44 174.875 60.44 174.878 60.44 174.88C60.44 174.882 60.44 174.884 60.44 174.887C60.44 174.889 60.44 174.891 60.44 174.894C60.44 174.896 60.44 174.898 60.44 174.9C60.44 174.903 60.44 174.905 60.44 174.907C60.44 174.909 60.44 174.912 60.44 174.914C60.44 174.916 60.44 174.919 60.44 174.921C60.44 174.923 60.44 174.925 60.44 174.928C60.44 174.93 60.44 174.932 60.44 174.935C60.44 174.937 60.44 174.939 60.44 174.941C60.44 174.944 60.44 174.946 60.44 174.948C60.44 174.951 60.44 174.953 60.44 174.955C60.44 174.957 60.44 174.96 60.44 174.962C60.44 174.964 60.44 174.966 60.44 174.969C60.44 174.971 60.44 174.973 60.44 174.976C60.44 174.978 60.44 174.98 60.44 174.982C60.44 174.985 60.44 174.987 60.44 174.989C60.44 174.992 60.44 174.994 60.44 174.996C60.44 174.998 60.44 175.001 60.44 175.003C60.44 175.005 60.44 175.008 60.44 175.01C60.44 175.012 60.44 175.015 60.44 175.017C60.44 175.019 60.44 175.021 60.44 175.024C60.44 175.026 60.44 175.028 60.44 175.031C60.44 175.033 60.44 175.035 60.44 175.037C60.44 175.04 60.44 175.042 60.44 175.044C60.44 175.047 60.44 175.049 60.44 175.051C60.44 175.053 60.44 175.056 60.44 175.058C60.44 175.06 60.44 175.063 60.44 175.065C60.44 175.067 60.44 175.07 60.44 175.072C60.44 175.074 60.44 175.076 60.44 175.079C60.44 175.081 60.44 175.083 60.44 175.086C60.44 175.088 60.44 175.09 60.44 175.093C60.44 175.095 60.44 175.097 60.44 175.099C60.44 175.102 60.44 175.104 60.44 175.106C60.44 175.109 60.44 175.111 60.44 175.113C60.44 175.116 60.44 175.118 60.44 175.12C60.44 175.122 60.44 175.125 60.44 175.127C60.44 175.129 60.44 175.132 60.44 175.134C60.44 175.136 60.44 175.139 60.44 175.141C60.44 175.143 60.44 175.146 60.44 175.148C60.44 175.15 60.44 175.152 60.44 175.155C60.44 175.157 60.44 175.159 60.44 175.162C60.44 175.164 60.44 175.166 60.44 175.169C60.44 175.171 60.44 175.173 60.44 175.176C60.44 175.178 60.44 175.18 60.44 175.183C60.44 175.185 60.44 175.187 60.44 175.189C60.44 175.192 60.44 175.194 60.44 175.196C60.44 175.199 60.44 175.201 60.44 175.203C60.44 175.206 60.44 175.208 60.44 175.21C60.44 175.213 60.44 175.215 60.44 175.217C60.44 175.22 60.44 175.222 60.44 175.224C60.44 175.227 60.44 175.229 60.44 175.231C60.44 175.233 60.44 175.236 60.44 175.238C60.44 175.24 60.44 175.243 60.44 175.245C60.44 175.247 60.44 175.25 60.44 175.252C60.44 175.254 60.44 175.257 60.44 175.259C60.44 175.261 60.44 175.264 60.44 175.266C60.44 175.268 60.44 175.271 60.44 175.273C60.44 175.275 60.44 175.278 60.44 175.28C60.44 175.282 60.44 175.285 60.44 175.287C60.44 175.289 60.44 175.292 60.44 175.294C60.44 175.296 60.44 175.299 60.44 175.301C60.44 175.303 60.44 175.306 60.44 175.308C60.44 175.31 60.44 175.313 60.44 175.315C60.44 175.317 60.44 175.319 60.44 175.322C60.44 175.324 60.44 175.326 60.44 175.329C60.44 175.331 60.44 175.333 60.44 175.336C60.44 175.338 60.44 175.34 60.44 175.343C60.44 175.345 60.44 175.347 60.44 175.35C60.44 175.352 60.44 175.354 60.44 175.357C60.44 175.359 60.44 175.361 60.44 175.364C60.44 175.366 60.44 175.369 60.44 175.371C60.44 175.373 60.44 175.376 60.44 175.378C60.44 175.38 60.44 175.383 60.44 175.385C60.44 175.387 60.44 175.39 60.44 175.392C60.44 175.394 60.44 175.397 60.44 175.399C60.44 175.401 60.44 175.404 60.44 175.406C60.44 175.408 60.44 175.411 60.44 175.413C60.44 175.415 60.44 175.418 60.44 175.42H68.44C68.44 175.418 68.44 175.415 68.44 175.413C68.44 175.411 68.44 175.408 68.44 175.406C68.44 175.404 68.44 175.401 68.44 175.399C68.44 175.397 68.44 175.394 68.44 175.392C68.44 175.39 68.44 175.387 68.44 175.385C68.44 175.383 68.44 175.38 68.44 175.378C68.44 175.376 68.44 175.373 68.44 175.371C68.44 175.369 68.44 175.366 68.44 175.364C68.44 175.361 68.44 175.359 68.44 175.357C68.44 175.354 68.44 175.352 68.44 175.35C68.44 175.347 68.44 175.345 68.44 175.343C68.44 175.34 68.44 175.338 68.44 175.336C68.44 175.333 68.44 175.331 68.44 175.329C68.44 175.326 68.44 175.324 68.44 175.322C68.44 175.319 68.44 175.317 68.44 175.315C68.44 175.313 68.44 175.31 68.44 175.308C68.44 175.306 68.44 175.303 68.44 175.301C68.44 175.299 68.44 175.296 68.44 175.294C68.44 175.292 68.44 175.289 68.44 175.287C68.44 175.285 68.44 175.282 68.44 175.28C68.44 175.278 68.44 175.275 68.44 175.273C68.44 175.271 68.44 175.268 68.44 175.266C68.44 175.264 68.44 175.261 68.44 175.259C68.44 175.257 68.44 175.254 68.44 175.252C68.44 175.25 68.44 175.247 68.44 175.245C68.44 175.243 68.44 175.24 68.44 175.238C68.44 175.236 68.44 175.233 68.44 175.231C68.44 175.229 68.44 175.227 68.44 175.224C68.44 175.222 68.44 175.22 68.44 175.217C68.44 175.215 68.44 175.213 68.44 175.21C68.44 175.208 68.44 175.206 68.44 175.203C68.44 175.201 68.44 175.199 68.44 175.196C68.44 175.194 68.44 175.192 68.44 175.189C68.44 175.187 68.44 175.185 68.44 175.183C68.44 175.18 68.44 175.178 68.44 175.176C68.44 175.173 68.44 175.171 68.44 175.169C68.44 175.166 68.44 175.164 68.44 175.162C68.44 175.159 68.44 175.157 68.44 175.155C68.44 175.152 68.44 175.15 68.44 175.148C68.44 175.146 68.44 175.143 68.44 175.141C68.44 175.139 68.44 175.136 68.44 175.134C68.44 175.132 68.44 175.129 68.44 175.127C68.44 175.125 68.44 175.122 68.44 175.12C68.44 175.118 68.44 175.116 68.44 175.113C68.44 175.111 68.44 175.109 68.44 175.106C68.44 175.104 68.44 175.102 68.44 175.099C68.44 175.097 68.44 175.095 68.44 175.093C68.44 175.09 68.44 175.088 68.44 175.086C68.44 175.083 68.44 175.081 68.44 175.079C68.44 175.076 68.44 175.074 68.44 175.072C68.44 175.07 68.44 175.067 68.44 175.065C68.44 175.063 68.44 175.06 68.44 175.058C68.44 175.056 68.44 175.053 68.44 175.051C68.44 175.049 68.44 175.047 68.44 175.044C68.44 175.042 68.44 175.04 68.44 175.037C68.44 175.035 68.44 175.033 68.44 175.031C68.44 175.028 68.44 175.026 68.44 175.024C68.44 175.021 68.44 175.019 68.44 175.017C68.44 175.015 68.44 175.012 68.44 175.01C68.44 175.008 68.44 175.005 68.44 175.003C68.44 175.001 68.44 174.998 68.44 174.996C68.44 174.994 68.44 174.992 68.44 174.989C68.44 174.987 68.44 174.985 68.44 174.982C68.44 174.98 68.44 174.978 68.44 174.976C68.44 174.973 68.44 174.971 68.44 174.969C68.44 174.966 68.44 174.964 68.44 174.962C68.44 174.96 68.44 174.957 68.44 174.955C68.44 174.953 68.44 174.951 68.44 174.948C68.44 174.946 68.44 174.944 68.44 174.941C68.44 174.939 68.44 174.937 68.44 174.935C68.44 174.932 68.44 174.93 68.44 174.928C68.44 174.925 68.44 174.923 68.44 174.921C68.44 174.919 68.44 174.916 68.44 174.914C68.44 174.912 68.44 174.909 68.44 174.907C68.44 174.905 68.44 174.903 68.44 174.9C68.44 174.898 68.44 174.896 68.44 174.894C68.44 174.891 68.44 174.889 68.44 174.887C68.44 174.884 68.44 174.882 68.44 174.88C68.44 174.878 68.44 174.875 68.44 174.873C68.44 174.871 68.44 174.869 68.44 174.866C68.44 174.864 68.44 174.862 68.44 174.859C68.44 174.857 68.44 174.855 68.44 174.853C68.44 174.85 68.44 174.848 68.44 174.846C68.44 174.844 68.44 174.841 68.44 174.839C68.44 174.837 68.44 174.835 68.44 174.832C68.44 174.83 68.44 174.828 68.44 174.825C68.44 174.823 68.44 174.821 68.44 174.819C68.44 174.816 68.44 174.814 68.44 174.812C68.44 174.81 68.44 174.807 68.44 174.805C68.44 174.803 68.44 174.801 68.44 174.798C68.44 174.796 68.44 174.794 68.44 174.792C68.44 174.789 68.44 174.787 68.44 174.785C68.44 174.782 68.44 174.78 68.44 174.778C68.44 174.776 68.44 174.773 68.44 174.771C68.44 174.769 68.44 174.767 68.44 174.764C68.44 174.762 68.44 174.76 68.44 174.758C68.44 174.755 68.44 174.753 68.44 174.751C68.44 174.749 68.44 174.746 68.44 174.744C68.44 174.742 68.44 174.74 68.44 174.737C68.44 174.735 68.44 174.733 68.44 174.731C68.44 174.728 68.44 174.726 68.44 174.724C68.44 174.722 68.44 174.719 68.44 174.717C68.44 174.715 68.44 174.713 68.44 174.71C68.44 174.708 68.44 174.706 68.44 174.704C68.44 174.701 68.44 174.699 68.44 174.697C68.44 174.695 68.44 174.692 68.44 174.69C68.44 174.688 68.44 174.686 68.44 174.683C68.44 174.681 68.44 174.679 68.44 174.677C68.44 174.674 68.44 174.672 68.44 174.67C68.44 174.668 68.44 174.665 68.44 174.663C68.44 174.661 68.44 174.659 68.44 174.656C68.44 174.654 68.44 174.652 68.44 174.65C68.44 174.647 68.44 174.645 68.44 174.643C68.44 174.641 68.44 174.639 68.44 174.636C68.44 174.634 68.44 174.632 68.44 174.63C68.44 174.627 68.44 174.625 68.44 174.623C68.44 174.621 68.44 174.618 68.44 174.616C68.44 174.614 68.44 174.612 68.44 174.609C68.44 174.607 68.44 174.605 68.44 174.603C68.44 174.6 68.44 174.598 68.44 174.596C68.44 174.594 68.44 174.592 68.44 174.589C68.44 174.587 68.44 174.585 68.44 174.583C68.44 174.58 68.44 174.578 68.44 174.576C68.44 174.574 68.44 174.571 68.44 174.569C68.44 174.567 68.44 174.565 68.44 174.563C68.44 174.56 68.44 174.558 68.44 174.556C68.44 174.554 68.44 174.551 68.44 174.549C68.44 174.547 68.44 174.545 68.44 174.542C68.44 174.54 68.44 174.538 68.44 174.536C68.44 174.534 68.44 174.531 68.44 174.529C68.44 174.527 68.44 174.525 68.44 174.522C68.44 174.52 68.44 174.518 68.44 174.516C68.44 174.514 68.44 174.511 68.44 174.509C68.44 174.507 68.44 174.505 68.44 174.502C68.44 174.5 68.44 174.498 68.44 174.496C68.44 174.494 68.44 174.491 68.44 174.489C68.44 174.487 68.44 174.485 68.44 174.482C68.44 174.48 68.44 174.478 68.44 174.476C68.44 174.474 68.44 174.471 68.44 174.469C68.44 174.467 68.44 174.465 68.44 174.463C68.44 174.46 68.44 174.458 68.44 174.456C68.44 174.454 68.44 174.451 68.44 174.449C68.44 174.447 68.44 174.445 68.44 174.443C68.44 174.44 68.44 174.438 68.44 174.436C68.44 174.434 68.44 174.432 68.44 174.429C68.44 174.427 68.44 174.425 68.44 174.423C68.44 174.42 68.44 174.418 68.44 174.416C68.44 174.414 68.44 174.412 68.44 174.409C68.44 174.407 68.44 174.405 68.44 174.403C68.44 174.401 68.44 174.398 68.44 174.396C68.44 174.394 68.44 174.392 68.44 174.39C68.44 174.387 68.44 174.385 68.44 174.383C68.44 174.381 68.44 174.379 68.44 174.376C68.44 174.374 68.44 174.372 68.44 174.37C68.44 174.368 68.44 174.365 68.44 174.363C68.44 174.361 68.44 174.359 68.44 174.357C68.44 174.354 68.44 174.352 68.44 174.35C68.44 174.348 68.44 174.346 68.44 174.343C68.44 174.341 68.44 174.339 68.44 174.337C68.44 174.335 68.44 174.332 68.44 174.33C68.44 174.328 68.44 174.326 68.44 174.324C68.44 174.321 68.44 174.319 68.44 174.317C68.44 174.315 68.44 174.313 68.44 174.31C68.44 174.308 68.44 174.306 68.44 174.304C68.44 174.302 68.44 174.299 68.44 174.297C68.44 174.295 68.44 174.293 68.44 174.291C68.44 174.288 68.44 174.286 68.44 174.284C68.44 174.282 68.44 174.28 68.44 174.278C68.44 174.275 68.44 174.273 68.44 174.271C68.44 174.269 68.44 174.267 68.44 174.264C68.44 174.262 68.44 174.26 68.44 174.258C68.44 174.256 68.44 174.253 68.44 174.251C68.44 174.249 68.44 174.247 68.44 174.245C68.44 174.243 68.44 174.24 68.44 174.238C68.44 174.236 68.44 174.234 68.44 174.232C68.44 174.229 68.44 174.227 68.44 174.225C68.44 174.223 68.44 174.221 68.44 174.218C68.44 174.216 68.44 174.214 68.44 174.212C68.44 174.21 68.44 174.208 68.44 174.205C68.44 174.203 68.44 174.201 68.44 174.199C68.44 174.197 68.44 174.195 68.44 174.192C68.44 174.19 68.44 174.188 68.44 174.186C68.44 174.184 68.44 174.181 68.44 174.179C68.44 174.177 68.44 174.175 68.44 174.173C68.44 174.171 68.44 174.168 68.44 174.166C68.44 174.164 68.44 174.162 68.44 174.16C68.44 174.158 68.44 174.155 68.44 174.153C68.44 174.151 68.44 174.149 68.44 174.147C68.44 174.144 68.44 174.142 68.44 174.14C68.44 174.138 68.44 174.136 68.44 174.134C68.44 174.131 68.44 174.129 68.44 174.127C68.44 174.125 68.44 174.123 68.44 174.121C68.44 174.118 68.44 174.116 68.44 174.114C68.44 174.112 68.44 174.11 68.44 174.108C68.44 174.105 68.44 174.103 68.44 174.101C68.44 174.099 68.44 174.097 68.44 174.095C68.44 174.092 68.44 174.09 68.44 174.088C68.44 174.086 68.44 174.084 68.44 174.082C68.44 174.079 68.44 174.077 68.44 174.075C68.44 174.073 68.44 174.071 68.44 174.069C68.44 174.067 68.44 174.064 68.44 174.062C68.44 174.06 68.44 174.058 68.44 174.056C68.44 174.054 68.44 174.051 68.44 174.049C68.44 174.047 68.44 174.045 68.44 174.043C68.44 174.041 68.44 174.038 68.44 174.036C68.44 174.034 68.44 174.032 68.44 174.03C68.44 174.028 68.44 174.026 68.44 174.023C68.44 174.021 68.44 174.019 68.44 174.017C68.44 174.015 68.44 174.013 68.44 174.01C68.44 174.008 68.44 174.006 68.44 174.004C68.44 174.002 68.44 174 68.44 173.998C68.44 173.995 68.44 173.993 68.44 173.991C68.44 173.989 68.44 173.987 68.44 173.985C68.44 173.982 68.44 173.98 68.44 173.978C68.44 173.976 68.44 173.974 68.44 173.972C68.44 173.97 68.44 173.967 68.44 173.965C68.44 173.963 68.44 173.961 68.44 173.959C68.44 173.957 68.44 173.955 68.44 173.952C68.44 173.95 68.44 173.948 68.44 173.946C68.44 173.944 68.44 173.942 68.44 173.94C68.44 173.937 68.44 173.935 68.44 173.933C68.44 173.931 68.44 173.929 68.44 173.927C68.44 173.925 68.44 173.922 68.44 173.92C68.44 173.918 68.44 173.916 68.44 173.914C68.44 173.912 68.44 173.91 68.44 173.907C68.44 173.905 68.44 173.903 68.44 173.901C68.44 173.899 68.44 173.897 68.44 173.895C68.44 173.893 68.44 173.89 68.44 173.888C68.44 173.886 68.44 173.884 68.44 173.882C68.44 173.88 68.44 173.878 68.44 173.875C68.44 173.873 68.44 173.871 68.44 173.869C68.44 173.867 68.44 173.865 68.44 173.863C68.44 173.861 68.44 173.858 68.44 173.856C68.44 173.854 68.44 173.852 68.44 173.85C68.44 173.848 68.44 173.846 68.44 173.843C68.44 173.841 68.44 173.839 68.44 173.837C68.44 173.835 68.44 173.833 68.44 173.831C68.44 173.829 68.44 173.826 68.44 173.824C68.44 173.822 68.44 173.82 68.44 173.818C68.44 173.816 68.44 173.814 68.44 173.812C68.44 173.809 68.44 173.807 68.44 173.805C68.44 173.803 68.44 173.801 68.44 173.799C68.44 173.797 68.44 173.795 68.44 173.792C68.44 173.79 68.44 173.788 68.44 173.786C68.44 173.784 68.44 173.782 68.44 173.78C68.44 173.778 68.44 173.776 68.44 173.773C68.44 173.771 68.44 173.769 68.44 173.767C68.44 173.765 68.44 173.763 68.44 173.761C68.44 173.759 68.44 173.756 68.44 173.754C68.44 173.752 68.44 173.75 68.44 173.748C68.44 173.746 68.44 173.744 68.44 173.742C68.44 173.74 68.44 173.737 68.44 173.735C68.44 173.733 68.44 173.731 68.44 173.729C68.44 173.727 68.44 173.725 68.44 173.723C68.44 173.721 68.44 173.718 68.44 173.716C68.44 173.714 68.44 173.712 68.44 173.71C68.44 173.708 68.44 173.706 68.44 173.704C68.44 173.702 68.44 173.699 68.44 173.697C68.44 173.695 68.44 173.693 68.44 173.691C68.44 173.689 68.44 173.687 68.44 173.685C68.44 173.683 68.44 173.68 68.44 173.678C68.44 173.676 68.44 173.674 68.44 173.672C68.44 173.67 68.44 173.668 68.44 173.666C68.44 173.664 68.44 173.662 68.44 173.659C68.44 173.657 68.44 173.655 68.44 173.653C68.44 173.651 68.44 173.649 68.44 173.647C68.44 173.645 68.44 173.643 68.44 173.641C68.44 173.638 68.44 173.636 68.44 173.634C68.44 173.632 68.44 173.63 68.44 173.628C68.44 173.626 68.44 173.624 68.44 173.622C68.44 173.62 68.44 173.617 68.44 173.615C68.44 173.613 68.44 173.611 68.44 173.609C68.44 173.607 68.44 173.605 68.44 173.603C68.44 173.601 68.44 173.599 68.44 173.597C68.44 173.594 68.44 173.592 68.44 173.59C68.44 173.588 68.44 173.586 68.44 173.584C68.44 173.582 68.44 173.58 68.44 173.578C68.44 173.576 68.44 173.574 68.44 173.571C68.44 173.569 68.44 173.567 68.44 173.565C68.44 173.563 68.44 173.561 68.44 173.559C68.44 173.557 68.44 173.555 68.44 173.553C68.44 173.551 68.44 173.548 68.44 173.546C68.44 173.544 68.44 173.542 68.44 173.54C68.44 173.538 68.44 173.536 68.44 173.534C68.44 173.532 68.44 173.53 68.44 173.528C68.44 173.526 68.44 173.523 68.44 173.521C68.44 173.519 68.44 173.517 68.44 173.515C68.44 173.513 68.44 173.511 68.44 173.509C68.44 173.507 68.44 173.505 68.44 173.503C68.44 173.501 68.44 173.499 68.44 173.496C68.44 173.494 68.44 173.492 68.44 173.49C68.44 173.488 68.44 173.486 68.44 173.484C68.44 173.482 68.44 173.48 68.44 173.478C68.44 173.476 68.44 173.474 68.44 173.472C68.44 173.469 68.44 173.467 68.44 173.465C68.44 173.463 68.44 173.461 68.44 173.459C68.44 173.457 68.44 173.455 68.44 173.453C68.44 173.451 68.44 173.449 68.44 173.447C68.44 173.445 68.44 173.442 68.44 173.44C68.44 173.438 68.44 173.436 68.44 173.434C68.44 173.432 68.44 173.43 68.44 173.428C68.44 173.426 68.44 173.424 68.44 173.422C68.44 173.42 68.44 173.418 68.44 173.416C68.44 173.414 68.44 173.411 68.44 173.409C68.44 173.407 68.44 173.405 68.44 173.403C68.44 173.401 68.44 173.399 68.44 173.397C68.44 173.395 68.44 173.393 68.44 173.391C68.44 173.389 68.44 173.387 68.44 173.385C68.44 173.383 68.44 173.381 68.44 173.378C68.44 173.376 68.44 173.374 68.44 173.372C68.44 173.37 68.44 173.368 68.44 173.366C68.44 173.364 68.44 173.362 68.44 173.36C68.44 173.358 68.44 173.356 68.44 173.354C68.44 173.352 68.44 173.35 68.44 173.348C68.44 173.346 68.44 173.343 68.44 173.341C68.44 173.339 68.44 173.337 68.44 173.335C68.44 173.333 68.44 173.331 68.44 173.329C68.44 173.327 68.44 173.325 68.44 173.323C68.44 173.321 68.44 173.319 68.44 173.317C68.44 173.315 68.44 173.313 68.44 173.311C68.44 173.309 68.44 173.307 68.44 173.304C68.44 173.302 68.44 173.3 68.44 173.298C68.44 173.296 68.44 173.294 68.44 173.292C68.44 173.29 68.44 173.288 68.44 173.286C68.44 173.284 68.44 173.282 68.44 173.28C68.44 173.278 68.44 173.276 68.44 173.274C68.44 173.272 68.44 173.27 68.44 173.268C68.44 173.266 68.44 173.264 68.44 173.261C68.44 173.259 68.44 173.257 68.44 173.255C68.44 173.253 68.44 173.251 68.44 173.249C68.44 173.247 68.44 173.245 68.44 173.243C68.44 173.241 68.44 173.239 68.44 173.237C68.44 173.235 68.44 173.233 68.44 173.231C68.44 173.229 68.44 173.227 68.44 173.225C68.44 173.223 68.44 173.221 68.44 173.219C68.44 173.217 68.44 173.215 68.44 173.213C68.44 173.21 68.44 173.208 68.44 173.206C68.44 173.204 68.44 173.202 68.44 173.2C68.44 173.198 68.44 173.196 68.44 173.194C68.44 173.192 68.44 173.19 68.44 173.188C68.44 173.186 68.44 173.184 68.44 173.182C68.44 173.18 68.44 173.178 68.44 173.176C68.44 173.174 68.44 173.172 68.44 173.17C68.44 173.168 68.44 173.166 68.44 173.164C68.44 173.162 68.44 173.16 68.44 173.158C68.44 173.156 68.44 173.154 68.44 173.152C68.44 173.15 68.44 173.148 68.44 173.146C68.44 173.143 68.44 173.141 68.44 173.139C68.44 173.137 68.44 173.135 68.44 173.133C68.44 173.131 68.44 173.129 68.44 173.127C68.44 173.125 68.44 173.123 68.44 173.121C68.44 173.119 68.44 173.117 68.44 173.115C68.44 173.113 68.44 173.111 68.44 173.109C68.44 173.107 68.44 173.105 68.44 173.103C68.44 173.101 68.44 173.099 68.44 173.097C68.44 173.095 68.44 173.093 68.44 173.091C68.44 173.089 68.44 173.087 68.44 173.085C68.44 173.083 68.44 173.081 68.44 173.079C68.44 173.077 68.44 173.075 68.44 173.073C68.44 173.071 68.44 173.069 68.44 173.067C68.44 173.065 68.44 173.063 68.44 173.061C68.44 173.059 68.44 173.057 68.44 173.055C68.44 173.053 68.44 173.051 68.44 173.049C68.44 173.047 68.44 173.045 68.44 173.043C68.44 173.041 68.44 173.039 68.44 173.037C68.44 173.035 68.44 173.033 68.44 173.031C68.44 173.029 68.44 173.027 68.44 173.024C68.44 173.022 68.44 173.02 68.44 173.018C68.44 173.016 68.44 173.014 68.44 173.012C68.44 173.01 68.44 173.008 68.44 173.006C68.44 173.004 68.44 173.002 68.44 173C68.44 172.998 68.44 172.996 68.44 172.994C68.44 172.992 68.44 172.99 68.44 172.988C68.44 172.986 68.44 172.984 68.44 172.982C68.44 172.98 68.44 172.978 68.44 172.976C68.44 172.974 68.44 172.972 68.44 172.97C68.44 172.968 68.44 172.966 68.44 172.964C68.44 172.962 68.44 172.96 68.44 172.958C68.44 172.956 68.44 172.954 68.44 172.952C68.44 172.95 68.44 172.948 68.44 172.946C68.44 172.944 68.44 172.942 68.44 172.94C68.44 172.938 68.44 172.936 68.44 172.934C68.44 172.932 68.44 172.93 68.44 172.928C68.44 172.926 68.44 172.924 68.44 172.922C68.44 172.921 68.44 172.919 68.44 172.917C68.44 172.915 68.44 172.913 68.44 172.911C68.44 172.909 68.44 172.907 68.44 172.905C68.44 172.903 68.44 172.901 68.44 172.899C68.44 172.897 68.44 172.895 68.44 172.893C68.44 172.891 68.44 172.889 68.44 172.887C68.44 172.885 68.44 172.883 68.44 172.881C68.44 172.879 68.44 172.877 68.44 172.875C68.44 172.873 68.44 172.871 68.44 172.869C68.44 172.867 68.44 172.865 68.44 172.863C68.44 172.861 68.44 172.859 68.44 172.857C68.44 172.855 68.44 172.853 68.44 172.851C68.44 172.849 68.44 172.847 68.44 172.845C68.44 172.843 68.44 172.841 68.44 172.839C68.44 172.837 68.44 172.835 68.44 172.833C68.44 172.831 68.44 172.829 68.44 172.827C68.44 172.825 68.44 172.823 68.44 172.821C68.44 172.819 68.44 172.817 68.44 172.815C68.44 172.813 68.44 172.811 68.44 172.809C68.44 172.807 68.44 172.805 68.44 172.804C68.44 172.802 68.44 172.8 68.44 172.798C68.44 172.796 68.44 172.794 68.44 172.792C68.44 172.79 68.44 172.788 68.44 172.786C68.44 172.784 68.44 172.782 68.44 172.78C68.44 172.778 68.44 172.776 68.44 172.774C68.44 172.772 68.44 172.77 68.44 172.768C68.44 172.766 68.44 172.764 68.44 172.762C68.44 172.76 68.44 172.758 68.44 172.756C68.44 172.754 68.44 172.752 68.44 172.75C68.44 172.748 68.44 172.746 68.44 172.744C68.44 172.742 68.44 172.741 68.44 172.739C68.44 172.737 68.44 172.735 68.44 172.733C68.44 172.731 68.44 172.729 68.44 172.727C68.44 172.725 68.44 172.723 68.44 172.721C68.44 172.719 68.44 172.717 68.44 172.715C68.44 172.713 68.44 172.711 68.44 172.709C68.44 172.707 68.44 172.705 68.44 172.703C68.44 172.701 68.44 172.699 68.44 172.697C68.44 172.695 68.44 172.693 68.44 172.691C68.44 172.69 68.44 172.688 68.44 172.686C68.44 172.684 68.44 172.682 68.44 172.68C68.44 172.678 68.44 172.676 68.44 172.674C68.44 172.672 68.44 172.67 68.44 172.668C68.44 172.666 68.44 172.664 68.44 172.662C68.44 172.66 68.44 172.658 68.44 172.656C68.44 172.654 68.44 172.652 68.44 172.65C68.44 172.649 68.44 172.647 68.44 172.645C68.44 172.643 68.44 172.641 68.44 172.639C68.44 172.637 68.44 172.635 68.44 172.633C68.44 172.631 68.44 172.629 68.44 172.627C68.44 172.625 68.44 172.623 68.44 172.621C68.44 172.619 68.44 172.617 68.44 172.615C68.44 172.613 68.44 172.612 68.44 172.61C68.44 172.608 68.44 172.606 68.44 172.604C68.44 172.602 68.44 172.6 68.44 172.598C68.44 172.596 68.44 172.594 68.44 172.592C68.44 172.59 68.44 172.588 68.44 172.586C68.44 172.584 68.44 172.582 68.44 172.58C68.44 172.579 68.44 172.577 68.44 172.575C68.44 172.573 68.44 172.571 68.44 172.569C68.44 172.567 68.44 172.565 68.44 172.563C68.44 172.561 68.44 172.559 68.44 172.557C68.44 172.555 68.44 172.553 68.44 172.551C68.44 172.549 68.44 172.548 68.44 172.546C68.44 172.544 68.44 172.542 68.44 172.54C68.44 172.538 68.44 172.536 68.44 172.534C68.44 172.532 68.44 172.53 68.44 172.528C68.44 172.526 68.44 172.524 68.44 172.522C68.44 172.521 68.44 172.519 68.44 172.517C68.44 172.515 68.44 172.513 68.44 172.511C68.44 172.509 68.44 172.507 68.44 172.505C68.44 172.503 68.44 172.501 68.44 172.499C68.44 172.497 68.44 172.495 68.44 172.494C68.44 172.492 68.44 172.49 68.44 172.488C68.44 172.486 68.44 172.484 68.44 172.482C68.44 172.48 68.44 172.478 68.44 172.476C68.44 172.474 68.44 172.472 68.44 172.47C68.44 172.469 68.44 172.467 68.44 172.465C68.44 172.463 68.44 172.461 68.44 172.459C68.44 172.457 68.44 172.455 68.44 172.453C68.44 172.451 68.44 172.449 68.44 172.447C68.44 172.445 68.44 172.444 68.44 172.442C68.44 172.44 68.44 172.438 68.44 172.436C68.44 172.434 68.44 172.432 68.44 172.43C68.44 172.428 68.44 172.426 68.44 172.424C68.44 172.422 68.44 172.421 68.44 172.419C68.44 172.417 68.44 172.415 68.44 172.413C68.44 172.411 68.44 172.409 68.44 172.407C68.44 172.405 68.44 172.403 68.44 172.401C68.44 172.4 68.44 172.398 68.44 172.396C68.44 172.394 68.44 172.392 68.44 172.39C68.44 172.388 68.44 172.386 68.44 172.384C68.44 172.382 68.44 172.38 68.44 172.379C68.44 172.377 68.44 172.375 68.44 172.373C68.44 172.371 68.44 172.369 68.44 172.367C68.44 172.365 68.44 172.363 68.44 172.361C68.44 172.359 68.44 172.358 68.44 172.356C68.44 172.354 68.44 172.352 68.44 172.35C68.44 172.348 68.44 172.346 68.44 172.344C68.44 172.342 68.44 172.34 68.44 172.339C68.44 172.337 68.44 172.335 68.44 172.333C68.44 172.331 68.44 172.329 68.44 172.327C68.44 172.325 68.44 172.323 68.44 172.321C68.44 172.32 68.44 172.318 68.44 172.316C68.44 172.314 68.44 172.312 68.44 172.31C68.44 172.308 68.44 172.306 68.44 172.304C68.44 172.303 68.44 172.301 68.44 172.299C68.44 172.297 68.44 172.295 68.44 172.293C68.44 172.291 68.44 172.289 68.44 172.287C68.44 172.285 68.44 172.284 68.44 172.282C68.44 172.28 68.44 172.278 68.44 172.276C68.44 172.274 68.44 172.272 68.44 172.27C68.44 172.268 68.44 172.267 68.44 172.265C68.44 172.263 68.44 172.261 68.44 172.259C68.44 172.257 68.44 172.255 68.44 172.253C68.44 172.251 68.44 172.25 68.44 172.248C68.44 172.246 68.44 172.244 68.44 172.242C68.44 172.24 68.44 172.238 68.44 172.236C68.44 172.234 68.44 172.233 68.44 172.231C68.44 172.229 68.44 172.227 68.44 172.225C68.44 172.223 68.44 172.221 68.44 172.219C68.44 172.218 68.44 172.216 68.44 172.214C68.44 172.212 68.44 172.21 68.44 172.208C68.44 172.206 68.44 172.204 68.44 172.203C68.44 172.201 68.44 172.199 68.44 172.197C68.44 172.195 68.44 172.193 68.44 172.191C68.44 172.189 68.44 172.187 68.44 172.186C68.44 172.184 68.44 172.182 68.44 172.18H60.44ZM60.44 175.42C60.44 181.332 61.7907 186.808 64.5434 191.763L71.5366 187.877C69.4893 184.192 68.44 180.068 68.44 175.42H60.44ZM64.5923 191.848C67.4346 196.68 71.6553 200.42 77.0512 203.118L80.6289 195.962C76.4247 193.86 73.4454 191.12 71.4877 187.792L64.5923 191.848ZM77.1203 203.151C82.8452 205.878 89.7137 207.14 97.56 207.14V199.14C90.5263 199.14 84.9148 198.002 80.5597 195.929L77.1203 203.151ZM97.56 207.14C104.933 207.14 111.68 205.995 117.738 203.625L114.822 196.175C109.84 198.125 104.107 199.14 97.56 199.14V207.14ZM117.875 203.568C123.855 200.968 128.994 197.425 133.233 192.921L127.407 187.439C123.966 191.095 119.745 194.032 114.685 196.232L117.875 203.568ZM133.228 192.926C137.632 188.263 141.028 183.049 143.382 177.295L135.978 174.265C134.012 179.071 131.168 183.457 127.412 187.434L133.228 192.926ZM143.405 177.238C145.749 171.247 146.92 164.993 146.92 158.5H138.92C138.92 164.007 137.931 169.273 135.955 174.322L143.405 177.238ZM146.92 158.5C146.92 148.925 143.821 140.866 137.405 134.729L131.875 140.511C136.499 144.934 138.92 150.795 138.92 158.5H146.92ZM137.531 134.855C131.244 128.282 122.103 125.34 110.88 125.34V133.34C120.777 133.34 127.476 135.918 131.749 140.385L137.531 134.855ZM110.88 125.34C102.597 125.34 95.4737 126.589 89.7203 129.329L93.1597 136.551C97.4863 134.491 103.323 133.34 110.88 133.34V125.34ZM89.7203 129.329C84.4105 131.857 80.0287 134.734 76.7316 138.032L82.3884 143.688C84.8513 141.226 88.3895 138.823 93.1597 136.551L89.7203 129.329ZM76.7316 138.032C74.0916 140.672 71.9316 142.832 70.2516 144.512L75.9084 150.168C77.5884 148.488 79.7484 146.328 82.3884 143.688L76.7316 138.032ZM73.6457 143.38L18.2057 135.46L17.0743 143.38L72.5143 151.3L73.6457 143.38ZM21.5188 140.397L56.4388 1.79724L48.6812 -0.157261L13.7612 138.443L21.5188 140.397ZM52.56 4.81999H223.92V-3.18001H52.56V4.81999ZM219.981 0.124851L209.181 61.3249L217.059 62.7151L227.859 1.51513L219.981 0.124851ZM213.12 58.02H95.4V66.02H213.12V58.02ZM91.5284 61.0149L81.8084 98.4548L89.5517 100.465L99.2717 63.0251L91.5284 61.0149ZM88.1788 102.583C90.3318 100.861 93.4758 98.8248 97.7026 96.4766L93.8174 89.4834C89.4042 91.9352 85.8282 94.219 83.1812 96.3365L88.1788 102.583ZM97.8458 96.3931C101.766 93.9974 106.924 91.8416 113.419 89.9861L111.221 82.2939C104.276 84.2784 98.3939 86.6826 93.6742 89.5669L97.8458 96.3931ZM113.384 89.996C119.898 88.199 127.919 87.26 137.52 87.26V79.26C127.441 79.26 118.662 80.241 111.256 82.284L113.384 89.996ZM137.52 87.26C152.655 87.26 165.466 89.9377 176.082 95.1329L179.598 87.9471C167.654 82.1023 153.585 79.26 137.52 79.26V87.26ZM176.112 95.1473C186.973 100.352 195.245 107.757 201.057 117.37L207.903 113.23C201.236 102.203 191.747 93.7684 179.569 87.9327L176.112 95.1473ZM201.115 117.463C207.11 126.788 210.2 138.125 210.2 151.66H218.2C218.2 136.875 214.81 123.972 207.845 113.137L201.115 117.463ZM210.2 151.66C210.2 171.371 205.341 188.337 195.752 202.721L202.408 207.159C212.979 191.303 218.2 172.749 218.2 151.66H210.2ZM195.752 202.721C186.089 217.215 172.97 228.515 156.291 236.623L159.789 243.817C177.67 235.125 191.911 222.905 202.408 207.159L195.752 202.721ZM156.271 236.632C139.847 244.729 121.264 248.82 100.44 248.82V256.82C122.336 256.82 142.153 252.511 159.809 243.808L156.271 236.632Z" fill="url(#paint0_linear_1021_40)" mask="url(#path-1-outside-1_1021_40)"/>
<defs>
<linearGradient id="paint0_linear_1021_40" x1="-9" y1="128.5" x2="232" y2="128.5" gradientUnits="userSpaceOnUse">
<stop stop-color="#6A11CB"/>
<stop offset="1" stop-color="#2575FC"/>
</linearGradient>
</defs>
</svg>
