<svg width="224" height="257" viewBox="0 0 224 257" fill="none" xmlns="http://www.w3.org/2000/svg">
<mask id="path-1-outside-1_1021_93" maskUnits="userSpaceOnUse" x="-4" y="-3.5" width="232" height="265" fill="black">
<rect fill="white" x="-4" y="-3.5" width="232" height="265"/>
<path d="M97.08 256.82C77.64 256.82 60.72 254.42 46.32 249.62C31.92 244.82 20.76 237.86 12.84 228.74C4.92 219.38 0.96 208.1 0.96 194.9C0.96 183.86 3.12 174.02 7.44 165.38C11.76 156.5 17.76 148.82 25.44 142.34C33.12 135.62 41.76 130.46 51.36 126.86C43.92 121.1 38.4 114.5 34.8 107.06C31.2 99.38 29.4 91.34 29.4 82.94C29.4 69.74 32.16 58.1 37.68 48.02C43.44 37.7 51.24 29.06 61.08 22.1C71.16 14.9 82.56 9.49999 95.28 5.89998C108 2.29998 121.56 0.499983 135.96 0.499983C152.28 0.499983 167.04 3.01999 180.24 8.05999C193.44 12.86 204 19.94 211.92 29.3C219.84 38.66 223.8 50.06 223.8 63.5C223.8 72.62 222.24 81.14 219.12 89.06C216 96.74 211.44 103.82 205.44 110.3C199.44 116.54 192 122.06 183.12 126.86C191.76 131.18 198.96 137.3 204.72 145.22C210.72 153.14 213.72 162.98 213.72 174.74C213.72 193.46 208.32 208.94 197.52 221.18C186.96 233.18 172.8 242.18 155.04 248.18C137.52 253.94 118.2 256.82 97.08 256.82ZM102.48 208.22C106.56 208.22 110.28 207.86 113.64 207.14C117.24 206.18 120.48 204.98 123.36 203.54C126.48 201.86 129.24 199.94 131.64 197.78C135 194.66 137.64 191.06 139.56 186.98C141.48 182.66 142.44 177.98 142.44 172.94C142.44 165.02 139.56 159.14 133.8 155.3C128.04 151.22 121.08 149.18 112.92 149.18C109.32 149.18 105.72 149.66 102.12 150.62C98.76 151.34 95.52 152.42 92.4 153.86C89.52 155.3 86.88 157.22 84.48 159.62C81.36 162.74 78.84 166.46 76.92 170.78C75 175.1 74.04 179.78 74.04 184.82C74.04 192.5 76.56 198.38 81.6 202.46C86.88 206.3 93.84 208.22 102.48 208.22ZM120.84 103.46C124.2 103.46 127.44 103.22 130.56 102.74C133.68 102.02 136.56 101.18 139.2 100.22C142.08 99.02 144.72 97.7 147.12 96.26C151.2 93.62 154.44 90.26 156.84 86.18C159.24 81.86 160.44 76.82 160.44 71.06C160.44 63.38 157.68 57.86 152.16 54.5C146.64 50.9 139.44 49.1 130.56 49.1C126.72 49.1 123.12 49.46 119.76 50.18C116.4 50.9 113.28 51.86 110.4 53.06C107.52 54.26 105 55.82 102.84 57.74C99.48 60.62 96.84 64.1 94.92 68.18C93 72.26 92.04 76.94 92.04 82.22C92.04 89.66 94.8 95.06 100.32 98.42C105.84 101.78 112.68 103.46 120.84 103.46Z"/>
</mask>
<path d="M12.84 228.74L9.78646 231.324L9.80304 231.343L9.81987 231.363L12.84 228.74ZM7.44 165.38L11.0177 167.169L11.0274 167.149L11.0369 167.13L7.44 165.38ZM25.44 142.34L28.0195 145.397L28.047 145.374L28.074 145.35L25.44 142.34ZM51.36 126.86L52.7645 130.605L59.4793 128.087L53.8087 123.697L51.36 126.86ZM34.8 107.06L31.1782 108.758L31.1886 108.78L31.1994 108.802L34.8 107.06ZM37.68 48.02L34.1872 46.0705L34.1794 46.0846L34.1716 46.0987L37.68 48.02ZM61.08 22.1L63.3899 25.3656L63.3974 25.3603L63.405 25.3549L61.08 22.1ZM95.28 5.89998L94.1907 2.05115L94.1907 2.05115L95.28 5.89998ZM180.24 8.05999L178.813 11.7969L178.843 11.8083L178.873 11.8192L180.24 8.05999ZM211.92 29.3L208.866 31.8838L208.866 31.8838L211.92 29.3ZM219.12 89.06L222.826 90.5655L222.834 90.5458L222.842 90.5261L219.12 89.06ZM205.44 110.3L208.323 113.072L208.349 113.045L208.375 113.018L205.44 110.3ZM183.12 126.86L181.218 123.341L174.452 126.998L181.331 130.438L183.12 126.86ZM204.72 145.22L201.485 147.573L201.508 147.604L201.532 147.635L204.72 145.22ZM197.52 221.18L194.521 218.534L194.517 218.537L197.52 221.18ZM155.04 248.18L156.289 251.98L156.305 251.975L156.32 251.97L155.04 248.18ZM113.64 207.14L114.478 211.051L114.575 211.03L114.671 211.005L113.64 207.14ZM123.36 203.54L125.149 207.118L125.203 207.091L125.256 207.062L123.36 203.54ZM131.64 197.78L134.316 200.753L134.339 200.732L134.362 200.711L131.64 197.78ZM139.56 186.98L143.179 188.683L143.198 188.644L143.215 188.605L139.56 186.98ZM133.8 155.3L131.488 158.564L131.534 158.597L131.581 158.628L133.8 155.3ZM102.12 150.62L102.958 154.531L103.055 154.51L103.151 154.485L102.12 150.62ZM92.4 153.86L90.7238 150.228L90.667 150.254L90.6111 150.282L92.4 153.86ZM84.48 159.62L81.6516 156.792L81.6516 156.792L84.48 159.62ZM76.92 170.78L80.5753 172.405L80.5753 172.405L76.92 170.78ZM81.6 202.46L79.0832 205.569L79.1636 205.634L79.2473 205.695L81.6 202.46ZM130.56 102.74L131.168 106.693L131.315 106.671L131.459 106.638L130.56 102.74ZM139.2 100.22L140.567 103.979L140.653 103.948L140.738 103.912L139.2 100.22ZM147.12 96.26L149.178 99.69L149.236 99.6551L149.293 99.6183L147.12 96.26ZM156.84 86.18L160.288 88.2081L160.313 88.1656L160.337 88.1226L156.84 86.18ZM152.16 54.5L149.975 57.8504L150.027 57.8844L150.08 57.9168L152.16 54.5ZM119.76 50.18L118.922 46.2688L118.922 46.2688L119.76 50.18ZM110.4 53.06L111.938 56.7523L111.938 56.7523L110.4 53.06ZM102.84 57.74L105.443 60.777L105.471 60.7536L105.497 60.7296L102.84 57.74ZM94.92 68.18L98.5393 69.8832L98.5393 69.8832L94.92 68.18ZM97.08 252.82C77.9554 252.82 61.481 250.457 47.5849 245.825L45.0551 253.415C59.959 258.383 77.3246 260.82 97.08 260.82V252.82ZM47.5849 245.825C33.692 241.194 23.2042 234.574 15.8601 226.117L9.81987 231.363C18.3158 241.146 30.148 248.446 45.0551 253.415L47.5849 245.825ZM15.8935 226.156C8.6333 217.576 4.96 207.232 4.96 194.9H-3.04C-3.04 208.968 1.2067 221.184 9.78646 231.324L15.8935 226.156ZM4.96 194.9C4.96 184.392 7.0127 175.179 11.0177 167.169L3.86229 163.591C-0.772703 172.861 -3.04 183.328 -3.04 194.9H4.96ZM11.0369 167.13C15.1084 158.761 20.7584 151.524 28.0195 145.397L22.8605 139.283C14.7616 146.116 8.41165 154.239 3.84306 163.63L11.0369 167.13ZM28.074 145.35C35.39 138.949 43.6131 134.037 52.7645 130.605L49.9555 123.115C39.9069 126.883 30.85 132.291 22.806 139.33L28.074 145.35ZM53.8087 123.697C46.7893 118.263 41.6964 112.129 38.4006 105.318L31.1994 108.802C35.1036 116.871 41.0507 123.937 48.9113 130.023L53.8087 123.697ZM38.4218 105.362C35.0684 98.2082 33.4 90.7473 33.4 82.94H25.4C25.4 91.9327 27.3316 100.552 31.1782 108.758L38.4218 105.362ZM33.4 82.94C33.4 70.3108 36.0361 59.3498 41.1884 49.9413L34.1716 46.0987C28.2839 56.8502 25.4 69.1692 25.4 82.94H33.4ZM41.1728 49.9695C46.6358 40.1816 54.0275 31.9878 63.3899 25.3656L58.7701 18.8343C48.4525 26.1322 40.2442 35.2184 34.1872 46.0705L41.1728 49.9695ZM63.405 25.3549C73.0858 18.44 84.0624 13.2319 96.3693 9.7488L94.1907 2.05115C81.0576 5.76807 69.2342 11.36 58.7551 18.845L63.405 25.3549ZM96.3693 9.7488C108.705 6.25762 121.896 4.49998 135.96 4.49998V-3.50002C121.224 -3.50002 107.295 -1.65766 94.1907 2.05115L96.3693 9.7488ZM135.96 4.49998C151.867 4.49998 166.134 6.95555 178.813 11.7969L181.667 4.32312C167.946 -0.915578 152.693 -3.50002 135.96 -3.50002V4.49998ZM178.873 11.8192C191.515 16.4161 201.459 23.1292 208.866 31.8838L214.974 26.7162C206.541 16.7508 195.365 9.30383 181.607 4.30082L178.873 11.8192ZM208.866 31.8838C216.115 40.4504 219.8 50.9085 219.8 63.5H227.8C227.8 49.2115 223.565 36.8696 214.974 26.7162L208.866 31.8838ZM219.8 63.5C219.8 72.1543 218.322 80.1733 215.398 87.5939L222.842 90.5261C226.158 82.1067 227.8 73.0857 227.8 63.5H219.8ZM215.414 87.5545C212.487 94.7587 208.199 101.433 202.505 107.582L208.375 113.018C214.681 106.207 219.513 98.7213 222.826 90.5655L215.414 87.5545ZM202.557 107.528C196.886 113.425 189.793 118.706 181.218 123.341L185.022 130.379C194.207 125.414 201.994 119.655 208.323 113.072L202.557 107.528ZM181.331 130.438C189.39 134.467 196.097 140.164 201.485 147.573L207.955 142.867C201.823 134.436 194.13 127.893 184.909 123.282L181.331 130.438ZM201.532 147.635C206.913 154.739 209.72 163.687 209.72 174.74H217.72C217.72 162.273 214.527 151.541 207.908 142.805L201.532 147.635ZM209.72 174.74C209.72 192.638 204.582 207.131 194.521 218.534L200.519 223.826C212.058 210.749 217.72 194.282 217.72 174.74H209.72ZM194.517 218.537C184.495 229.926 170.971 238.576 153.76 244.39L156.32 251.97C174.629 245.784 189.425 236.434 200.523 223.823L194.517 218.537ZM153.791 244.38C136.728 249.99 117.836 252.82 97.08 252.82V260.82C118.564 260.82 138.312 257.89 156.289 251.98L153.791 244.38ZM102.48 212.22C106.791 212.22 110.797 211.84 114.478 211.051L112.802 203.229C109.763 203.88 106.329 204.22 102.48 204.22V212.22ZM114.671 211.005C118.493 209.986 121.992 208.696 125.149 207.118L121.571 199.962C118.968 201.264 115.987 202.374 112.609 203.275L114.671 211.005ZM125.256 207.062C128.63 205.245 131.657 203.146 134.316 200.753L128.964 194.807C126.823 196.734 124.33 198.475 121.464 200.018L125.256 207.062ZM134.362 200.711C138.09 197.249 141.038 193.234 143.179 188.683L135.941 185.277C134.242 188.886 131.91 192.071 128.918 194.849L134.362 200.711ZM143.215 188.605C145.377 183.74 146.44 178.502 146.44 172.94H138.44C138.44 177.458 137.583 181.58 135.905 185.355L143.215 188.605ZM146.44 172.94C146.44 163.907 143.066 156.67 136.019 151.972L131.581 158.628C136.054 161.61 138.44 166.133 138.44 172.94H146.44ZM136.112 152.036C129.575 147.405 121.775 145.18 112.92 145.18V153.18C120.385 153.18 126.505 155.035 131.488 158.564L136.112 152.036ZM112.92 145.18C108.96 145.18 105.014 145.709 101.089 146.755L103.151 154.485C106.426 153.611 109.68 153.18 112.92 153.18V145.18ZM101.282 146.709C97.6331 147.491 94.112 148.664 90.7238 150.228L94.0762 157.492C96.928 156.176 99.887 155.189 102.958 154.531L101.282 146.709ZM90.6111 150.282C87.3262 151.925 84.339 154.104 81.6516 156.792L87.3084 162.448C89.421 160.336 91.7138 158.675 94.1889 157.438L90.6111 150.282ZM81.6516 156.792C78.1603 160.283 75.3698 164.419 73.2648 169.155L80.5753 172.405C82.3102 168.501 84.5597 165.197 87.3084 162.448L81.6516 156.792ZM73.2648 169.155C71.1027 174.02 70.04 179.258 70.04 184.82H78.04C78.04 180.302 78.8974 176.18 80.5753 172.405L73.2648 169.155ZM70.04 184.82C70.04 193.459 72.9281 200.586 79.0832 205.569L84.1168 199.351C80.192 196.174 78.04 191.541 78.04 184.82H70.04ZM79.2473 205.695C85.4018 210.171 93.2658 212.22 102.48 212.22V204.22C94.4142 204.22 88.3582 202.429 83.9527 199.225L79.2473 205.695ZM120.84 107.46C124.391 107.46 127.835 107.206 131.168 106.693L129.952 98.7865C127.045 99.2336 124.009 99.46 120.84 99.46V107.46ZM131.459 106.638C134.717 105.886 137.755 105.002 140.567 103.979L137.833 96.4608C135.365 97.3582 132.644 98.1541 129.661 98.8424L131.459 106.638ZM140.738 103.912C143.778 102.646 146.594 101.241 149.178 99.69L145.062 92.83C142.846 94.1595 140.382 95.394 137.662 96.5277L140.738 103.912ZM149.293 99.6183C153.881 96.6494 157.564 92.8392 160.288 88.2081L153.392 84.1519C151.316 87.6808 148.519 90.5906 144.947 92.9017L149.293 99.6183ZM160.337 88.1226C163.118 83.1166 164.44 77.3865 164.44 71.06H156.44C156.44 76.2535 155.362 80.6034 153.343 84.2374L160.337 88.1226ZM164.44 71.06C164.44 62.2925 161.194 55.3162 154.24 51.0832L150.08 57.9168C154.166 60.4038 156.44 64.4675 156.44 71.06H164.44ZM154.345 51.1496C147.985 47.002 139.953 45.1 130.56 45.1V53.1C138.927 53.1 145.295 54.798 149.975 57.8504L154.345 51.1496ZM130.56 45.1C126.471 45.1 122.587 45.4833 118.922 46.2688L120.598 54.0912C123.653 53.4367 126.969 53.1 130.56 53.1V45.1ZM118.922 46.2688C115.346 47.035 111.989 48.0645 108.862 49.3677L111.938 56.7523C114.571 55.6555 117.454 54.765 120.598 54.0912L118.922 46.2688ZM108.862 49.3677C105.605 50.7247 102.699 52.5131 100.183 54.7504L105.497 60.7296C107.301 59.1269 109.435 57.7953 111.938 56.7523L108.862 49.3677ZM100.237 54.703C96.4394 57.9579 93.4567 61.8954 91.3007 66.4768L98.5393 69.8832C100.223 66.3046 102.521 63.2821 105.443 60.777L100.237 54.703ZM91.3007 66.4768C89.0907 71.1732 88.04 76.4511 88.04 82.22H96.04C96.04 77.4289 96.9093 73.3468 98.5393 69.8832L91.3007 66.4768ZM88.04 82.22C88.04 90.8058 91.3286 97.6297 98.2402 101.837L102.4 95.0032C98.2714 92.4902 96.04 88.5141 96.04 82.22H88.04ZM98.2402 101.837C104.532 105.667 112.137 107.46 120.84 107.46V99.46C113.223 99.46 107.148 97.8935 102.4 95.0032L98.2402 101.837Z" fill="url(#paint0_linear_1021_93)" mask="url(#path-1-outside-1_1021_93)"/>
<defs>
<linearGradient id="paint0_linear_1021_93" x1="-3" y1="132.5" x2="238" y2="132.5" gradientUnits="userSpaceOnUse">
<stop stop-color="#6A11CB"/>
<stop offset="1" stop-color="#2575FC"/>
</linearGradient>
</defs>
</svg>
