<svg width="234" height="253" viewBox="0 0 234 253" fill="none" xmlns="http://www.w3.org/2000/svg">
<mask id="path-1-outside-1_1021_17" maskUnits="userSpaceOnUse" x="-5" y="-3.5" width="244" height="260" fill="black">
<rect fill="white" x="-5" y="-3.5" width="244" height="260"/>
<path d="M112.32 252.5L121.32 201.74H0.72L10.08 148.1C19.92 136.58 30.36 123.02 41.4 107.42C52.68 91.58 63.6 74.54 74.16 56.3C84.72 37.82 93.96 19.22 101.88 0.499983H176.04C173.64 8.41998 169.32 17.42 163.08 27.5C157.08 37.58 149.88 48.26 141.48 59.54C133.32 70.82 124.56 81.98 115.2 93.02C105.84 103.82 96.48 114.14 87.12 123.98C78 133.58 69.48 141.86 61.56 148.82H130.68L138.96 100.58C142.8 96.26 147.24 90.86 152.28 84.38C157.32 77.66 162.36 70.7 167.4 63.5C172.44 56.3 177 49.22 181.08 42.26C185.16 35.3 188.28 29.3 190.44 24.26H221.04L199.08 148.82H233.64L224.28 201.74H189.72L180.72 252.5H112.32Z"/>
</mask>
<path d="M112.32 252.5L108.381 251.802L107.548 256.5H112.32V252.5ZM121.32 201.74L125.259 202.438L126.092 197.74H121.32V201.74ZM0.72 201.74L-3.22046 201.052L-4.03843 205.74H0.72V201.74ZM10.08 148.1L7.03851 145.502L6.32768 146.334L6.13954 147.412L10.08 148.1ZM41.4 107.42L38.1417 105.1L38.1349 105.109L41.4 107.42ZM74.16 56.3L77.6217 58.3041L77.6274 58.2944L77.633 58.2845L74.16 56.3ZM101.88 0.499983V-3.50002H99.2291L98.1961 -1.05858L101.88 0.499983ZM176.04 0.499983L179.868 1.66001L181.432 -3.50002H176.04V0.499983ZM163.08 27.5L159.679 25.3946L159.661 25.4242L159.643 25.4541L163.08 27.5ZM141.48 59.54L138.272 57.1509L138.255 57.1731L138.239 57.1955L141.48 59.54ZM115.2 93.02L118.223 95.6397L118.237 95.6233L118.251 95.6067L115.2 93.02ZM87.12 123.98L84.2218 121.223L84.22 121.225L87.12 123.98ZM61.56 148.82L58.9195 145.815L50.9487 152.82H61.56V148.82ZM130.68 148.82V152.82H134.052L134.622 149.497L130.68 148.82ZM138.96 100.58L135.97 97.9225L135.211 98.7768L135.018 99.9033L138.96 100.58ZM152.28 84.38L155.437 86.8358L155.459 86.8081L155.48 86.78L152.28 84.38ZM167.4 63.5L164.123 61.2061L164.123 61.2061L167.4 63.5ZM181.08 42.26L177.629 40.2371L177.629 40.2371L181.08 42.26ZM190.44 24.26V20.26H187.802L186.763 22.6843L190.44 24.26ZM221.04 24.26L224.979 24.9545L225.807 20.26H221.04V24.26ZM199.08 148.82L195.141 148.126L194.313 152.82H199.08V148.82ZM233.64 148.82L237.579 149.517L238.41 144.82H233.64V148.82ZM224.28 201.74V205.74H227.635L228.219 202.437L224.28 201.74ZM189.72 201.74V197.74H186.367L185.781 201.042L189.72 201.74ZM180.72 252.5V256.5H184.073L184.659 253.198L180.72 252.5ZM116.259 253.198L125.259 202.438L117.381 201.042L108.381 251.802L116.259 253.198ZM121.32 197.74H0.72V205.74H121.32V197.74ZM4.66046 202.428L14.0205 148.788L6.13954 147.412L-3.22046 201.052L4.66046 202.428ZM13.1215 150.698C23.0576 139.065 33.5721 125.405 44.6651 109.731L38.1349 105.109C27.1479 120.634 16.7825 134.095 7.03851 145.502L13.1215 150.698ZM44.6583 109.74C56.0167 93.7901 67.0041 76.6437 77.6217 58.3041L70.6983 54.2958C60.196 72.4363 49.3433 89.3699 38.1417 105.1L44.6583 109.74ZM77.633 58.2845C88.268 39.6733 97.5793 20.9313 105.564 2.05854L98.1961 -1.05858C90.3407 17.5087 81.172 35.9667 70.687 54.3154L77.633 58.2845ZM101.88 4.49998H176.04V-3.50002H101.88V4.49998ZM172.212 -0.660046C169.946 6.81859 165.808 15.4941 159.679 25.3946L166.481 29.6054C172.832 19.3459 177.334 10.0214 179.868 1.66001L172.212 -0.660046ZM159.643 25.4541C153.725 35.3954 146.605 45.9604 138.272 57.1509L144.688 61.9291C153.155 50.5596 160.435 39.7646 166.517 29.5459L159.643 25.4541ZM138.239 57.1955C130.142 68.3892 121.445 79.4685 112.149 90.4333L118.251 95.6067C127.675 84.4915 136.498 73.2508 144.721 61.8845L138.239 57.1955ZM112.177 90.4003C102.856 101.156 93.5371 111.43 84.2218 121.223L90.0182 126.737C99.4229 116.85 108.824 106.484 118.223 95.6397L112.177 90.4003ZM84.22 121.225C75.1629 130.759 66.73 138.952 58.9195 145.815L64.2005 151.825C72.23 144.768 80.8371 136.401 90.02 126.735L84.22 121.225ZM61.56 152.82H130.68V144.82H61.56V152.82ZM134.622 149.497L142.902 101.257L135.018 99.9033L126.738 148.143L134.622 149.497ZM141.95 103.237C145.866 98.8313 150.364 93.3587 155.437 86.8358L149.123 81.9242C144.116 88.3613 139.734 93.6887 135.97 97.9225L141.95 103.237ZM155.48 86.78C160.547 80.0235 165.613 73.028 170.677 65.7938L164.123 61.2061C159.107 68.372 154.093 75.2965 149.08 81.98L155.48 86.78ZM170.677 65.7938C175.773 58.5136 180.392 51.3433 184.531 44.2829L177.629 40.2371C173.608 47.0967 169.107 54.0864 164.123 61.2061L170.677 65.7938ZM184.531 44.2829C188.66 37.2391 191.868 31.0825 194.117 25.8357L186.763 22.6843C184.692 27.5175 181.66 33.3609 177.629 40.2371L184.531 44.2829ZM190.44 28.26H221.04V20.26H190.44V28.26ZM217.101 23.5655L195.141 148.126L203.019 149.514L224.979 24.9545L217.101 23.5655ZM199.08 152.82H233.64V144.82H199.08V152.82ZM229.701 148.123L220.341 201.043L228.219 202.437L237.579 149.517L229.701 148.123ZM224.28 197.74H189.72V205.74H224.28V197.74ZM185.781 201.042L176.781 251.802L184.659 253.198L193.659 202.438L185.781 201.042ZM180.72 248.5H112.32V256.5H180.72V248.5Z" fill="url(#paint0_linear_1021_17)" mask="url(#path-1-outside-1_1021_17)"/>
<defs>
<linearGradient id="paint0_linear_1021_17" x1="0" y1="132.5" x2="241" y2="132.5" gradientUnits="userSpaceOnUse">
<stop stop-color="#6A11CB"/>
<stop offset="1" stop-color="#2575FC"/>
</linearGradient>
</defs>
</svg>
