<svg width="235" height="253" viewBox="0 0 235 253" fill="none" xmlns="http://www.w3.org/2000/svg">
<mask id="path-1-outside-1_1021_52" maskUnits="userSpaceOnUse" x="-5" y="-3.5" width="244" height="260" fill="black">
<rect fill="white" x="-5" y="-3.5" width="244" height="260"/>
<path d="M0.28 252.5L3.52 235.22C5.68 224.18 10.12 213.86 16.84 204.26C23.56 194.66 31.72 185.66 41.32 177.26C50.92 168.62 61.12 160.46 71.92 152.78C82.96 145.1 93.76 137.9 104.32 131.18C115.12 124.22 124.84 117.5 133.48 111.02C142.36 104.3 149.44 97.82 154.72 91.58C160 85.1 162.64 78.62 162.64 72.14C162.64 66.62 160.6 61.82 156.52 57.74C152.44 53.42 145.6 51.26 136 51.26C128.56 51.26 121.96 52.7 116.2 55.58C110.44 58.46 105.76 62.54 102.16 67.82C98.56 72.86 96.16 78.62 94.96 85.1L93.88 92.3H28.72C30.16 77.18 33.88 63.86 39.88 52.34C46.12 40.82 54.28 31.22 64.36 23.54C74.68 15.86 86.56 10.1 100 6.25999C113.68 2.41999 128.56 0.499983 144.64 0.499983C162.64 0.499983 178.36 3.37998 191.8 9.13998C205.48 14.66 216.04 22.46 223.48 32.54C231.16 42.38 235 53.78 235 66.74C235 75.86 233.56 84.38 230.68 92.3C228.04 100.22 224.2 107.66 219.16 114.62C214.36 121.34 208.6 127.7 201.88 133.7C195.4 139.7 188.32 145.46 180.64 150.98C172.96 156.5 165.04 161.78 156.88 166.82C148.72 171.86 140.44 176.9 132.04 181.94C129.88 183.14 127.48 184.7 124.84 186.62C122.44 188.54 120.4 190.22 118.72 191.66H216.28L205.48 252.5H0.28Z"/>
</mask>
<path d="M0.28 252.5L-3.65149 251.763L-4.53971 256.5H0.28V252.5ZM3.52 235.22L-0.405571 234.452L-0.40859 234.467L-0.411489 234.483L3.52 235.22ZM16.84 204.26L20.1169 206.554L20.1169 206.554L16.84 204.26ZM41.32 177.26L43.954 180.27L43.9751 180.252L43.9959 180.233L41.32 177.26ZM71.92 152.78L69.6357 149.496L69.6188 149.508L69.6019 149.52L71.92 152.78ZM104.32 131.18L106.468 134.555L106.477 134.548L106.487 134.542L104.32 131.18ZM133.48 111.02L135.88 114.22L135.887 114.215L135.894 114.21L133.48 111.02ZM154.72 91.58L157.774 94.1638L157.798 94.1354L157.821 94.1067L154.72 91.58ZM156.52 57.74L153.612 60.4865L153.651 60.528L153.692 60.5684L156.52 57.74ZM116.2 55.58L114.411 52.0023L114.411 52.0023L116.2 55.58ZM102.16 67.82L105.415 70.145L105.44 70.1094L105.465 70.0733L102.16 67.82ZM94.96 85.1L91.0269 84.3716L91.0144 84.4389L91.0043 84.5066L94.96 85.1ZM93.88 92.3V96.3H97.3248L97.8358 92.8934L93.88 92.3ZM28.72 92.3L24.738 91.9208L24.321 96.3H28.72V92.3ZM39.88 52.34L36.3628 50.4348L36.3474 50.4634L36.3323 50.4922L39.88 52.34ZM64.36 23.54L61.972 20.3311L61.9538 20.3446L61.9358 20.3583L64.36 23.54ZM100 6.25999L98.919 2.40884L98.91 2.41135L98.9011 2.4139L100 6.25999ZM191.8 9.13998L190.224 12.8166L190.264 12.8334L190.303 12.8494L191.8 9.13998ZM223.48 32.54L220.262 34.9154L220.294 34.9587L220.327 35.0011L223.48 32.54ZM230.68 92.3L226.921 90.933L226.902 90.9838L226.885 91.0351L230.68 92.3ZM219.16 114.62L215.92 112.274L215.913 112.284L215.905 112.295L219.16 114.62ZM201.88 133.7L199.216 130.716L199.189 130.74L199.162 130.765L201.88 133.7ZM156.88 166.82L158.982 170.223L158.982 170.223L156.88 166.82ZM132.04 181.94L133.983 185.437L134.041 185.404L134.098 185.37L132.04 181.94ZM124.84 186.62L122.487 183.385L122.413 183.439L122.341 183.497L124.84 186.62ZM118.72 191.66L116.117 188.623L107.907 195.66H118.72V191.66ZM216.28 191.66L220.218 192.359L221.053 187.66H216.28V191.66ZM205.48 252.5V256.5H208.832L209.418 253.199L205.48 252.5ZM4.21149 253.237L7.45149 235.957L-0.411489 234.483L-3.65149 251.763L4.21149 253.237ZM7.44557 235.988C9.49381 225.519 13.7037 215.716 20.1169 206.554L13.5631 201.966C6.53633 212.004 1.86619 222.841 -0.405571 234.452L7.44557 235.988ZM20.1169 206.554C26.6367 197.24 34.5752 188.477 43.954 180.27L38.686 174.25C28.8648 182.843 20.4833 192.08 13.5631 201.966L20.1169 206.554ZM43.9959 180.233C53.4793 171.698 63.5595 163.633 74.2381 156.04L69.6019 149.52C58.6805 157.287 48.3607 165.542 38.6441 174.287L43.9959 180.233ZM74.2043 156.064C85.2026 148.413 95.957 141.243 106.468 134.555L102.172 127.805C91.563 134.557 80.7174 141.787 69.6357 149.496L74.2043 156.064ZM106.487 134.542C117.352 127.54 127.152 120.766 135.88 114.22L131.08 107.82C122.528 114.234 112.888 120.9 102.153 127.818L106.487 134.542ZM135.894 114.21C144.93 107.371 152.249 100.693 157.774 94.1638L151.666 88.9962C146.631 94.947 139.79 101.229 131.066 107.83L135.894 114.21ZM157.821 94.1067C163.511 87.123 166.64 79.7792 166.64 72.14H158.64C158.64 77.4607 156.489 83.077 151.619 89.0533L157.821 94.1067ZM166.64 72.14C166.64 65.5068 164.141 59.7038 159.348 54.9116L153.692 60.5684C157.059 63.9361 158.64 67.7332 158.64 72.14H166.64ZM159.428 54.9935C154.237 49.4973 146.046 47.26 136 47.26V55.26C145.154 55.26 150.643 57.3427 153.612 60.4865L159.428 54.9935ZM136 47.26C128.036 47.26 120.807 48.8044 114.411 52.0023L117.989 59.1577C123.113 56.5956 129.084 55.26 136 55.26V47.26ZM114.411 52.0023C108.046 55.1848 102.842 59.7186 98.8551 65.5667L105.465 70.0733C108.678 65.3614 112.834 61.7352 117.989 59.1577L114.411 52.0023ZM98.9051 65.495C94.9434 71.0414 92.3265 77.3538 91.0269 84.3716L98.8931 85.8283C99.9935 79.8862 102.177 74.6786 105.415 70.145L98.9051 65.495ZM91.0043 84.5066L89.9243 91.7066L97.8358 92.8934L98.9157 85.6933L91.0043 84.5066ZM93.88 88.3H28.72V96.3H93.88V88.3ZM32.702 92.6792C34.1013 77.9866 37.7024 65.1803 43.4277 54.1877L36.3323 50.4922C30.0576 62.5397 26.2187 76.3734 24.738 91.9208L32.702 92.6792ZM43.3972 54.2451C49.3767 43.2059 57.1702 34.0467 66.7842 26.7217L61.9358 20.3583C51.3898 28.3933 42.8633 38.434 36.3628 50.4348L43.3972 54.2451ZM66.748 26.7489C76.6481 19.3815 88.0832 13.8248 101.099 10.1061L98.9011 2.4139C85.0368 6.37513 72.712 12.3385 61.972 20.3311L66.748 26.7489ZM101.081 10.1111C114.366 6.3819 128.878 4.49998 144.64 4.49998V-3.50002C128.242 -3.50002 112.994 -1.54193 98.919 2.40884L101.081 10.1111ZM144.64 4.49998C162.22 4.49998 177.383 7.31316 190.224 12.8166L193.376 5.4634C179.337 -0.553199 163.06 -3.50002 144.64 -3.50002V4.49998ZM190.303 12.8494C203.42 18.1423 213.334 25.5293 220.262 34.9154L226.698 30.1646C218.746 19.3906 207.54 11.1777 193.297 5.43058L190.303 12.8494ZM220.327 35.0011C227.436 44.1096 231 54.635 231 66.74H239C239 52.9249 234.884 40.6504 226.633 30.0789L220.327 35.0011ZM231 66.74C231 75.4322 229.629 83.4859 226.921 90.933L234.439 93.667C237.491 85.2741 239 76.2878 239 66.74H231ZM226.885 91.0351C224.378 98.5573 220.728 105.634 215.92 112.274L222.4 116.966C227.672 109.686 231.702 101.883 234.475 93.5649L226.885 91.0351ZM215.905 112.295C211.292 118.754 205.735 124.896 199.216 130.716L204.544 136.684C211.465 130.504 217.428 123.926 222.415 116.945L215.905 112.295ZM199.162 130.765C192.812 136.645 185.861 142.302 178.305 147.732L182.975 154.228C190.779 148.618 197.988 142.755 204.598 136.635L199.162 130.765ZM178.305 147.732C170.702 153.197 162.86 158.425 154.778 163.417L158.982 170.223C167.22 165.135 175.218 159.803 182.975 154.228L178.305 147.732ZM154.778 163.417C146.633 168.448 138.368 173.479 129.982 178.51L134.098 185.37C142.512 180.321 150.807 175.272 158.982 170.223L154.778 163.417ZM130.097 178.443C127.759 179.743 125.22 181.398 122.487 183.385L127.193 189.855C129.74 188.002 132.001 186.537 133.983 185.437L130.097 178.443ZM122.341 183.497C119.918 185.435 117.841 187.145 116.117 188.623L121.323 194.697C122.959 193.295 124.962 191.645 127.339 189.743L122.341 183.497ZM118.72 195.66H216.28V187.66H118.72V195.66ZM212.342 190.961L201.542 251.801L209.418 253.199L220.218 192.359L212.342 190.961ZM205.48 248.5H0.28V256.5H205.48V248.5Z" fill="url(#paint0_linear_1021_52)" mask="url(#path-1-outside-1_1021_52)"/>
<defs>
<linearGradient id="paint0_linear_1021_52" x1="1" y1="132.5" x2="242" y2="132.5" gradientUnits="userSpaceOnUse">
<stop stop-color="#6A11CB"/>
<stop offset="1" stop-color="#2575FC"/>
</linearGradient>
</defs>
</svg>
