<svg width="221" height="257" viewBox="0 0 221 257" fill="none" xmlns="http://www.w3.org/2000/svg">
<mask id="path-1-outside-1_1021_65" maskUnits="userSpaceOnUse" x="-4" y="-3.5" width="229" height="265" fill="black">
<rect fill="white" x="-4" y="-3.5" width="229" height="265"/>
<path d="M93.56 256.82C73.4 256.82 56.36 253.58 42.44 247.1C28.76 240.62 18.32 230.9 11.12 217.94C4.16 204.74 0.680001 188.3 0.680001 168.62C0.680001 163.1 0.920001 157.22 1.4 150.98C2.12 144.74 3.08 138.26 4.28 131.54C10.04 99.38 18.2 73.82 28.76 54.86C39.56 35.66 53.36 21.86 70.16 13.46C87.2 4.81998 107.72 0.499983 131.72 0.499983C149.24 0.499983 164.72 3.01999 178.16 8.05999C191.6 13.1 202.04 20.66 209.48 30.74C217.16 40.58 221 52.94 221 67.82C221 70.22 220.88 72.86 220.64 75.74C220.4 78.38 220.04 81.14 219.56 84.02H155.48C155.72 82.34 155.84 80.78 155.84 79.34C156.08 77.9 156.2 76.58 156.2 75.38C156.2 66.5 153.68 59.9 148.64 55.58C143.6 51.26 136.64 49.1 127.76 49.1C118.16 49.1 110.36 51.26 104.36 55.58C98.36 59.9 93.56 66.86 89.96 76.46C86.36 85.82 83.24 98.06 80.6 113.18C85.16 109.34 90.32 106.1 96.08 103.46C101.84 100.58 107.96 98.42 114.44 96.98C120.92 95.3 127.4 94.46 133.88 94.46C148.76 94.46 161.96 96.98 173.48 102.02C185.24 107.06 194.48 114.38 201.2 123.98C208.16 133.34 211.64 144.98 211.64 158.9C211.64 174.02 208.76 187.7 203 199.94C197.24 211.94 189.08 222.26 178.52 230.9C168.2 239.3 155.72 245.78 141.08 250.34C126.68 254.66 110.84 256.82 93.56 256.82ZM98.6 208.22C104.12 208.22 109.16 207.5 113.72 206.06C118.28 204.38 122.24 202.34 125.6 199.94C130.64 196.1 134.48 191.18 137.12 185.18C139.76 178.94 141.08 172.1 141.08 164.66C141.08 158.9 140 153.98 137.84 149.9C135.68 145.82 132.32 142.82 127.76 140.9C123.44 138.74 118.04 137.66 111.56 137.66C105.56 137.66 100.04 138.62 95 140.54C90.2 142.22 86 144.74 82.4 148.1C78.08 151.94 74.72 156.74 72.32 162.5C70.16 168.26 69.08 174.74 69.08 181.94C69.08 187.46 70.16 192.26 72.32 196.34C74.48 200.18 77.72 203.18 82.04 205.34C86.6 207.26 92.12 208.22 98.6 208.22Z"/>
</mask>
<path d="M42.44 247.1L40.7277 250.715L40.7398 250.721L40.7519 250.726L42.44 247.1ZM11.12 217.94L7.58172 219.806L7.60213 219.844L7.62337 219.883L11.12 217.94ZM1.4 150.98L-2.57363 150.522L-2.58237 150.597L-2.58822 150.673L1.4 150.98ZM4.28 131.54L0.342653 130.835L0.34229 130.837L4.28 131.54ZM28.76 54.86L25.2737 52.8989L25.2696 52.9063L25.2655 52.9137L28.76 54.86ZM70.16 13.46L71.9489 17.0377L71.9589 17.0327L71.9689 17.0276L70.16 13.46ZM178.16 8.05999L176.756 11.8053L176.756 11.8053L178.16 8.05999ZM209.48 30.74L206.262 33.1154L206.294 33.1587L206.327 33.2011L209.48 30.74ZM220.64 75.74L224.624 76.1021L224.625 76.0872L224.626 76.0722L220.64 75.74ZM219.56 84.02V88.02H222.949L223.506 84.6776L219.56 84.02ZM155.48 84.02L151.52 83.4543L150.868 88.02H155.48V84.02ZM155.84 79.34L151.894 78.6824L151.84 79.0089V79.34H155.84ZM148.64 55.58L151.243 52.543L151.243 52.543L148.64 55.58ZM104.36 55.58L102.023 52.3338L102.023 52.3338L104.36 55.58ZM89.96 76.46L93.6934 77.8959L93.6994 77.8802L93.7053 77.8645L89.96 76.46ZM80.6 113.18L76.6596 112.492L74.7691 123.32L83.1766 116.24L80.6 113.18ZM96.08 103.46L97.7466 107.096L97.8082 107.068L97.8689 107.038L96.08 103.46ZM114.44 96.98L115.308 100.885L115.376 100.87L115.444 100.852L114.44 96.98ZM173.48 102.02L171.877 105.685L171.891 105.691L171.904 105.697L173.48 102.02ZM201.2 123.98L197.923 126.274L197.956 126.321L197.99 126.367L201.2 123.98ZM203 199.94L206.606 201.671L206.613 201.657L206.619 201.643L203 199.94ZM178.52 230.9L181.045 234.002L181.053 233.996L178.52 230.9ZM141.08 250.34L142.229 254.171L142.25 254.165L142.27 254.159L141.08 250.34ZM113.72 206.06L114.925 209.874L115.014 209.846L115.103 209.813L113.72 206.06ZM125.6 199.94L127.925 203.195L127.975 203.159L128.024 203.122L125.6 199.94ZM137.12 185.18L140.781 186.791L140.793 186.765L140.804 186.739L137.12 185.18ZM137.84 149.9L141.375 148.028L141.375 148.028L137.84 149.9ZM127.76 140.9L125.971 144.478L126.088 144.536L126.208 144.587L127.76 140.9ZM95 140.54L96.3214 144.315L96.373 144.297L96.424 144.278L95 140.54ZM82.4 148.1L85.0575 151.09L85.0938 151.057L85.1293 151.024L82.4 148.1ZM72.32 162.5L68.6277 160.962L68.6 161.028L68.5747 161.096L72.32 162.5ZM72.32 196.34L68.7849 198.212L68.8087 198.257L68.8337 198.301L72.32 196.34ZM82.04 205.34L80.2511 208.918L80.3677 208.976L80.4878 209.027L82.04 205.34ZM93.56 252.82C73.8086 252.82 57.3812 249.643 44.1281 243.474L40.7519 250.726C55.3389 257.517 72.9914 260.82 93.56 260.82V252.82ZM44.1524 243.485C31.2101 237.355 21.402 228.211 14.6166 215.997L7.62337 219.883C15.238 233.589 26.3099 243.885 40.7277 250.715L44.1524 243.485ZM14.6583 216.074C8.08268 203.603 4.68 187.85 4.68 168.62H-3.32C-3.32 188.75 0.237326 205.877 7.58172 219.806L14.6583 216.074ZM4.68 168.62C4.68 163.215 4.91505 157.438 5.38822 151.287L-2.58822 150.673C-3.07505 157.002 -3.32 162.985 -3.32 168.62H4.68ZM5.37364 151.438C6.08342 145.287 7.03097 138.889 8.21771 132.243L0.34229 130.837C-0.870973 137.631 -1.84341 144.193 -2.57363 150.522L5.37364 151.438ZM8.21735 132.245C13.9347 100.323 21.9894 75.2369 32.2545 56.8063L25.2655 52.9137C14.4106 72.4031 6.14529 98.4367 0.342654 130.835L8.21735 132.245ZM32.2463 56.821C42.7239 38.1942 55.9802 25.022 71.9489 17.0377L68.3711 9.88228C50.7398 18.6979 36.3961 33.1258 25.2737 52.8989L32.2463 56.821ZM71.9689 17.0276C88.3231 8.73531 108.191 4.49998 131.72 4.49998V-3.50002C107.249 -3.50002 86.0769 0.904654 68.3511 9.89239L71.9689 17.0276ZM131.72 4.49998C148.863 4.49998 163.851 6.96629 176.756 11.8053L179.565 4.31468C165.589 -0.926319 149.617 -3.50002 131.72 -3.50002V4.49998ZM176.756 11.8053C189.58 16.6143 199.345 23.7448 206.262 33.1154L212.698 28.3646C204.735 17.5752 193.62 9.58567 179.564 4.31468L176.756 11.8053ZM206.327 33.2011C213.358 42.2099 217 53.6544 217 67.82H225C225 52.2256 220.962 38.95 212.633 28.2789L206.327 33.2011ZM217 67.82C217 70.0895 216.886 72.6169 216.654 75.4078L224.626 76.0722C224.874 73.1031 225 70.3505 225 67.82H217ZM216.656 75.3778C216.426 77.9096 216.08 80.5707 215.614 83.3624L223.506 84.6776C224 81.7093 224.374 78.8504 224.624 76.1021L216.656 75.3778ZM219.56 80.02H155.48V88.02H219.56V80.02ZM159.44 84.5857C159.702 82.7504 159.84 80.9991 159.84 79.34H151.84C151.84 80.5609 151.738 81.9296 151.52 83.4543L159.44 84.5857ZM159.786 79.9976C160.054 78.385 160.2 76.8415 160.2 75.38H152.2C152.2 76.3185 152.106 77.4149 151.894 78.6824L159.786 79.9976ZM160.2 75.38C160.2 65.7496 157.444 57.8579 151.243 52.543L146.037 58.617C149.916 61.9421 152.2 67.2504 152.2 75.38H160.2ZM151.243 52.543C145.264 47.4183 137.269 45.1 127.76 45.1V53.1C136.011 53.1 141.936 55.1017 146.037 58.617L151.243 52.543ZM127.76 45.1C117.571 45.1 108.881 47.3956 102.023 52.3338L106.697 58.8261C111.839 55.1244 118.749 53.1 127.76 53.1V45.1ZM102.023 52.3338C95.1783 57.2619 89.9883 64.9925 86.2147 75.0555L93.7053 77.8645C97.1317 68.7275 101.542 62.5381 106.697 58.8261L102.023 52.3338ZM86.2266 75.0241C82.4984 84.7175 79.3234 97.2357 76.6596 112.492L84.5404 113.868C87.1566 98.8843 90.2216 86.9224 93.6934 77.8959L86.2266 75.0241ZM83.1766 116.24C87.4438 112.646 92.294 109.595 97.7466 107.096L94.4134 99.8237C88.346 102.605 82.8762 106.034 78.0235 110.12L83.1766 116.24ZM97.8689 107.038C103.327 104.308 109.137 102.256 115.308 100.885L113.572 93.0752C106.783 94.584 100.353 96.8516 94.2911 99.8823L97.8689 107.038ZM115.444 100.852C121.607 99.2542 127.75 98.46 133.88 98.46V90.46C127.05 90.46 120.233 91.3458 113.436 93.108L115.444 100.852ZM133.88 98.46C148.308 98.46 160.946 100.903 171.877 105.685L175.083 98.3554C162.974 93.0574 149.212 90.46 133.88 90.46V98.46ZM171.904 105.697C183.045 110.471 191.669 117.34 197.923 126.274L204.477 121.686C197.291 111.42 187.435 103.649 175.056 98.3434L171.904 105.697ZM197.99 126.367C204.344 134.911 207.64 145.669 207.64 158.9H215.64C215.64 144.291 211.976 131.769 204.41 121.593L197.99 126.367ZM207.64 158.9C207.64 173.501 204.862 186.589 199.381 198.237L206.619 201.643C212.658 188.811 215.64 174.539 215.64 158.9H207.64ZM199.394 198.209C193.894 209.668 186.105 219.526 175.987 227.804L181.053 233.996C192.055 224.994 200.586 214.212 206.606 201.671L199.394 198.209ZM175.995 227.798C166.126 235.831 154.117 242.09 139.89 246.521L142.27 254.159C157.323 249.47 170.274 242.769 181.045 234.002L175.995 227.798ZM139.931 246.509C125.954 250.702 110.508 252.82 93.56 252.82V260.82C111.172 260.82 127.406 258.618 142.229 254.171L139.931 246.509ZM98.6 212.22C104.467 212.22 109.92 211.455 114.925 209.874L112.515 202.246C108.4 203.545 103.773 204.22 98.6 204.22V212.22ZM115.103 209.813C119.94 208.031 124.229 205.835 127.925 203.195L123.275 196.685C120.251 198.845 116.62 200.729 112.337 202.307L115.103 209.813ZM128.024 203.122C133.622 198.857 137.878 193.389 140.781 186.791L133.459 183.569C131.082 188.971 127.658 193.343 123.176 196.758L128.024 203.122ZM140.804 186.739C143.672 179.959 145.08 172.583 145.08 164.66H137.08C137.08 171.617 135.848 177.921 133.436 183.621L140.804 186.739ZM145.08 164.66C145.08 158.406 143.907 152.811 141.375 148.028L134.305 151.772C136.093 155.149 137.08 159.394 137.08 164.66H145.08ZM141.375 148.028C138.751 143.072 134.657 139.464 129.312 137.213L126.208 144.587C129.983 146.176 132.609 148.568 134.305 151.772L141.375 148.028ZM129.549 137.322C124.517 134.806 118.459 133.66 111.56 133.66V141.66C117.621 141.66 122.363 142.674 125.971 144.478L129.549 137.322ZM111.56 133.66C105.128 133.66 99.1191 134.69 93.576 136.802L96.424 144.278C100.961 142.55 105.992 141.66 111.56 141.66V133.66ZM93.6786 136.765C88.3729 138.622 83.6893 141.425 79.6707 145.176L85.1293 151.024C88.3107 148.055 92.0271 145.818 96.3214 144.315L93.6786 136.765ZM79.7426 145.11C74.9378 149.381 71.2404 154.691 68.6277 160.962L76.0123 164.038C78.1997 158.789 81.2222 154.499 85.0575 151.09L79.7426 145.11ZM68.5747 161.096C66.2202 167.374 65.08 174.341 65.08 181.94H73.08C73.08 175.139 74.0998 169.146 76.0653 163.904L68.5747 161.096ZM65.08 181.94C65.08 187.985 66.2652 193.452 68.7849 198.212L75.8552 194.468C74.0548 191.068 73.08 186.935 73.08 181.94H65.08ZM68.8337 198.301C71.423 202.904 75.2884 206.436 80.2511 208.918L83.8289 201.762C80.1516 199.924 77.537 197.456 75.8063 194.379L68.8337 198.301ZM80.4878 209.027C85.6658 211.207 91.744 212.22 98.6 212.22V204.22C92.496 204.22 87.5343 203.313 83.5922 201.653L80.4878 209.027Z" fill="url(#paint0_linear_1021_65)" mask="url(#path-1-outside-1_1021_65)"/>
<defs>
<linearGradient id="paint0_linear_1021_65" x1="-13" y1="132.5" x2="228" y2="132.5" gradientUnits="userSpaceOnUse">
<stop stop-color="#6A11CB"/>
<stop offset="1" stop-color="#2575FC"/>
</linearGradient>
</defs>
</svg>
