<svg width="44" height="44" viewBox="0 0 44 44" fill="none" xmlns="http://www.w3.org/2000/svg">
<path d="M9.16667 40.3332H34.8333C35.8058 40.3332 36.7384 39.9469 37.4261 39.2592C38.1137 38.5716 38.5 37.639 38.5 36.6665V20.1665C38.5014 19.9252 38.4551 19.686 38.3639 19.4627C38.2727 19.2393 38.1382 19.0361 37.9683 18.8648L23.3017 4.19816C22.9582 3.8567 22.4935 3.66504 22.0092 3.66504C21.5248 3.66504 21.0602 3.8567 20.7167 4.19816L6.05 18.8648C5.87677 19.0346 5.73896 19.2371 5.64455 19.4605C5.55014 19.684 5.50101 19.9239 5.5 20.1665L5.5 36.6665C5.5 37.639 5.88631 38.5716 6.57394 39.2592C7.26157 39.9469 8.19421 40.3332 9.16667 40.3332ZM18.3333 36.6665V27.4998H25.6667L25.6667 36.6665H18.3333ZM9.16667 20.9182L22 8.08483L34.8333 20.9182V36.6665H29.3333L29.3333 27.4998C29.3333 26.5274 28.947 25.5947 28.2594 24.9071C27.5718 24.2195 26.6391 23.8332 25.6667 23.8332H18.3333C17.3609 23.8332 16.4282 24.2195 15.7406 24.9071C15.053 25.5947 14.6667 26.5274 14.6667 27.4998V36.6665H9.16667L9.16667 20.9182Z" fill="#BABABA"/>
</svg>
