<svg width="220" height="249" viewBox="0 0 220 249" fill="none" xmlns="http://www.w3.org/2000/svg">
<mask id="path-1-outside-1_1021_72" maskUnits="userSpaceOnUse" x="-5" y="-3.5" width="230" height="256" fill="black">
<rect fill="white" x="-5" y="-3.5" width="230" height="256"/>
<path d="M4.36 248.5C7.48 231.46 12.4 214.66 19.12 198.1C25.84 181.54 34 165.46 43.6 149.86C53.44 134.02 64.36 118.9 76.36 104.5C88.36 89.86 101.08 75.94 114.52 62.74H0.0400006L11.2 0.819992H220L214.24 33.58C203.2 44.86 192.4 56.5 181.84 68.5C171.28 80.26 161.32 92.5 151.96 105.22C142.84 117.7 134.44 130.54 126.76 143.74C119.32 156.94 112.84 170.5 107.32 184.42C101.8 198.34 97.72 212.62 95.08 227.26C94.36 230.86 93.64 234.46 92.92 238.06C92.44 241.42 91.84 244.9 91.12 248.5H4.36Z"/>
</mask>
<path d="M4.36 248.5L0.425411 247.78L-0.438891 252.5H4.36V248.5ZM19.12 198.1L22.8265 199.604L22.8265 199.604L19.12 198.1ZM43.6 149.86L40.2022 147.749L40.1978 147.756L40.1934 147.764L43.6 149.86ZM76.36 104.5L79.4329 107.061L79.4433 107.048L79.4536 107.036L76.36 104.5ZM114.52 62.74L117.323 65.5938L124.301 58.74H114.52V62.74ZM0.0400006 62.74L-3.89657 62.0305L-4.74538 66.74H0.0400006V62.74ZM11.2 0.819992V-3.18001H7.85648L7.26343 0.110493L11.2 0.819992ZM220 0.819992L223.94 1.51266L224.765 -3.18001H220V0.819992ZM214.24 33.58L217.099 36.3779L217.965 35.4926L218.18 34.2727L214.24 33.58ZM181.84 68.5L184.816 71.1725L184.83 71.1576L184.843 71.1425L181.84 68.5ZM151.96 105.22L148.738 102.849L148.73 102.86L151.96 105.22ZM126.76 143.74L123.303 141.728L123.289 141.752L123.275 141.776L126.76 143.74ZM107.32 184.42L111.038 185.895L111.038 185.895L107.32 184.42ZM95.08 227.26L99.0023 228.044L99.0098 228.007L99.0165 227.97L95.08 227.26ZM92.92 238.06L88.9977 237.276L88.9759 237.384L88.9602 237.494L92.92 238.06ZM91.12 248.5V252.5H94.3992L95.0423 249.284L91.12 248.5ZM8.29459 249.22C11.3639 232.457 16.2058 215.919 22.8265 199.604L15.4136 196.596C8.59423 213.401 3.59607 230.463 0.425411 247.78L8.29459 249.22ZM22.8265 199.604C29.461 183.255 37.5199 167.372 47.0066 151.956L40.1934 147.764C30.4801 163.548 22.219 179.825 15.4136 196.596L22.8265 199.604ZM46.9978 151.971C56.7395 136.289 67.5509 121.319 79.4329 107.061L73.2871 101.939C61.1692 116.481 50.1405 131.751 40.2022 147.749L46.9978 151.971ZM79.4536 107.036C91.3629 92.5063 103.986 78.6926 117.323 65.5938L111.717 59.8862C98.1741 73.1874 85.3571 87.2136 73.2664 101.964L79.4536 107.036ZM114.52 58.74H0.0400006V66.74H114.52V58.74ZM3.97657 63.4495L15.1366 1.52949L7.26343 0.110493L-3.89657 62.0305L3.97657 63.4495ZM11.2 4.81999H220V-3.18001H11.2V4.81999ZM216.06 0.127319L210.3 32.8873L218.18 34.2727L223.94 1.51266L216.06 0.127319ZM211.381 30.7821C200.291 42.1133 189.443 53.8051 178.837 65.8575L184.843 71.1425C195.357 59.1949 206.109 47.6067 217.099 36.3779L211.381 30.7821ZM178.864 65.8275C168.217 77.684 158.175 90.0247 148.738 102.849L155.182 107.591C164.465 94.9753 174.343 82.836 184.816 71.1725L178.864 65.8275ZM148.73 102.86C139.529 115.451 131.053 128.407 123.303 141.728L130.217 145.752C137.827 132.673 146.151 119.949 155.19 107.58L148.73 102.86ZM123.275 141.776C115.748 155.132 109.189 168.855 103.602 182.945L111.038 185.895C116.491 172.145 122.892 158.748 130.245 145.704L123.275 141.776ZM103.602 182.945C97.9844 197.111 93.831 211.647 91.1435 226.55L99.0165 227.97C101.609 213.593 105.616 199.569 111.038 185.895L103.602 182.945ZM91.1577 226.476C90.4377 230.076 89.7177 233.676 88.9977 237.276L96.8423 238.844C97.5623 235.244 98.2823 231.644 99.0023 228.044L91.1577 226.476ZM88.9602 237.494C88.4915 240.775 87.9043 244.182 87.1977 247.716L95.0423 249.284C95.7757 245.618 96.3885 242.065 96.8798 238.626L88.9602 237.494ZM91.12 244.5H4.36V252.5H91.12V244.5Z" fill="url(#paint0_linear_1021_72)" mask="url(#path-1-outside-1_1021_72)"/>
<defs>
<linearGradient id="paint0_linear_1021_72" x1="-32" y1="128.5" x2="209" y2="128.5" gradientUnits="userSpaceOnUse">
<stop stop-color="#6A11CB"/>
<stop offset="1" stop-color="#2575FC"/>
</linearGradient>
</defs>
</svg>
