<svg width="198" height="249" viewBox="0 0 198 249" fill="none" xmlns="http://www.w3.org/2000/svg">
<mask id="path-1-outside-1_1021_166" maskUnits="userSpaceOnUse" x="-4" y="-4.5" width="207" height="257" fill="black">
<rect fill="white" x="-4" y="-4.5" width="207" height="257"/>
<path d="M0.88 248.5L10.6 193.06H69.28L89.08 81.1H30.4L37.96 39.34C46.36 38.86 55.48 37.42 65.32 35.02C75.16 32.62 85.12 29.62 95.2 26.02C105.52 22.42 115.36 18.46 124.72 14.14C134.32 9.57999 143.08 5.01999 151 0.459996H175.12L140.92 193.06H197.44L187.72 248.5H0.88Z"/>
</mask>
<path d="M0.88 248.5L-3.0599 247.809L-3.88231 252.5H0.88V248.5ZM10.6 193.06V189.06H7.24029L6.6601 192.369L10.6 193.06ZM69.28 193.06V197.06H72.6347L73.2189 193.757L69.28 193.06ZM89.08 81.1L93.0189 81.7966L93.8495 77.1H89.08V81.1ZM30.4 81.1L26.464 80.3874L25.6108 85.1H30.4V81.1ZM37.96 39.34L37.7318 35.3465L34.5854 35.5263L34.024 38.6274L37.96 39.34ZM65.32 35.02L64.3722 31.1339L64.3722 31.1339L65.32 35.02ZM95.2 26.02L93.8825 22.2432L93.8686 22.2481L93.8547 22.253L95.2 26.02ZM124.72 14.14L126.396 17.7718L126.416 17.7626L126.436 17.7531L124.72 14.14ZM151 0.459996V-3.54H149.931L149.004 -3.00649L151 0.459996ZM175.12 0.459996L179.058 1.15934L179.893 -3.54H175.12V0.459996ZM140.92 193.06L136.982 192.361L136.147 197.06H140.92V193.06ZM197.44 193.06L201.38 193.751L202.202 189.06H197.44V193.06ZM187.72 248.5V252.5H191.08L191.66 249.191L187.72 248.5ZM4.8199 249.191L14.5399 193.751L6.6601 192.369L-3.0599 247.809L4.8199 249.191ZM10.6 197.06H69.28V189.06H10.6V197.06ZM73.2189 193.757L93.0189 81.7966L85.1411 80.4034L65.3411 192.363L73.2189 193.757ZM89.08 77.1H30.4V85.1H89.08V77.1ZM34.336 81.8125L41.896 40.0525L34.024 38.6274L26.464 80.3874L34.336 81.8125ZM38.1882 43.3335C46.8739 42.8372 56.2377 41.3524 66.2678 38.9061L64.3722 31.1339C54.7223 33.4875 45.8461 34.8828 37.7318 35.3465L38.1882 43.3335ZM66.2678 38.9061C76.2496 36.4715 86.3423 33.4309 96.5454 29.787L93.8547 22.253C83.8977 25.8091 74.0704 28.7685 64.3722 31.1339L66.2678 38.9061ZM96.5175 29.7968C106.952 26.1568 116.912 22.149 126.396 17.7718L123.044 10.5082C113.808 14.771 104.088 18.6832 93.8825 22.2432L96.5175 29.7968ZM126.436 17.7531C136.116 13.155 144.971 8.54665 152.996 3.92649L149.004 -3.00649C141.189 1.49334 132.524 6.00499 123.004 10.5269L126.436 17.7531ZM151 4.46H175.12V-3.54H151V4.46ZM171.182 -0.239344L136.982 192.361L144.858 193.759L179.058 1.15934L171.182 -0.239344ZM140.92 197.06H197.44V189.06H140.92V197.06ZM193.5 192.369L183.78 247.809L191.66 249.191L201.38 193.751L193.5 192.369ZM187.72 244.5H0.88V252.5H187.72V244.5Z" fill="url(#paint0_linear_1021_166)" mask="url(#path-1-outside-1_1021_166)"/>
<defs>
<linearGradient id="paint0_linear_1021_166" x1="-11" y1="128.5" x2="230" y2="128.5" gradientUnits="userSpaceOnUse">
<stop stop-color="#6A11CB"/>
<stop offset="1" stop-color="#2575FC"/>
</linearGradient>
</defs>
</svg>
