<svg width="227" height="257" viewBox="0 0 227 257" fill="none" xmlns="http://www.w3.org/2000/svg">
<mask id="path-1-outside-1_1021_89" maskUnits="userSpaceOnUse" x="-4" y="-3.5" width="235" height="265" fill="black">
<rect fill="white" x="-4" y="-3.5" width="235" height="265"/>
<path d="M97.2 256.82C75.36 256.82 57.24 254.18 42.84 248.9C28.68 243.62 18.12 236.42 11.16 227.3C4.2 217.94 0.72 207.62 0.72 196.34C0.72 193.7 0.84 190.82 1.08 187.7C1.56 184.58 2.28 181.34 3.24 177.98H66.24C66 179.18 65.76 180.5 65.52 181.94C65.52 183.14 65.52 184.34 65.52 185.54C65.52 192.74 68.4 198.26 74.16 202.1C80.16 205.7 88.32 207.5 98.64 207.5C107.76 207.5 115.56 205.94 122.04 202.82C128.76 199.46 133.8 194.9 137.16 189.14C140.76 183.14 142.56 176.3 142.56 168.62C142.56 164.06 141.6 160.34 139.68 157.46C138 154.34 135.48 152.06 132.12 150.62C129 149.18 125.4 148.46 121.32 148.46H95.04L102.96 104.18H123.48C127.8 104.18 131.76 103.46 135.36 102.02C139.2 100.34 142.44 98.18 145.08 95.54C147.96 92.66 150.12 89.3 151.56 85.46C153 81.62 153.72 77.54 153.72 73.22C153.72 68.9 152.64 65.06 150.48 61.7C148.56 58.1 145.56 55.22 141.48 53.06C137.4 50.9 132.12 49.82 125.64 49.82C118.92 49.82 113.04 50.9 108 53.06C102.96 55.22 98.88 58.1 95.76 61.7C92.64 65.3 90.6 69.26 89.64 73.58L88.92 77.18H28.44L29.88 68.18C31.8 55.7 37.08 44.42 45.72 34.34C54.6 24.02 66.6 15.86 81.72 9.85999C96.84 3.61999 115.08 0.499983 136.44 0.499983C155.4 0.499983 171.48 3.13998 184.68 8.41999C198.12 13.46 208.32 20.42 215.28 29.3C222.48 38.18 226.08 48.38 226.08 59.9C226.08 69.74 223.92 78.98 219.6 87.62C215.52 96.26 209.88 103.58 202.68 109.58C195.72 115.58 188.04 119.9 179.64 122.54L179.28 123.98C189.84 128.06 198 134.42 203.76 143.06C209.76 151.46 212.76 161.54 212.76 173.3C212.76 191.54 207.6 206.9 197.28 219.38C186.96 231.62 173.04 240.98 155.52 247.46C138 253.7 118.56 256.82 97.2 256.82Z"/>
</mask>
<path d="M42.84 248.9L41.4425 252.648L41.4527 252.652L41.463 252.656L42.84 248.9ZM11.16 227.3L7.95015 229.687L7.96505 229.707L7.9802 229.727L11.16 227.3ZM1.08 187.7L-2.87349 187.092L-2.89657 187.242L-2.90822 187.393L1.08 187.7ZM3.24 177.98V173.98H0.222794L-0.606095 176.881L3.24 177.98ZM66.24 177.98L70.1623 178.764L71.1192 173.98H66.24V177.98ZM65.52 181.94L61.5744 181.282L61.52 181.609V181.94H65.52ZM74.16 202.1L71.9412 205.428L72.0204 205.481L72.102 205.53L74.16 202.1ZM122.04 202.82L123.775 206.424L123.802 206.411L123.829 206.398L122.04 202.82ZM137.16 189.14L133.73 187.082L133.717 187.103L133.705 187.125L137.16 189.14ZM139.68 157.46L136.158 159.356L136.247 159.522L136.352 159.679L139.68 157.46ZM132.12 150.62L130.444 154.252L130.494 154.275L130.544 154.297L132.12 150.62ZM95.04 148.46L91.1025 147.756L90.2611 152.46H95.04V148.46ZM102.96 104.18V100.18H99.612L99.0225 103.476L102.96 104.18ZM135.36 102.02L136.846 105.734L136.905 105.71L136.963 105.685L135.36 102.02ZM151.56 85.46L147.815 84.0555L147.815 84.0555L151.56 85.46ZM150.48 61.7L146.951 63.5823L147.027 63.726L147.115 63.863L150.48 61.7ZM141.48 53.06L139.608 56.5951L139.608 56.5951L141.48 53.06ZM95.76 61.7L92.7372 59.0803L92.7372 59.0803L95.76 61.7ZM89.64 73.58L85.7353 72.7123L85.726 72.7538L85.7177 72.7955L89.64 73.58ZM88.92 77.18V81.18H92.1992L92.8423 77.9645L88.92 77.18ZM28.44 77.18L24.4902 76.548L23.7491 81.18H28.44V77.18ZM29.88 68.18L33.8298 68.812L33.8317 68.8001L33.8335 68.7882L29.88 68.18ZM45.72 34.34L42.688 31.731L42.683 31.7368L45.72 34.34ZM81.72 9.85999L83.1954 13.578L83.2207 13.5679L83.246 13.5575L81.72 9.85999ZM184.68 8.41999L183.194 12.1339L183.235 12.15L183.276 12.1653L184.68 8.41999ZM215.28 29.3L212.132 31.7675L212.152 31.7935L212.173 31.8192L215.28 29.3ZM219.6 87.62L216.022 85.8311L216.002 85.8713L215.983 85.912L219.6 87.62ZM202.68 109.58L200.119 106.507L200.094 106.529L200.068 106.55L202.68 109.58ZM179.64 122.54L178.441 118.724L176.303 119.396L175.759 121.57L179.64 122.54ZM179.28 123.98L175.399 123.01L174.542 126.438L177.838 127.711L179.28 123.98ZM203.76 143.06L200.432 145.279L200.468 145.332L200.505 145.385L203.76 143.06ZM197.28 219.38L200.338 221.958L200.35 221.944L200.363 221.929L197.28 219.38ZM155.52 247.46L156.862 251.228L156.885 251.22L156.908 251.212L155.52 247.46ZM97.2 252.82C75.647 252.82 58.0319 250.21 44.217 245.144L41.463 252.656C56.4481 258.15 75.073 260.82 97.2 260.82V252.82ZM44.2375 245.152C30.5649 240.054 20.7183 233.231 14.3398 224.873L7.9802 229.727C15.5217 239.609 26.7951 247.186 41.4425 252.648L44.2375 245.152ZM14.3699 224.913C7.90419 216.218 4.72 206.729 4.72 196.34H-3.28C-3.28 208.511 0.495809 219.662 7.95015 229.687L14.3699 224.913ZM4.72 196.34C4.72 193.819 4.83468 191.043 5.06822 188.007L-2.90822 187.393C-3.15468 190.597 -3.28 193.581 -3.28 196.34H4.72ZM5.03349 188.308C5.48547 185.37 6.16733 182.295 7.0861 179.079L-0.606095 176.881C-1.60733 180.385 -2.36547 183.79 -2.87349 187.092L5.03349 188.308ZM3.24 181.98H66.24V173.98H3.24V181.98ZM62.3177 177.196C62.0678 178.445 61.8202 179.808 61.5744 181.282L69.4656 182.598C69.6998 181.192 69.9322 179.915 70.1623 178.764L62.3177 177.196ZM61.52 181.94C61.52 181.942 61.52 181.945 61.52 181.947C61.52 181.949 61.52 181.952 61.52 181.954C61.52 181.956 61.52 181.959 61.52 181.961C61.52 181.963 61.52 181.966 61.52 181.968C61.52 181.97 61.52 181.973 61.52 181.975C61.52 181.977 61.52 181.98 61.52 181.982C61.52 181.985 61.52 181.987 61.52 181.989C61.52 181.992 61.52 181.994 61.52 181.996C61.52 181.999 61.52 182.001 61.52 182.003C61.52 182.006 61.52 182.008 61.52 182.01C61.52 182.013 61.52 182.015 61.52 182.017C61.52 182.02 61.52 182.022 61.52 182.024C61.52 182.027 61.52 182.029 61.52 182.031C61.52 182.034 61.52 182.036 61.52 182.038C61.52 182.041 61.52 182.043 61.52 182.045C61.52 182.048 61.52 182.05 61.52 182.052C61.52 182.055 61.52 182.057 61.52 182.06C61.52 182.062 61.52 182.064 61.52 182.067C61.52 182.069 61.52 182.071 61.52 182.074C61.52 182.076 61.52 182.078 61.52 182.081C61.52 182.083 61.52 182.085 61.52 182.088C61.52 182.09 61.52 182.092 61.52 182.095C61.52 182.097 61.52 182.099 61.52 182.102C61.52 182.104 61.52 182.106 61.52 182.109C61.52 182.111 61.52 182.113 61.52 182.116C61.52 182.118 61.52 182.12 61.52 182.123C61.52 182.125 61.52 182.127 61.52 182.13C61.52 182.132 61.52 182.135 61.52 182.137C61.52 182.139 61.52 182.142 61.52 182.144C61.52 182.146 61.52 182.149 61.52 182.151C61.52 182.153 61.52 182.156 61.52 182.158C61.52 182.16 61.52 182.163 61.52 182.165C61.52 182.167 61.52 182.17 61.52 182.172C61.52 182.174 61.52 182.177 61.52 182.179C61.52 182.181 61.52 182.184 61.52 182.186C61.52 182.188 61.52 182.191 61.52 182.193C61.52 182.195 61.52 182.198 61.52 182.2C61.52 182.202 61.52 182.205 61.52 182.207C61.52 182.21 61.52 182.212 61.52 182.214C61.52 182.217 61.52 182.219 61.52 182.221C61.52 182.224 61.52 182.226 61.52 182.228C61.52 182.231 61.52 182.233 61.52 182.235C61.52 182.238 61.52 182.24 61.52 182.242C61.52 182.245 61.52 182.247 61.52 182.249C61.52 182.252 61.52 182.254 61.52 182.256C61.52 182.259 61.52 182.261 61.52 182.263C61.52 182.266 61.52 182.268 61.52 182.27C61.52 182.273 61.52 182.275 61.52 182.277C61.52 182.28 61.52 182.282 61.52 182.285C61.52 182.287 61.52 182.289 61.52 182.292C61.52 182.294 61.52 182.296 61.52 182.299C61.52 182.301 61.52 182.303 61.52 182.306C61.52 182.308 61.52 182.31 61.52 182.313C61.52 182.315 61.52 182.317 61.52 182.32C61.52 182.322 61.52 182.324 61.52 182.327C61.52 182.329 61.52 182.331 61.52 182.334C61.52 182.336 61.52 182.338 61.52 182.341C61.52 182.343 61.52 182.345 61.52 182.348C61.52 182.35 61.52 182.352 61.52 182.355C61.52 182.357 61.52 182.36 61.52 182.362C61.52 182.364 61.52 182.367 61.52 182.369C61.52 182.371 61.52 182.374 61.52 182.376C61.52 182.378 61.52 182.381 61.52 182.383C61.52 182.385 61.52 182.388 61.52 182.39C61.52 182.392 61.52 182.395 61.52 182.397C61.52 182.399 61.52 182.402 61.52 182.404C61.52 182.406 61.52 182.409 61.52 182.411C61.52 182.413 61.52 182.416 61.52 182.418C61.52 182.42 61.52 182.423 61.52 182.425C61.52 182.427 61.52 182.43 61.52 182.432C61.52 182.435 61.52 182.437 61.52 182.439C61.52 182.442 61.52 182.444 61.52 182.446C61.52 182.449 61.52 182.451 61.52 182.453C61.52 182.456 61.52 182.458 61.52 182.46C61.52 182.463 61.52 182.465 61.52 182.467C61.52 182.47 61.52 182.472 61.52 182.474C61.52 182.477 61.52 182.479 61.52 182.481C61.52 182.484 61.52 182.486 61.52 182.488C61.52 182.491 61.52 182.493 61.52 182.495C61.52 182.498 61.52 182.5 61.52 182.502C61.52 182.505 61.52 182.507 61.52 182.51C61.52 182.512 61.52 182.514 61.52 182.517C61.52 182.519 61.52 182.521 61.52 182.524C61.52 182.526 61.52 182.528 61.52 182.531C61.52 182.533 61.52 182.535 61.52 182.538C61.52 182.54 61.52 182.542 61.52 182.545C61.52 182.547 61.52 182.549 61.52 182.552C61.52 182.554 61.52 182.556 61.52 182.559C61.52 182.561 61.52 182.563 61.52 182.566C61.52 182.568 61.52 182.57 61.52 182.573C61.52 182.575 61.52 182.577 61.52 182.58C61.52 182.582 61.52 182.585 61.52 182.587C61.52 182.589 61.52 182.592 61.52 182.594C61.52 182.596 61.52 182.599 61.52 182.601C61.52 182.603 61.52 182.606 61.52 182.608C61.52 182.61 61.52 182.613 61.52 182.615C61.52 182.617 61.52 182.62 61.52 182.622C61.52 182.624 61.52 182.627 61.52 182.629C61.52 182.631 61.52 182.634 61.52 182.636C61.52 182.638 61.52 182.641 61.52 182.643C61.52 182.645 61.52 182.648 61.52 182.65C61.52 182.652 61.52 182.655 61.52 182.657C61.52 182.66 61.52 182.662 61.52 182.664C61.52 182.667 61.52 182.669 61.52 182.671C61.52 182.674 61.52 182.676 61.52 182.678C61.52 182.681 61.52 182.683 61.52 182.685C61.52 182.688 61.52 182.69 61.52 182.692C61.52 182.695 61.52 182.697 61.52 182.699C61.52 182.702 61.52 182.704 61.52 182.706C61.52 182.709 61.52 182.711 61.52 182.713C61.52 182.716 61.52 182.718 61.52 182.72C61.52 182.723 61.52 182.725 61.52 182.727C61.52 182.73 61.52 182.732 61.52 182.735C61.52 182.737 61.52 182.739 61.52 182.742C61.52 182.744 61.52 182.746 61.52 182.749C61.52 182.751 61.52 182.753 61.52 182.756C61.52 182.758 61.52 182.76 61.52 182.763C61.52 182.765 61.52 182.767 61.52 182.77C61.52 182.772 61.52 182.774 61.52 182.777C61.52 182.779 61.52 182.781 61.52 182.784C61.52 182.786 61.52 182.788 61.52 182.791C61.52 182.793 61.52 182.795 61.52 182.798C61.52 182.8 61.52 182.802 61.52 182.805C61.52 182.807 61.52 182.81 61.52 182.812C61.52 182.814 61.52 182.817 61.52 182.819C61.52 182.821 61.52 182.824 61.52 182.826C61.52 182.828 61.52 182.831 61.52 182.833C61.52 182.835 61.52 182.838 61.52 182.84C61.52 182.842 61.52 182.845 61.52 182.847C61.52 182.849 61.52 182.852 61.52 182.854C61.52 182.856 61.52 182.859 61.52 182.861C61.52 182.863 61.52 182.866 61.52 182.868C61.52 182.87 61.52 182.873 61.52 182.875C61.52 182.877 61.52 182.88 61.52 182.882C61.52 182.885 61.52 182.887 61.52 182.889C61.52 182.892 61.52 182.894 61.52 182.896C61.52 182.899 61.52 182.901 61.52 182.903C61.52 182.906 61.52 182.908 61.52 182.91C61.52 182.913 61.52 182.915 61.52 182.917C61.52 182.92 61.52 182.922 61.52 182.924C61.52 182.927 61.52 182.929 61.52 182.931C61.52 182.934 61.52 182.936 61.52 182.938C61.52 182.941 61.52 182.943 61.52 182.945C61.52 182.948 61.52 182.95 61.52 182.952C61.52 182.955 61.52 182.957 61.52 182.96C61.52 182.962 61.52 182.964 61.52 182.967C61.52 182.969 61.52 182.971 61.52 182.974C61.52 182.976 61.52 182.978 61.52 182.981C61.52 182.983 61.52 182.985 61.52 182.988C61.52 182.99 61.52 182.992 61.52 182.995C61.52 182.997 61.52 182.999 61.52 183.002C61.52 183.004 61.52 183.006 61.52 183.009C61.52 183.011 61.52 183.013 61.52 183.016C61.52 183.018 61.52 183.02 61.52 183.023C61.52 183.025 61.52 183.027 61.52 183.03C61.52 183.032 61.52 183.035 61.52 183.037C61.52 183.039 61.52 183.042 61.52 183.044C61.52 183.046 61.52 183.049 61.52 183.051C61.52 183.053 61.52 183.056 61.52 183.058C61.52 183.06 61.52 183.063 61.52 183.065C61.52 183.067 61.52 183.07 61.52 183.072C61.52 183.074 61.52 183.077 61.52 183.079C61.52 183.081 61.52 183.084 61.52 183.086C61.52 183.088 61.52 183.091 61.52 183.093C61.52 183.095 61.52 183.098 61.52 183.1C61.52 183.102 61.52 183.105 61.52 183.107C61.52 183.11 61.52 183.112 61.52 183.114C61.52 183.117 61.52 183.119 61.52 183.121C61.52 183.124 61.52 183.126 61.52 183.128C61.52 183.131 61.52 183.133 61.52 183.135C61.52 183.138 61.52 183.14 61.52 183.142C61.52 183.145 61.52 183.147 61.52 183.149C61.52 183.152 61.52 183.154 61.52 183.156C61.52 183.159 61.52 183.161 61.52 183.163C61.52 183.166 61.52 183.168 61.52 183.17C61.52 183.173 61.52 183.175 61.52 183.177C61.52 183.18 61.52 183.182 61.52 183.185C61.52 183.187 61.52 183.189 61.52 183.192C61.52 183.194 61.52 183.196 61.52 183.199C61.52 183.201 61.52 183.203 61.52 183.206C61.52 183.208 61.52 183.21 61.52 183.213C61.52 183.215 61.52 183.217 61.52 183.22C61.52 183.222 61.52 183.224 61.52 183.227C61.52 183.229 61.52 183.231 61.52 183.234C61.52 183.236 61.52 183.238 61.52 183.241C61.52 183.243 61.52 183.245 61.52 183.248C61.52 183.25 61.52 183.252 61.52 183.255C61.52 183.257 61.52 183.26 61.52 183.262C61.52 183.264 61.52 183.267 61.52 183.269C61.52 183.271 61.52 183.274 61.52 183.276C61.52 183.278 61.52 183.281 61.52 183.283C61.52 183.285 61.52 183.288 61.52 183.29C61.52 183.292 61.52 183.295 61.52 183.297C61.52 183.299 61.52 183.302 61.52 183.304C61.52 183.306 61.52 183.309 61.52 183.311C61.52 183.313 61.52 183.316 61.52 183.318C61.52 183.32 61.52 183.323 61.52 183.325C61.52 183.327 61.52 183.33 61.52 183.332C61.52 183.335 61.52 183.337 61.52 183.339C61.52 183.342 61.52 183.344 61.52 183.346C61.52 183.349 61.52 183.351 61.52 183.353C61.52 183.356 61.52 183.358 61.52 183.36C61.52 183.363 61.52 183.365 61.52 183.367C61.52 183.37 61.52 183.372 61.52 183.374C61.52 183.377 61.52 183.379 61.52 183.381C61.52 183.384 61.52 183.386 61.52 183.388C61.52 183.391 61.52 183.393 61.52 183.395C61.52 183.398 61.52 183.4 61.52 183.402C61.52 183.405 61.52 183.407 61.52 183.41C61.52 183.412 61.52 183.414 61.52 183.417C61.52 183.419 61.52 183.421 61.52 183.424C61.52 183.426 61.52 183.428 61.52 183.431C61.52 183.433 61.52 183.435 61.52 183.438C61.52 183.44 61.52 183.442 61.52 183.445C61.52 183.447 61.52 183.449 61.52 183.452C61.52 183.454 61.52 183.456 61.52 183.459C61.52 183.461 61.52 183.463 61.52 183.466C61.52 183.468 61.52 183.47 61.52 183.473C61.52 183.475 61.52 183.477 61.52 183.48C61.52 183.482 61.52 183.485 61.52 183.487C61.52 183.489 61.52 183.492 61.52 183.494C61.52 183.496 61.52 183.499 61.52 183.501C61.52 183.503 61.52 183.506 61.52 183.508C61.52 183.51 61.52 183.513 61.52 183.515C61.52 183.517 61.52 183.52 61.52 183.522C61.52 183.524 61.52 183.527 61.52 183.529C61.52 183.531 61.52 183.534 61.52 183.536C61.52 183.538 61.52 183.541 61.52 183.543C61.52 183.545 61.52 183.548 61.52 183.55C61.52 183.552 61.52 183.555 61.52 183.557C61.52 183.56 61.52 183.562 61.52 183.564C61.52 183.567 61.52 183.569 61.52 183.571C61.52 183.574 61.52 183.576 61.52 183.578C61.52 183.581 61.52 183.583 61.52 183.585C61.52 183.588 61.52 183.59 61.52 183.592C61.52 183.595 61.52 183.597 61.52 183.599C61.52 183.602 61.52 183.604 61.52 183.606C61.52 183.609 61.52 183.611 61.52 183.613C61.52 183.616 61.52 183.618 61.52 183.62C61.52 183.623 61.52 183.625 61.52 183.627C61.52 183.63 61.52 183.632 61.52 183.635C61.52 183.637 61.52 183.639 61.52 183.642C61.52 183.644 61.52 183.646 61.52 183.649C61.52 183.651 61.52 183.653 61.52 183.656C61.52 183.658 61.52 183.66 61.52 183.663C61.52 183.665 61.52 183.667 61.52 183.67C61.52 183.672 61.52 183.674 61.52 183.677C61.52 183.679 61.52 183.681 61.52 183.684C61.52 183.686 61.52 183.688 61.52 183.691C61.52 183.693 61.52 183.695 61.52 183.698C61.52 183.7 61.52 183.702 61.52 183.705C61.52 183.707 61.52 183.71 61.52 183.712C61.52 183.714 61.52 183.717 61.52 183.719C61.52 183.721 61.52 183.724 61.52 183.726C61.52 183.728 61.52 183.731 61.52 183.733C61.52 183.735 61.52 183.738 61.52 183.74C61.52 183.742 61.52 183.745 61.52 183.747C61.52 183.749 61.52 183.752 61.52 183.754C61.52 183.756 61.52 183.759 61.52 183.761C61.52 183.763 61.52 183.766 61.52 183.768C61.52 183.77 61.52 183.773 61.52 183.775C61.52 183.777 61.52 183.78 61.52 183.782C61.52 183.785 61.52 183.787 61.52 183.789C61.52 183.792 61.52 183.794 61.52 183.796C61.52 183.799 61.52 183.801 61.52 183.803C61.52 183.806 61.52 183.808 61.52 183.81C61.52 183.813 61.52 183.815 61.52 183.817C61.52 183.82 61.52 183.822 61.52 183.824C61.52 183.827 61.52 183.829 61.52 183.831C61.52 183.834 61.52 183.836 61.52 183.838C61.52 183.841 61.52 183.843 61.52 183.845C61.52 183.848 61.52 183.85 61.52 183.852C61.52 183.855 61.52 183.857 61.52 183.86C61.52 183.862 61.52 183.864 61.52 183.867C61.52 183.869 61.52 183.871 61.52 183.874C61.52 183.876 61.52 183.878 61.52 183.881C61.52 183.883 61.52 183.885 61.52 183.888C61.52 183.89 61.52 183.892 61.52 183.895C61.52 183.897 61.52 183.899 61.52 183.902C61.52 183.904 61.52 183.906 61.52 183.909C61.52 183.911 61.52 183.913 61.52 183.916C61.52 183.918 61.52 183.92 61.52 183.923C61.52 183.925 61.52 183.927 61.52 183.93C61.52 183.932 61.52 183.935 61.52 183.937C61.52 183.939 61.52 183.942 61.52 183.944C61.52 183.946 61.52 183.949 61.52 183.951C61.52 183.953 61.52 183.956 61.52 183.958C61.52 183.96 61.52 183.963 61.52 183.965C61.52 183.967 61.52 183.97 61.52 183.972C61.52 183.974 61.52 183.977 61.52 183.979C61.52 183.981 61.52 183.984 61.52 183.986C61.52 183.988 61.52 183.991 61.52 183.993C61.52 183.995 61.52 183.998 61.52 184C61.52 184.002 61.52 184.005 61.52 184.007C61.52 184.01 61.52 184.012 61.52 184.014C61.52 184.017 61.52 184.019 61.52 184.021C61.52 184.024 61.52 184.026 61.52 184.028C61.52 184.031 61.52 184.033 61.52 184.035C61.52 184.038 61.52 184.04 61.52 184.042C61.52 184.045 61.52 184.047 61.52 184.049C61.52 184.052 61.52 184.054 61.52 184.056C61.52 184.059 61.52 184.061 61.52 184.063C61.52 184.066 61.52 184.068 61.52 184.07C61.52 184.073 61.52 184.075 61.52 184.077C61.52 184.08 61.52 184.082 61.52 184.085C61.52 184.087 61.52 184.089 61.52 184.092C61.52 184.094 61.52 184.096 61.52 184.099C61.52 184.101 61.52 184.103 61.52 184.106C61.52 184.108 61.52 184.11 61.52 184.113C61.52 184.115 61.52 184.117 61.52 184.12C61.52 184.122 61.52 184.124 61.52 184.127C61.52 184.129 61.52 184.131 61.52 184.134C61.52 184.136 61.52 184.138 61.52 184.141C61.52 184.143 61.52 184.145 61.52 184.148C61.52 184.15 61.52 184.152 61.52 184.155C61.52 184.157 61.52 184.16 61.52 184.162C61.52 184.164 61.52 184.167 61.52 184.169C61.52 184.171 61.52 184.174 61.52 184.176C61.52 184.178 61.52 184.181 61.52 184.183C61.52 184.185 61.52 184.188 61.52 184.19C61.52 184.192 61.52 184.195 61.52 184.197C61.52 184.199 61.52 184.202 61.52 184.204C61.52 184.206 61.52 184.209 61.52 184.211C61.52 184.213 61.52 184.216 61.52 184.218C61.52 184.22 61.52 184.223 61.52 184.225C61.52 184.227 61.52 184.23 61.52 184.232C61.52 184.235 61.52 184.237 61.52 184.239C61.52 184.242 61.52 184.244 61.52 184.246C61.52 184.249 61.52 184.251 61.52 184.253C61.52 184.256 61.52 184.258 61.52 184.26C61.52 184.263 61.52 184.265 61.52 184.267C61.52 184.27 61.52 184.272 61.52 184.274C61.52 184.277 61.52 184.279 61.52 184.281C61.52 184.284 61.52 184.286 61.52 184.288C61.52 184.291 61.52 184.293 61.52 184.295C61.52 184.298 61.52 184.3 61.52 184.302C61.52 184.305 61.52 184.307 61.52 184.31C61.52 184.312 61.52 184.314 61.52 184.317C61.52 184.319 61.52 184.321 61.52 184.324C61.52 184.326 61.52 184.328 61.52 184.331C61.52 184.333 61.52 184.335 61.52 184.338C61.52 184.34 61.52 184.342 61.52 184.345C61.52 184.347 61.52 184.349 61.52 184.352C61.52 184.354 61.52 184.356 61.52 184.359C61.52 184.361 61.52 184.363 61.52 184.366C61.52 184.368 61.52 184.37 61.52 184.373C61.52 184.375 61.52 184.377 61.52 184.38C61.52 184.382 61.52 184.385 61.52 184.387C61.52 184.389 61.52 184.392 61.52 184.394C61.52 184.396 61.52 184.399 61.52 184.401C61.52 184.403 61.52 184.406 61.52 184.408C61.52 184.41 61.52 184.413 61.52 184.415C61.52 184.417 61.52 184.42 61.52 184.422C61.52 184.424 61.52 184.427 61.52 184.429C61.52 184.431 61.52 184.434 61.52 184.436C61.52 184.438 61.52 184.441 61.52 184.443C61.52 184.445 61.52 184.448 61.52 184.45C61.52 184.452 61.52 184.455 61.52 184.457C61.52 184.46 61.52 184.462 61.52 184.464C61.52 184.467 61.52 184.469 61.52 184.471C61.52 184.474 61.52 184.476 61.52 184.478C61.52 184.481 61.52 184.483 61.52 184.485C61.52 184.488 61.52 184.49 61.52 184.492C61.52 184.495 61.52 184.497 61.52 184.499C61.52 184.502 61.52 184.504 61.52 184.506C61.52 184.509 61.52 184.511 61.52 184.513C61.52 184.516 61.52 184.518 61.52 184.52C61.52 184.523 61.52 184.525 61.52 184.527C61.52 184.53 61.52 184.532 61.52 184.535C61.52 184.537 61.52 184.539 61.52 184.542C61.52 184.544 61.52 184.546 61.52 184.549C61.52 184.551 61.52 184.553 61.52 184.556C61.52 184.558 61.52 184.56 61.52 184.563C61.52 184.565 61.52 184.567 61.52 184.57C61.52 184.572 61.52 184.574 61.52 184.577C61.52 184.579 61.52 184.581 61.52 184.584C61.52 184.586 61.52 184.588 61.52 184.591C61.52 184.593 61.52 184.595 61.52 184.598C61.52 184.6 61.52 184.602 61.52 184.605C61.52 184.607 61.52 184.61 61.52 184.612C61.52 184.614 61.52 184.617 61.52 184.619C61.52 184.621 61.52 184.624 61.52 184.626C61.52 184.628 61.52 184.631 61.52 184.633C61.52 184.635 61.52 184.638 61.52 184.64C61.52 184.642 61.52 184.645 61.52 184.647C61.52 184.649 61.52 184.652 61.52 184.654C61.52 184.656 61.52 184.659 61.52 184.661C61.52 184.663 61.52 184.666 61.52 184.668C61.52 184.67 61.52 184.673 61.52 184.675C61.52 184.677 61.52 184.68 61.52 184.682C61.52 184.685 61.52 184.687 61.52 184.689C61.52 184.692 61.52 184.694 61.52 184.696C61.52 184.699 61.52 184.701 61.52 184.703C61.52 184.706 61.52 184.708 61.52 184.71C61.52 184.713 61.52 184.715 61.52 184.717C61.52 184.72 61.52 184.722 61.52 184.724C61.52 184.727 61.52 184.729 61.52 184.731C61.52 184.734 61.52 184.736 61.52 184.738C61.52 184.741 61.52 184.743 61.52 184.745C61.52 184.748 61.52 184.75 61.52 184.752C61.52 184.755 61.52 184.757 61.52 184.76C61.52 184.762 61.52 184.764 61.52 184.767C61.52 184.769 61.52 184.771 61.52 184.774C61.52 184.776 61.52 184.778 61.52 184.781C61.52 184.783 61.52 184.785 61.52 184.788C61.52 184.79 61.52 184.792 61.52 184.795C61.52 184.797 61.52 184.799 61.52 184.802C61.52 184.804 61.52 184.806 61.52 184.809C61.52 184.811 61.52 184.813 61.52 184.816C61.52 184.818 61.52 184.82 61.52 184.823C61.52 184.825 61.52 184.827 61.52 184.83C61.52 184.832 61.52 184.835 61.52 184.837C61.52 184.839 61.52 184.842 61.52 184.844C61.52 184.846 61.52 184.849 61.52 184.851C61.52 184.853 61.52 184.856 61.52 184.858C61.52 184.86 61.52 184.863 61.52 184.865C61.52 184.867 61.52 184.87 61.52 184.872C61.52 184.874 61.52 184.877 61.52 184.879C61.52 184.881 61.52 184.884 61.52 184.886C61.52 184.888 61.52 184.891 61.52 184.893C61.52 184.895 61.52 184.898 61.52 184.9C61.52 184.902 61.52 184.905 61.52 184.907C61.52 184.91 61.52 184.912 61.52 184.914C61.52 184.917 61.52 184.919 61.52 184.921C61.52 184.924 61.52 184.926 61.52 184.928C61.52 184.931 61.52 184.933 61.52 184.935C61.52 184.938 61.52 184.94 61.52 184.942C61.52 184.945 61.52 184.947 61.52 184.949C61.52 184.952 61.52 184.954 61.52 184.956C61.52 184.959 61.52 184.961 61.52 184.963C61.52 184.966 61.52 184.968 61.52 184.97C61.52 184.973 61.52 184.975 61.52 184.977C61.52 184.98 61.52 184.982 61.52 184.985C61.52 184.987 61.52 184.989 61.52 184.992C61.52 184.994 61.52 184.996 61.52 184.999C61.52 185.001 61.52 185.003 61.52 185.006C61.52 185.008 61.52 185.01 61.52 185.013C61.52 185.015 61.52 185.017 61.52 185.02C61.52 185.022 61.52 185.024 61.52 185.027C61.52 185.029 61.52 185.031 61.52 185.034C61.52 185.036 61.52 185.038 61.52 185.041C61.52 185.043 61.52 185.045 61.52 185.048C61.52 185.05 61.52 185.052 61.52 185.055C61.52 185.057 61.52 185.06 61.52 185.062C61.52 185.064 61.52 185.067 61.52 185.069C61.52 185.071 61.52 185.074 61.52 185.076C61.52 185.078 61.52 185.081 61.52 185.083C61.52 185.085 61.52 185.088 61.52 185.09C61.52 185.092 61.52 185.095 61.52 185.097C61.52 185.099 61.52 185.102 61.52 185.104C61.52 185.106 61.52 185.109 61.52 185.111C61.52 185.113 61.52 185.116 61.52 185.118C61.52 185.12 61.52 185.123 61.52 185.125C61.52 185.127 61.52 185.13 61.52 185.132C61.52 185.135 61.52 185.137 61.52 185.139C61.52 185.142 61.52 185.144 61.52 185.146C61.52 185.149 61.52 185.151 61.52 185.153C61.52 185.156 61.52 185.158 61.52 185.16C61.52 185.163 61.52 185.165 61.52 185.167C61.52 185.17 61.52 185.172 61.52 185.174C61.52 185.177 61.52 185.179 61.52 185.181C61.52 185.184 61.52 185.186 61.52 185.188C61.52 185.191 61.52 185.193 61.52 185.195C61.52 185.198 61.52 185.2 61.52 185.202C61.52 185.205 61.52 185.207 61.52 185.21C61.52 185.212 61.52 185.214 61.52 185.217C61.52 185.219 61.52 185.221 61.52 185.224C61.52 185.226 61.52 185.228 61.52 185.231C61.52 185.233 61.52 185.235 61.52 185.238C61.52 185.24 61.52 185.242 61.52 185.245C61.52 185.247 61.52 185.249 61.52 185.252C61.52 185.254 61.52 185.256 61.52 185.259C61.52 185.261 61.52 185.263 61.52 185.266C61.52 185.268 61.52 185.27 61.52 185.273C61.52 185.275 61.52 185.277 61.52 185.28C61.52 185.282 61.52 185.285 61.52 185.287C61.52 185.289 61.52 185.292 61.52 185.294C61.52 185.296 61.52 185.299 61.52 185.301C61.52 185.303 61.52 185.306 61.52 185.308C61.52 185.31 61.52 185.313 61.52 185.315C61.52 185.317 61.52 185.32 61.52 185.322C61.52 185.324 61.52 185.327 61.52 185.329C61.52 185.331 61.52 185.334 61.52 185.336C61.52 185.338 61.52 185.341 61.52 185.343C61.52 185.345 61.52 185.348 61.52 185.35C61.52 185.352 61.52 185.355 61.52 185.357C61.52 185.36 61.52 185.362 61.52 185.364C61.52 185.367 61.52 185.369 61.52 185.371C61.52 185.374 61.52 185.376 61.52 185.378C61.52 185.381 61.52 185.383 61.52 185.385C61.52 185.388 61.52 185.39 61.52 185.392C61.52 185.395 61.52 185.397 61.52 185.399C61.52 185.402 61.52 185.404 61.52 185.406C61.52 185.409 61.52 185.411 61.52 185.413C61.52 185.416 61.52 185.418 61.52 185.42C61.52 185.423 61.52 185.425 61.52 185.427C61.52 185.43 61.52 185.432 61.52 185.435C61.52 185.437 61.52 185.439 61.52 185.442C61.52 185.444 61.52 185.446 61.52 185.449C61.52 185.451 61.52 185.453 61.52 185.456C61.52 185.458 61.52 185.46 61.52 185.463C61.52 185.465 61.52 185.467 61.52 185.47C61.52 185.472 61.52 185.474 61.52 185.477C61.52 185.479 61.52 185.481 61.52 185.484C61.52 185.486 61.52 185.488 61.52 185.491C61.52 185.493 61.52 185.495 61.52 185.498C61.52 185.5 61.52 185.502 61.52 185.505C61.52 185.507 61.52 185.51 61.52 185.512C61.52 185.514 61.52 185.517 61.52 185.519C61.52 185.521 61.52 185.524 61.52 185.526C61.52 185.528 61.52 185.531 61.52 185.533C61.52 185.535 61.52 185.538 61.52 185.54H69.52C69.52 185.538 69.52 185.535 69.52 185.533C69.52 185.531 69.52 185.528 69.52 185.526C69.52 185.524 69.52 185.521 69.52 185.519C69.52 185.517 69.52 185.514 69.52 185.512C69.52 185.51 69.52 185.507 69.52 185.505C69.52 185.502 69.52 185.5 69.52 185.498C69.52 185.495 69.52 185.493 69.52 185.491C69.52 185.488 69.52 185.486 69.52 185.484C69.52 185.481 69.52 185.479 69.52 185.477C69.52 185.474 69.52 185.472 69.52 185.47C69.52 185.467 69.52 185.465 69.52 185.463C69.52 185.46 69.52 185.458 69.52 185.456C69.52 185.453 69.52 185.451 69.52 185.449C69.52 185.446 69.52 185.444 69.52 185.442C69.52 185.439 69.52 185.437 69.52 185.435C69.52 185.432 69.52 185.43 69.52 185.427C69.52 185.425 69.52 185.423 69.52 185.42C69.52 185.418 69.52 185.416 69.52 185.413C69.52 185.411 69.52 185.409 69.52 185.406C69.52 185.404 69.52 185.402 69.52 185.399C69.52 185.397 69.52 185.395 69.52 185.392C69.52 185.39 69.52 185.388 69.52 185.385C69.52 185.383 69.52 185.381 69.52 185.378C69.52 185.376 69.52 185.374 69.52 185.371C69.52 185.369 69.52 185.367 69.52 185.364C69.52 185.362 69.52 185.36 69.52 185.357C69.52 185.355 69.52 185.352 69.52 185.35C69.52 185.348 69.52 185.345 69.52 185.343C69.52 185.341 69.52 185.338 69.52 185.336C69.52 185.334 69.52 185.331 69.52 185.329C69.52 185.327 69.52 185.324 69.52 185.322C69.52 185.32 69.52 185.317 69.52 185.315C69.52 185.313 69.52 185.31 69.52 185.308C69.52 185.306 69.52 185.303 69.52 185.301C69.52 185.299 69.52 185.296 69.52 185.294C69.52 185.292 69.52 185.289 69.52 185.287C69.52 185.285 69.52 185.282 69.52 185.28C69.52 185.277 69.52 185.275 69.52 185.273C69.52 185.27 69.52 185.268 69.52 185.266C69.52 185.263 69.52 185.261 69.52 185.259C69.52 185.256 69.52 185.254 69.52 185.252C69.52 185.249 69.52 185.247 69.52 185.245C69.52 185.242 69.52 185.24 69.52 185.238C69.52 185.235 69.52 185.233 69.52 185.231C69.52 185.228 69.52 185.226 69.52 185.224C69.52 185.221 69.52 185.219 69.52 185.217C69.52 185.214 69.52 185.212 69.52 185.21C69.52 185.207 69.52 185.205 69.52 185.202C69.52 185.2 69.52 185.198 69.52 185.195C69.52 185.193 69.52 185.191 69.52 185.188C69.52 185.186 69.52 185.184 69.52 185.181C69.52 185.179 69.52 185.177 69.52 185.174C69.52 185.172 69.52 185.17 69.52 185.167C69.52 185.165 69.52 185.163 69.52 185.16C69.52 185.158 69.52 185.156 69.52 185.153C69.52 185.151 69.52 185.149 69.52 185.146C69.52 185.144 69.52 185.142 69.52 185.139C69.52 185.137 69.52 185.135 69.52 185.132C69.52 185.13 69.52 185.127 69.52 185.125C69.52 185.123 69.52 185.12 69.52 185.118C69.52 185.116 69.52 185.113 69.52 185.111C69.52 185.109 69.52 185.106 69.52 185.104C69.52 185.102 69.52 185.099 69.52 185.097C69.52 185.095 69.52 185.092 69.52 185.09C69.52 185.088 69.52 185.085 69.52 185.083C69.52 185.081 69.52 185.078 69.52 185.076C69.52 185.074 69.52 185.071 69.52 185.069C69.52 185.067 69.52 185.064 69.52 185.062C69.52 185.06 69.52 185.057 69.52 185.055C69.52 185.052 69.52 185.05 69.52 185.048C69.52 185.045 69.52 185.043 69.52 185.041C69.52 185.038 69.52 185.036 69.52 185.034C69.52 185.031 69.52 185.029 69.52 185.027C69.52 185.024 69.52 185.022 69.52 185.02C69.52 185.017 69.52 185.015 69.52 185.013C69.52 185.01 69.52 185.008 69.52 185.006C69.52 185.003 69.52 185.001 69.52 184.999C69.52 184.996 69.52 184.994 69.52 184.992C69.52 184.989 69.52 184.987 69.52 184.985C69.52 184.982 69.52 184.98 69.52 184.977C69.52 184.975 69.52 184.973 69.52 184.97C69.52 184.968 69.52 184.966 69.52 184.963C69.52 184.961 69.52 184.959 69.52 184.956C69.52 184.954 69.52 184.952 69.52 184.949C69.52 184.947 69.52 184.945 69.52 184.942C69.52 184.94 69.52 184.938 69.52 184.935C69.52 184.933 69.52 184.931 69.52 184.928C69.52 184.926 69.52 184.924 69.52 184.921C69.52 184.919 69.52 184.917 69.52 184.914C69.52 184.912 69.52 184.91 69.52 184.907C69.52 184.905 69.52 184.902 69.52 184.9C69.52 184.898 69.52 184.895 69.52 184.893C69.52 184.891 69.52 184.888 69.52 184.886C69.52 184.884 69.52 184.881 69.52 184.879C69.52 184.877 69.52 184.874 69.52 184.872C69.52 184.87 69.52 184.867 69.52 184.865C69.52 184.863 69.52 184.86 69.52 184.858C69.52 184.856 69.52 184.853 69.52 184.851C69.52 184.849 69.52 184.846 69.52 184.844C69.52 184.842 69.52 184.839 69.52 184.837C69.52 184.835 69.52 184.832 69.52 184.83C69.52 184.827 69.52 184.825 69.52 184.823C69.52 184.82 69.52 184.818 69.52 184.816C69.52 184.813 69.52 184.811 69.52 184.809C69.52 184.806 69.52 184.804 69.52 184.802C69.52 184.799 69.52 184.797 69.52 184.795C69.52 184.792 69.52 184.79 69.52 184.788C69.52 184.785 69.52 184.783 69.52 184.781C69.52 184.778 69.52 184.776 69.52 184.774C69.52 184.771 69.52 184.769 69.52 184.767C69.52 184.764 69.52 184.762 69.52 184.76C69.52 184.757 69.52 184.755 69.52 184.752C69.52 184.75 69.52 184.748 69.52 184.745C69.52 184.743 69.52 184.741 69.52 184.738C69.52 184.736 69.52 184.734 69.52 184.731C69.52 184.729 69.52 184.727 69.52 184.724C69.52 184.722 69.52 184.72 69.52 184.717C69.52 184.715 69.52 184.713 69.52 184.71C69.52 184.708 69.52 184.706 69.52 184.703C69.52 184.701 69.52 184.699 69.52 184.696C69.52 184.694 69.52 184.692 69.52 184.689C69.52 184.687 69.52 184.685 69.52 184.682C69.52 184.68 69.52 184.677 69.52 184.675C69.52 184.673 69.52 184.67 69.52 184.668C69.52 184.666 69.52 184.663 69.52 184.661C69.52 184.659 69.52 184.656 69.52 184.654C69.52 184.652 69.52 184.649 69.52 184.647C69.52 184.645 69.52 184.642 69.52 184.64C69.52 184.638 69.52 184.635 69.52 184.633C69.52 184.631 69.52 184.628 69.52 184.626C69.52 184.624 69.52 184.621 69.52 184.619C69.52 184.617 69.52 184.614 69.52 184.612C69.52 184.61 69.52 184.607 69.52 184.605C69.52 184.602 69.52 184.6 69.52 184.598C69.52 184.595 69.52 184.593 69.52 184.591C69.52 184.588 69.52 184.586 69.52 184.584C69.52 184.581 69.52 184.579 69.52 184.577C69.52 184.574 69.52 184.572 69.52 184.57C69.52 184.567 69.52 184.565 69.52 184.563C69.52 184.56 69.52 184.558 69.52 184.556C69.52 184.553 69.52 184.551 69.52 184.549C69.52 184.546 69.52 184.544 69.52 184.542C69.52 184.539 69.52 184.537 69.52 184.535C69.52 184.532 69.52 184.53 69.52 184.527C69.52 184.525 69.52 184.523 69.52 184.52C69.52 184.518 69.52 184.516 69.52 184.513C69.52 184.511 69.52 184.509 69.52 184.506C69.52 184.504 69.52 184.502 69.52 184.499C69.52 184.497 69.52 184.495 69.52 184.492C69.52 184.49 69.52 184.488 69.52 184.485C69.52 184.483 69.52 184.481 69.52 184.478C69.52 184.476 69.52 184.474 69.52 184.471C69.52 184.469 69.52 184.467 69.52 184.464C69.52 184.462 69.52 184.46 69.52 184.457C69.52 184.455 69.52 184.452 69.52 184.45C69.52 184.448 69.52 184.445 69.52 184.443C69.52 184.441 69.52 184.438 69.52 184.436C69.52 184.434 69.52 184.431 69.52 184.429C69.52 184.427 69.52 184.424 69.52 184.422C69.52 184.42 69.52 184.417 69.52 184.415C69.52 184.413 69.52 184.41 69.52 184.408C69.52 184.406 69.52 184.403 69.52 184.401C69.52 184.399 69.52 184.396 69.52 184.394C69.52 184.392 69.52 184.389 69.52 184.387C69.52 184.385 69.52 184.382 69.52 184.38C69.52 184.377 69.52 184.375 69.52 184.373C69.52 184.37 69.52 184.368 69.52 184.366C69.52 184.363 69.52 184.361 69.52 184.359C69.52 184.356 69.52 184.354 69.52 184.352C69.52 184.349 69.52 184.347 69.52 184.345C69.52 184.342 69.52 184.34 69.52 184.338C69.52 184.335 69.52 184.333 69.52 184.331C69.52 184.328 69.52 184.326 69.52 184.324C69.52 184.321 69.52 184.319 69.52 184.317C69.52 184.314 69.52 184.312 69.52 184.31C69.52 184.307 69.52 184.305 69.52 184.302C69.52 184.3 69.52 184.298 69.52 184.295C69.52 184.293 69.52 184.291 69.52 184.288C69.52 184.286 69.52 184.284 69.52 184.281C69.52 184.279 69.52 184.277 69.52 184.274C69.52 184.272 69.52 184.27 69.52 184.267C69.52 184.265 69.52 184.263 69.52 184.26C69.52 184.258 69.52 184.256 69.52 184.253C69.52 184.251 69.52 184.249 69.52 184.246C69.52 184.244 69.52 184.242 69.52 184.239C69.52 184.237 69.52 184.235 69.52 184.232C69.52 184.23 69.52 184.227 69.52 184.225C69.52 184.223 69.52 184.22 69.52 184.218C69.52 184.216 69.52 184.213 69.52 184.211C69.52 184.209 69.52 184.206 69.52 184.204C69.52 184.202 69.52 184.199 69.52 184.197C69.52 184.195 69.52 184.192 69.52 184.19C69.52 184.188 69.52 184.185 69.52 184.183C69.52 184.181 69.52 184.178 69.52 184.176C69.52 184.174 69.52 184.171 69.52 184.169C69.52 184.167 69.52 184.164 69.52 184.162C69.52 184.16 69.52 184.157 69.52 184.155C69.52 184.152 69.52 184.15 69.52 184.148C69.52 184.145 69.52 184.143 69.52 184.141C69.52 184.138 69.52 184.136 69.52 184.134C69.52 184.131 69.52 184.129 69.52 184.127C69.52 184.124 69.52 184.122 69.52 184.12C69.52 184.117 69.52 184.115 69.52 184.113C69.52 184.11 69.52 184.108 69.52 184.106C69.52 184.103 69.52 184.101 69.52 184.099C69.52 184.096 69.52 184.094 69.52 184.092C69.52 184.089 69.52 184.087 69.52 184.085C69.52 184.082 69.52 184.08 69.52 184.077C69.52 184.075 69.52 184.073 69.52 184.07C69.52 184.068 69.52 184.066 69.52 184.063C69.52 184.061 69.52 184.059 69.52 184.056C69.52 184.054 69.52 184.052 69.52 184.049C69.52 184.047 69.52 184.045 69.52 184.042C69.52 184.04 69.52 184.038 69.52 184.035C69.52 184.033 69.52 184.031 69.52 184.028C69.52 184.026 69.52 184.024 69.52 184.021C69.52 184.019 69.52 184.017 69.52 184.014C69.52 184.012 69.52 184.01 69.52 184.007C69.52 184.005 69.52 184.002 69.52 184C69.52 183.998 69.52 183.995 69.52 183.993C69.52 183.991 69.52 183.988 69.52 183.986C69.52 183.984 69.52 183.981 69.52 183.979C69.52 183.977 69.52 183.974 69.52 183.972C69.52 183.97 69.52 183.967 69.52 183.965C69.52 183.963 69.52 183.96 69.52 183.958C69.52 183.956 69.52 183.953 69.52 183.951C69.52 183.949 69.52 183.946 69.52 183.944C69.52 183.942 69.52 183.939 69.52 183.937C69.52 183.935 69.52 183.932 69.52 183.93C69.52 183.927 69.52 183.925 69.52 183.923C69.52 183.92 69.52 183.918 69.52 183.916C69.52 183.913 69.52 183.911 69.52 183.909C69.52 183.906 69.52 183.904 69.52 183.902C69.52 183.899 69.52 183.897 69.52 183.895C69.52 183.892 69.52 183.89 69.52 183.888C69.52 183.885 69.52 183.883 69.52 183.881C69.52 183.878 69.52 183.876 69.52 183.874C69.52 183.871 69.52 183.869 69.52 183.867C69.52 183.864 69.52 183.862 69.52 183.86C69.52 183.857 69.52 183.855 69.52 183.852C69.52 183.85 69.52 183.848 69.52 183.845C69.52 183.843 69.52 183.841 69.52 183.838C69.52 183.836 69.52 183.834 69.52 183.831C69.52 183.829 69.52 183.827 69.52 183.824C69.52 183.822 69.52 183.82 69.52 183.817C69.52 183.815 69.52 183.813 69.52 183.81C69.52 183.808 69.52 183.806 69.52 183.803C69.52 183.801 69.52 183.799 69.52 183.796C69.52 183.794 69.52 183.792 69.52 183.789C69.52 183.787 69.52 183.785 69.52 183.782C69.52 183.78 69.52 183.777 69.52 183.775C69.52 183.773 69.52 183.77 69.52 183.768C69.52 183.766 69.52 183.763 69.52 183.761C69.52 183.759 69.52 183.756 69.52 183.754C69.52 183.752 69.52 183.749 69.52 183.747C69.52 183.745 69.52 183.742 69.52 183.74C69.52 183.738 69.52 183.735 69.52 183.733C69.52 183.731 69.52 183.728 69.52 183.726C69.52 183.724 69.52 183.721 69.52 183.719C69.52 183.717 69.52 183.714 69.52 183.712C69.52 183.71 69.52 183.707 69.52 183.705C69.52 183.702 69.52 183.7 69.52 183.698C69.52 183.695 69.52 183.693 69.52 183.691C69.52 183.688 69.52 183.686 69.52 183.684C69.52 183.681 69.52 183.679 69.52 183.677C69.52 183.674 69.52 183.672 69.52 183.67C69.52 183.667 69.52 183.665 69.52 183.663C69.52 183.66 69.52 183.658 69.52 183.656C69.52 183.653 69.52 183.651 69.52 183.649C69.52 183.646 69.52 183.644 69.52 183.642C69.52 183.639 69.52 183.637 69.52 183.635C69.52 183.632 69.52 183.63 69.52 183.627C69.52 183.625 69.52 183.623 69.52 183.62C69.52 183.618 69.52 183.616 69.52 183.613C69.52 183.611 69.52 183.609 69.52 183.606C69.52 183.604 69.52 183.602 69.52 183.599C69.52 183.597 69.52 183.595 69.52 183.592C69.52 183.59 69.52 183.588 69.52 183.585C69.52 183.583 69.52 183.581 69.52 183.578C69.52 183.576 69.52 183.574 69.52 183.571C69.52 183.569 69.52 183.567 69.52 183.564C69.52 183.562 69.52 183.56 69.52 183.557C69.52 183.555 69.52 183.552 69.52 183.55C69.52 183.548 69.52 183.545 69.52 183.543C69.52 183.541 69.52 183.538 69.52 183.536C69.52 183.534 69.52 183.531 69.52 183.529C69.52 183.527 69.52 183.524 69.52 183.522C69.52 183.52 69.52 183.517 69.52 183.515C69.52 183.513 69.52 183.51 69.52 183.508C69.52 183.506 69.52 183.503 69.52 183.501C69.52 183.499 69.52 183.496 69.52 183.494C69.52 183.492 69.52 183.489 69.52 183.487C69.52 183.485 69.52 183.482 69.52 183.48C69.52 183.477 69.52 183.475 69.52 183.473C69.52 183.47 69.52 183.468 69.52 183.466C69.52 183.463 69.52 183.461 69.52 183.459C69.52 183.456 69.52 183.454 69.52 183.452C69.52 183.449 69.52 183.447 69.52 183.445C69.52 183.442 69.52 183.44 69.52 183.438C69.52 183.435 69.52 183.433 69.52 183.431C69.52 183.428 69.52 183.426 69.52 183.424C69.52 183.421 69.52 183.419 69.52 183.417C69.52 183.414 69.52 183.412 69.52 183.41C69.52 183.407 69.52 183.405 69.52 183.402C69.52 183.4 69.52 183.398 69.52 183.395C69.52 183.393 69.52 183.391 69.52 183.388C69.52 183.386 69.52 183.384 69.52 183.381C69.52 183.379 69.52 183.377 69.52 183.374C69.52 183.372 69.52 183.37 69.52 183.367C69.52 183.365 69.52 183.363 69.52 183.36C69.52 183.358 69.52 183.356 69.52 183.353C69.52 183.351 69.52 183.349 69.52 183.346C69.52 183.344 69.52 183.342 69.52 183.339C69.52 183.337 69.52 183.335 69.52 183.332C69.52 183.33 69.52 183.327 69.52 183.325C69.52 183.323 69.52 183.32 69.52 183.318C69.52 183.316 69.52 183.313 69.52 183.311C69.52 183.309 69.52 183.306 69.52 183.304C69.52 183.302 69.52 183.299 69.52 183.297C69.52 183.295 69.52 183.292 69.52 183.29C69.52 183.288 69.52 183.285 69.52 183.283C69.52 183.281 69.52 183.278 69.52 183.276C69.52 183.274 69.52 183.271 69.52 183.269C69.52 183.267 69.52 183.264 69.52 183.262C69.52 183.26 69.52 183.257 69.52 183.255C69.52 183.252 69.52 183.25 69.52 183.248C69.52 183.245 69.52 183.243 69.52 183.241C69.52 183.238 69.52 183.236 69.52 183.234C69.52 183.231 69.52 183.229 69.52 183.227C69.52 183.224 69.52 183.222 69.52 183.22C69.52 183.217 69.52 183.215 69.52 183.213C69.52 183.21 69.52 183.208 69.52 183.206C69.52 183.203 69.52 183.201 69.52 183.199C69.52 183.196 69.52 183.194 69.52 183.192C69.52 183.189 69.52 183.187 69.52 183.185C69.52 183.182 69.52 183.18 69.52 183.177C69.52 183.175 69.52 183.173 69.52 183.17C69.52 183.168 69.52 183.166 69.52 183.163C69.52 183.161 69.52 183.159 69.52 183.156C69.52 183.154 69.52 183.152 69.52 183.149C69.52 183.147 69.52 183.145 69.52 183.142C69.52 183.14 69.52 183.138 69.52 183.135C69.52 183.133 69.52 183.131 69.52 183.128C69.52 183.126 69.52 183.124 69.52 183.121C69.52 183.119 69.52 183.117 69.52 183.114C69.52 183.112 69.52 183.11 69.52 183.107C69.52 183.105 69.52 183.102 69.52 183.1C69.52 183.098 69.52 183.095 69.52 183.093C69.52 183.091 69.52 183.088 69.52 183.086C69.52 183.084 69.52 183.081 69.52 183.079C69.52 183.077 69.52 183.074 69.52 183.072C69.52 183.07 69.52 183.067 69.52 183.065C69.52 183.063 69.52 183.06 69.52 183.058C69.52 183.056 69.52 183.053 69.52 183.051C69.52 183.049 69.52 183.046 69.52 183.044C69.52 183.042 69.52 183.039 69.52 183.037C69.52 183.035 69.52 183.032 69.52 183.03C69.52 183.027 69.52 183.025 69.52 183.023C69.52 183.02 69.52 183.018 69.52 183.016C69.52 183.013 69.52 183.011 69.52 183.009C69.52 183.006 69.52 183.004 69.52 183.002C69.52 182.999 69.52 182.997 69.52 182.995C69.52 182.992 69.52 182.99 69.52 182.988C69.52 182.985 69.52 182.983 69.52 182.981C69.52 182.978 69.52 182.976 69.52 182.974C69.52 182.971 69.52 182.969 69.52 182.967C69.52 182.964 69.52 182.962 69.52 182.96C69.52 182.957 69.52 182.955 69.52 182.952C69.52 182.95 69.52 182.948 69.52 182.945C69.52 182.943 69.52 182.941 69.52 182.938C69.52 182.936 69.52 182.934 69.52 182.931C69.52 182.929 69.52 182.927 69.52 182.924C69.52 182.922 69.52 182.92 69.52 182.917C69.52 182.915 69.52 182.913 69.52 182.91C69.52 182.908 69.52 182.906 69.52 182.903C69.52 182.901 69.52 182.899 69.52 182.896C69.52 182.894 69.52 182.892 69.52 182.889C69.52 182.887 69.52 182.885 69.52 182.882C69.52 182.88 69.52 182.877 69.52 182.875C69.52 182.873 69.52 182.87 69.52 182.868C69.52 182.866 69.52 182.863 69.52 182.861C69.52 182.859 69.52 182.856 69.52 182.854C69.52 182.852 69.52 182.849 69.52 182.847C69.52 182.845 69.52 182.842 69.52 182.84C69.52 182.838 69.52 182.835 69.52 182.833C69.52 182.831 69.52 182.828 69.52 182.826C69.52 182.824 69.52 182.821 69.52 182.819C69.52 182.817 69.52 182.814 69.52 182.812C69.52 182.81 69.52 182.807 69.52 182.805C69.52 182.802 69.52 182.8 69.52 182.798C69.52 182.795 69.52 182.793 69.52 182.791C69.52 182.788 69.52 182.786 69.52 182.784C69.52 182.781 69.52 182.779 69.52 182.777C69.52 182.774 69.52 182.772 69.52 182.77C69.52 182.767 69.52 182.765 69.52 182.763C69.52 182.76 69.52 182.758 69.52 182.756C69.52 182.753 69.52 182.751 69.52 182.749C69.52 182.746 69.52 182.744 69.52 182.742C69.52 182.739 69.52 182.737 69.52 182.735C69.52 182.732 69.52 182.73 69.52 182.727C69.52 182.725 69.52 182.723 69.52 182.72C69.52 182.718 69.52 182.716 69.52 182.713C69.52 182.711 69.52 182.709 69.52 182.706C69.52 182.704 69.52 182.702 69.52 182.699C69.52 182.697 69.52 182.695 69.52 182.692C69.52 182.69 69.52 182.688 69.52 182.685C69.52 182.683 69.52 182.681 69.52 182.678C69.52 182.676 69.52 182.674 69.52 182.671C69.52 182.669 69.52 182.667 69.52 182.664C69.52 182.662 69.52 182.66 69.52 182.657C69.52 182.655 69.52 182.652 69.52 182.65C69.52 182.648 69.52 182.645 69.52 182.643C69.52 182.641 69.52 182.638 69.52 182.636C69.52 182.634 69.52 182.631 69.52 182.629C69.52 182.627 69.52 182.624 69.52 182.622C69.52 182.62 69.52 182.617 69.52 182.615C69.52 182.613 69.52 182.61 69.52 182.608C69.52 182.606 69.52 182.603 69.52 182.601C69.52 182.599 69.52 182.596 69.52 182.594C69.52 182.592 69.52 182.589 69.52 182.587C69.52 182.585 69.52 182.582 69.52 182.58C69.52 182.577 69.52 182.575 69.52 182.573C69.52 182.57 69.52 182.568 69.52 182.566C69.52 182.563 69.52 182.561 69.52 182.559C69.52 182.556 69.52 182.554 69.52 182.552C69.52 182.549 69.52 182.547 69.52 182.545C69.52 182.542 69.52 182.54 69.52 182.538C69.52 182.535 69.52 182.533 69.52 182.531C69.52 182.528 69.52 182.526 69.52 182.524C69.52 182.521 69.52 182.519 69.52 182.517C69.52 182.514 69.52 182.512 69.52 182.51C69.52 182.507 69.52 182.505 69.52 182.502C69.52 182.5 69.52 182.498 69.52 182.495C69.52 182.493 69.52 182.491 69.52 182.488C69.52 182.486 69.52 182.484 69.52 182.481C69.52 182.479 69.52 182.477 69.52 182.474C69.52 182.472 69.52 182.47 69.52 182.467C69.52 182.465 69.52 182.463 69.52 182.46C69.52 182.458 69.52 182.456 69.52 182.453C69.52 182.451 69.52 182.449 69.52 182.446C69.52 182.444 69.52 182.442 69.52 182.439C69.52 182.437 69.52 182.435 69.52 182.432C69.52 182.43 69.52 182.427 69.52 182.425C69.52 182.423 69.52 182.42 69.52 182.418C69.52 182.416 69.52 182.413 69.52 182.411C69.52 182.409 69.52 182.406 69.52 182.404C69.52 182.402 69.52 182.399 69.52 182.397C69.52 182.395 69.52 182.392 69.52 182.39C69.52 182.388 69.52 182.385 69.52 182.383C69.52 182.381 69.52 182.378 69.52 182.376C69.52 182.374 69.52 182.371 69.52 182.369C69.52 182.367 69.52 182.364 69.52 182.362C69.52 182.36 69.52 182.357 69.52 182.355C69.52 182.352 69.52 182.35 69.52 182.348C69.52 182.345 69.52 182.343 69.52 182.341C69.52 182.338 69.52 182.336 69.52 182.334C69.52 182.331 69.52 182.329 69.52 182.327C69.52 182.324 69.52 182.322 69.52 182.32C69.52 182.317 69.52 182.315 69.52 182.313C69.52 182.31 69.52 182.308 69.52 182.306C69.52 182.303 69.52 182.301 69.52 182.299C69.52 182.296 69.52 182.294 69.52 182.292C69.52 182.289 69.52 182.287 69.52 182.285C69.52 182.282 69.52 182.28 69.52 182.277C69.52 182.275 69.52 182.273 69.52 182.27C69.52 182.268 69.52 182.266 69.52 182.263C69.52 182.261 69.52 182.259 69.52 182.256C69.52 182.254 69.52 182.252 69.52 182.249C69.52 182.247 69.52 182.245 69.52 182.242C69.52 182.24 69.52 182.238 69.52 182.235C69.52 182.233 69.52 182.231 69.52 182.228C69.52 182.226 69.52 182.224 69.52 182.221C69.52 182.219 69.52 182.217 69.52 182.214C69.52 182.212 69.52 182.21 69.52 182.207C69.52 182.205 69.52 182.202 69.52 182.2C69.52 182.198 69.52 182.195 69.52 182.193C69.52 182.191 69.52 182.188 69.52 182.186C69.52 182.184 69.52 182.181 69.52 182.179C69.52 182.177 69.52 182.174 69.52 182.172C69.52 182.17 69.52 182.167 69.52 182.165C69.52 182.163 69.52 182.16 69.52 182.158C69.52 182.156 69.52 182.153 69.52 182.151C69.52 182.149 69.52 182.146 69.52 182.144C69.52 182.142 69.52 182.139 69.52 182.137C69.52 182.135 69.52 182.132 69.52 182.13C69.52 182.127 69.52 182.125 69.52 182.123C69.52 182.12 69.52 182.118 69.52 182.116C69.52 182.113 69.52 182.111 69.52 182.109C69.52 182.106 69.52 182.104 69.52 182.102C69.52 182.099 69.52 182.097 69.52 182.095C69.52 182.092 69.52 182.09 69.52 182.088C69.52 182.085 69.52 182.083 69.52 182.081C69.52 182.078 69.52 182.076 69.52 182.074C69.52 182.071 69.52 182.069 69.52 182.067C69.52 182.064 69.52 182.062 69.52 182.06C69.52 182.057 69.52 182.055 69.52 182.052C69.52 182.05 69.52 182.048 69.52 182.045C69.52 182.043 69.52 182.041 69.52 182.038C69.52 182.036 69.52 182.034 69.52 182.031C69.52 182.029 69.52 182.027 69.52 182.024C69.52 182.022 69.52 182.02 69.52 182.017C69.52 182.015 69.52 182.013 69.52 182.01C69.52 182.008 69.52 182.006 69.52 182.003C69.52 182.001 69.52 181.999 69.52 181.996C69.52 181.994 69.52 181.992 69.52 181.989C69.52 181.987 69.52 181.985 69.52 181.982C69.52 181.98 69.52 181.977 69.52 181.975C69.52 181.973 69.52 181.97 69.52 181.968C69.52 181.966 69.52 181.963 69.52 181.961C69.52 181.959 69.52 181.956 69.52 181.954C69.52 181.952 69.52 181.949 69.52 181.947C69.52 181.945 69.52 181.942 69.52 181.94H61.52ZM61.52 185.54C61.52 194.013 65.016 200.811 71.9412 205.428L76.3788 198.772C71.784 195.709 69.52 191.467 69.52 185.54H61.52ZM72.102 205.53C78.9514 209.64 87.9169 211.5 98.64 211.5V203.5C88.7231 203.5 81.3686 201.76 76.218 198.67L72.102 205.53ZM98.64 211.5C108.205 211.5 116.629 209.865 123.775 206.424L120.305 199.216C114.491 202.015 107.315 203.5 98.64 203.5V211.5ZM123.829 206.398C131.153 202.735 136.815 197.67 140.615 191.155L133.705 187.125C130.785 192.13 126.367 196.185 120.251 199.242L123.829 206.398ZM140.59 191.198C144.599 184.517 146.56 176.952 146.56 168.62H138.56C138.56 175.648 136.921 181.763 133.73 187.082L140.59 191.198ZM146.56 168.62C146.56 163.517 145.486 158.957 143.008 155.241L136.352 159.679C137.714 161.723 138.56 164.603 138.56 168.62H146.56ZM143.202 155.564C141.079 151.62 137.859 148.728 133.696 146.943L130.544 154.297C133.101 155.392 134.921 157.06 136.158 159.356L143.202 155.564ZM133.796 146.988C130.061 145.264 125.872 144.46 121.32 144.46V152.46C124.928 152.46 127.939 153.096 130.444 154.252L133.796 146.988ZM121.32 144.46H95.04V152.46H121.32V144.46ZM98.9775 149.164L106.898 104.884L99.0225 103.476L91.1025 147.756L98.9775 149.164ZM102.96 108.18H123.48V100.18H102.96V108.18ZM123.48 108.18C128.251 108.18 132.722 107.383 136.846 105.734L133.874 98.3061C130.798 99.5367 127.349 100.18 123.48 100.18V108.18ZM136.963 105.685C141.204 103.829 144.875 101.402 147.908 98.3684L142.252 92.7116C140.005 94.9583 137.196 96.8509 133.757 98.3554L136.963 105.685ZM147.908 98.3684C151.195 95.0818 153.666 91.2353 155.305 86.8645L147.815 84.0555C146.574 87.3647 144.725 90.2382 142.252 92.7116L147.908 98.3684ZM155.305 86.8645C156.923 82.5518 157.72 77.9938 157.72 73.22H149.72C149.72 77.0862 149.077 80.6882 147.815 84.0555L155.305 86.8645ZM157.72 73.22C157.72 68.1982 156.453 63.5949 153.845 59.537L147.115 63.863C148.827 66.5251 149.72 69.6018 149.72 73.22H157.72ZM154.009 59.8176C151.666 55.4237 148.041 52.0073 143.352 49.5248L139.608 56.5951C143.079 58.4326 145.454 60.7763 146.951 63.5823L154.009 59.8176ZM143.352 49.5248C138.51 46.9614 132.524 45.82 125.64 45.82V53.82C131.716 53.82 136.29 54.8386 139.608 56.5951L143.352 49.5248ZM125.64 45.82C118.497 45.82 112.061 46.9677 106.424 49.3834L109.576 56.7366C114.019 54.8323 119.343 53.82 125.64 53.82V45.82ZM106.424 49.3834C100.912 51.7457 96.3093 54.9587 92.7372 59.0803L98.7828 64.3197C101.451 61.2413 105.008 58.6943 109.576 56.7366L106.424 49.3834ZM92.7372 59.0803C89.2166 63.1426 86.8502 67.695 85.7353 72.7123L93.5448 74.4477C94.3498 70.825 96.0634 67.4574 98.7828 64.3197L92.7372 59.0803ZM85.7177 72.7955L84.9977 76.3955L92.8423 77.9645L93.5623 74.3645L85.7177 72.7955ZM88.92 73.18H28.44V81.18H88.92V73.18ZM32.3898 77.812L33.8298 68.812L25.9302 67.548L24.4902 76.548L32.3898 77.812ZM33.8335 68.7882C35.6341 57.0844 40.5764 46.4872 48.757 36.9432L42.683 31.7368C33.5836 42.3528 27.9659 54.3156 25.9265 67.5718L33.8335 68.7882ZM48.752 36.949C57.1357 27.2058 68.5599 19.3857 83.1954 13.578L80.2446 6.14203C64.6402 12.3343 52.0644 20.8341 42.688 31.731L48.752 36.949ZM83.246 13.5575C97.7587 7.56812 115.451 4.49998 136.44 4.49998V-3.50002C114.709 -3.50002 95.9214 -0.328144 80.1941 6.1625L83.246 13.5575ZM136.44 4.49998C155.051 4.49998 170.596 7.09443 183.194 12.1339L186.166 4.70608C172.364 -0.814463 155.749 -3.50002 136.44 -3.50002V4.49998ZM183.276 12.1653C196.213 17.0168 205.733 23.6032 212.132 31.7675L218.428 26.8325C210.907 17.2368 200.027 9.90321 186.085 4.67467L183.276 12.1653ZM212.173 31.8192C218.79 39.9808 222.08 49.2896 222.08 59.9H230.08C230.08 47.4704 226.17 36.3792 218.387 26.7808L212.173 31.8192ZM222.08 59.9C222.08 69.131 220.059 77.7572 216.022 85.8311L223.178 89.4088C227.781 80.2028 230.08 70.349 230.08 59.9H222.08ZM215.983 85.912C212.147 94.0361 206.863 100.887 200.119 106.507L205.241 112.653C212.897 106.273 218.893 98.4838 223.217 89.328L215.983 85.912ZM200.068 106.55C193.502 112.211 186.299 116.254 178.441 118.724L180.839 126.356C189.781 123.546 197.938 118.949 205.292 112.61L200.068 106.55ZM175.759 121.57L175.399 123.01L183.161 124.95L183.521 123.51L175.759 121.57ZM177.838 127.711C187.702 131.522 195.171 137.388 200.432 145.279L207.088 140.841C200.829 131.452 191.978 124.598 180.722 120.249L177.838 127.711ZM200.505 145.385C205.955 153.015 208.76 162.253 208.76 173.3H216.76C216.76 160.827 213.565 149.905 207.015 140.735L200.505 145.385ZM208.76 173.3C208.76 190.734 203.85 205.159 194.197 216.831L200.363 221.929C211.351 208.641 216.76 192.346 216.76 173.3H208.76ZM194.222 216.802C184.417 228.43 171.113 237.428 154.132 243.708L156.908 251.212C174.967 244.532 189.503 234.81 200.338 221.958L194.222 216.802ZM154.178 243.692C137.148 249.757 118.17 252.82 97.2 252.82V260.82C118.95 260.82 138.852 257.643 156.862 251.228L154.178 243.692Z" fill="url(#paint0_linear_1021_89)" mask="url(#path-1-outside-1_1021_89)"/>
<defs>
<linearGradient id="paint0_linear_1021_89" x1="-9" y1="132.5" x2="232" y2="132.5" gradientUnits="userSpaceOnUse">
<stop stop-color="#6A11CB"/>
<stop offset="1" stop-color="#2575FC"/>
</linearGradient>
</defs>
</svg>
