<svg width="44" height="44" viewBox="0 0 44 44" fill="none" xmlns="http://www.w3.org/2000/svg">
<path d="M36.6667 5.5L7.33335 5.5C5.31119 5.5 3.66669 7.1445 3.66669 9.16667L3.66669 34.8333C3.66669 36.8555 5.31119 38.5 7.33335 38.5H36.6667C38.6889 38.5 40.3334 36.8555 40.3334 34.8333V9.16667C40.3334 7.1445 38.6889 5.5 36.6667 5.5ZM36.6685 16.5C36.6667 16.5 36.6667 16.5 36.6685 16.5H35.816L30.9265 9.16667H36.6667L36.6685 16.5ZM17.4827 16.5L12.5932 9.16667H17.3525L22.242 16.5H17.4827ZM26.6494 16.5L21.7599 9.16667L26.5192 9.16667L31.4087 16.5H26.6494ZM7.33335 9.16667H8.18585L13.0754 16.5H7.33335L7.33335 9.16667ZM7.33335 34.8333L7.33335 20.1667H36.6667L36.6704 34.8333H7.33335Z" fill="#BABABA"/>
<path d="M18.3334 33L28.4167 27.5L18.3334 22V33Z" fill="#BABABA"/>
</svg>
