<svg width="196" height="40" viewBox="0 0 196 40" fill="none" xmlns="http://www.w3.org/2000/svg">
<mask id="path-1-outside-1_455_126" maskUnits="userSpaceOnUse" x="-2" y="-2" width="200" height="44" fill="black">
<rect fill="white" x="-2" y="-2" width="200" height="44"/>
<path d="M16.604 38H4.904L10.26 12.52H0.536L2.824 1.6H34.024L31.736 12.52H21.96L16.604 38ZM51.2929 39.04C40.4249 39.04 32.2089 31.864 32.2089 21.672C32.2089 9.92 42.3489 0.559999 54.3609 0.559999C65.2289 0.559999 73.4969 7.736 73.4969 17.928C73.4969 29.628 63.3049 39.04 51.2929 39.04ZM51.9689 28.484C57.2729 28.484 61.6409 24.012 61.6409 18.708C61.6409 14.444 58.4689 11.064 53.7369 11.064C48.4329 11.064 44.0649 15.536 44.0649 20.84C44.0649 25.104 47.2369 28.484 51.9689 28.484ZM86.7739 38H75.0739L82.7699 1.6H116.83L109.134 38H97.4339L102.894 12.26H92.2339L86.7739 38ZM135.753 27.34H117.449L119.373 18.084H137.677L135.753 27.34ZM153.084 38H141.384L146.74 12.52C145.284 13.664 142.84 14.34 140.136 14.34L141.852 6.384C146.376 5.916 149.236 3.368 150.484 1.6H160.78L153.084 38ZM176.765 39.04C168.133 39.04 162.257 32.488 162.257 23.336C162.257 11.324 170.629 0.559999 181.393 0.559999C190.025 0.559999 195.901 7.112 195.901 16.264C195.901 28.276 187.529 39.04 176.765 39.04ZM177.649 28.484C181.705 28.484 184.253 21.828 184.253 16.264C184.253 12.78 182.745 11.064 180.509 11.064C176.453 11.064 173.905 17.772 173.905 23.284C173.905 26.768 175.413 28.484 177.649 28.484Z"/>
</mask>
<path d="M16.604 38V40H18.2273L18.5612 38.4114L16.604 38ZM4.904 38L2.94677 37.5886L2.43988 40H4.904V38ZM10.26 12.52L12.2172 12.9314L12.7241 10.52H10.26V12.52ZM0.536 12.52L-1.42149 12.1099L-1.92648 14.52H0.536V12.52ZM2.824 1.6V-0.400002H1.19962L0.866506 1.18986L2.824 1.6ZM34.024 1.6L35.9815 2.01014L36.4865 -0.400002H34.024V1.6ZM31.736 12.52V14.52H33.3604L33.6935 12.9301L31.736 12.52ZM21.96 12.52V10.52H20.3367L20.0028 12.1086L21.96 12.52ZM16.604 36H4.904V40H16.604V36ZM6.86123 38.4114L12.2172 12.9314L8.30277 12.1086L2.94677 37.5886L6.86123 38.4114ZM10.26 10.52H0.536V14.52H10.26V10.52ZM2.49349 12.9301L4.78149 2.01014L0.866506 1.18986L-1.42149 12.1099L2.49349 12.9301ZM2.824 3.6H34.024V-0.400002H2.824V3.6ZM32.0665 1.18986L29.7785 12.1099L33.6935 12.9301L35.9815 2.01014L32.0665 1.18986ZM31.736 10.52H21.96V14.52H31.736V10.52ZM20.0028 12.1086L14.6468 37.5886L18.5612 38.4114L23.9172 12.9314L20.0028 12.1086ZM51.2929 37.04C41.3239 37.04 34.2089 30.5646 34.2089 21.672H30.2089C30.2089 33.1634 39.5258 41.04 51.2929 41.04V37.04ZM34.2089 21.672C34.2089 11.1323 43.3426 2.56 54.3609 2.56V-1.44C41.3552 -1.44 30.2089 8.7077 30.2089 21.672H34.2089ZM54.3609 2.56C64.3373 2.56 71.4969 9.04218 71.4969 17.928H75.4969C75.4969 6.42982 66.1204 -1.44 54.3609 -1.44V2.56ZM71.4969 17.928C71.4969 28.4129 62.3141 37.04 51.2929 37.04V41.04C64.2956 41.04 75.4969 30.8431 75.4969 17.928H71.4969ZM51.9689 30.484C58.4051 30.484 63.6409 25.0887 63.6409 18.708H59.6409C59.6409 22.9353 56.1407 26.484 51.9689 26.484V30.484ZM63.6409 18.708C63.6409 13.3306 59.5646 9.064 53.7369 9.064V13.064C57.3732 13.064 59.6409 15.5574 59.6409 18.708H63.6409ZM53.7369 9.064C47.3007 9.064 42.0649 14.4593 42.0649 20.84H46.0649C46.0649 16.6127 49.5651 13.064 53.7369 13.064V9.064ZM42.0649 20.84C42.0649 26.2174 46.1412 30.484 51.9689 30.484V26.484C48.3326 26.484 46.0649 23.9906 46.0649 20.84H42.0649ZM86.7739 38V40H88.3942L88.7304 38.415L86.7739 38ZM75.0739 38L73.1172 37.5863L72.6069 40H75.0739V38ZM82.7699 1.6V-0.400002H81.1486L80.8132 1.18629L82.7699 1.6ZM116.83 1.6L118.787 2.01371L119.297 -0.400002H116.83V1.6ZM109.134 38V40H110.755L111.091 38.4137L109.134 38ZM97.4339 38L95.4775 37.585L94.9652 40H97.4339V38ZM102.894 12.26L104.85 12.675L105.363 10.26H102.894V12.26ZM92.2339 12.26V10.26H90.6137L90.2775 11.845L92.2339 12.26ZM86.7739 36H75.0739V40H86.7739V36ZM77.0307 38.4137L84.7267 2.01371L80.8132 1.18629L73.1172 37.5863L77.0307 38.4137ZM82.7699 3.6H116.83V-0.400002H82.7699V3.6ZM114.873 1.18629L107.177 37.5863L111.091 38.4137L118.787 2.01371L114.873 1.18629ZM109.134 36H97.4339V40H109.134V36ZM99.3904 38.415L104.85 12.675L100.937 11.845L95.4775 37.585L99.3904 38.415ZM102.894 10.26H92.2339V14.26H102.894V10.26ZM90.2775 11.845L84.8175 37.585L88.7304 38.415L94.1904 12.675L90.2775 11.845ZM135.753 27.34V29.34H137.38L137.711 27.747L135.753 27.34ZM117.449 27.34L115.491 26.933L114.99 29.34H117.449V27.34ZM119.373 18.084V16.084H117.746L117.415 17.677L119.373 18.084ZM137.677 18.084L139.635 18.491L140.135 16.084H137.677V18.084ZM135.753 25.34H117.449V29.34H135.753V25.34ZM119.407 27.747L121.331 18.491L117.415 17.677L115.491 26.933L119.407 27.747ZM119.373 20.084H137.677V16.084H119.373V20.084ZM135.719 17.677L133.795 26.933L137.711 27.747L139.635 18.491L135.719 17.677ZM153.084 38V40H154.705L155.041 38.4137L153.084 38ZM141.384 38L139.427 37.5886L138.92 40H141.384V38ZM146.74 12.52L148.697 12.9314L149.829 7.54986L145.504 10.9474L146.74 12.52ZM140.136 14.34L138.181 13.9183L137.659 16.34H140.136V14.34ZM141.852 6.384L141.646 4.39462L140.203 4.54392L139.897 5.96232L141.852 6.384ZM150.484 1.6V-0.400002H149.448L148.85 0.446631L150.484 1.6ZM160.78 1.6L162.737 2.01371L163.247 -0.400002H160.78V1.6ZM153.084 36H141.384V40H153.084V36ZM143.341 38.4114L148.697 12.9314L144.783 12.1086L139.427 37.5886L143.341 38.4114ZM145.504 10.9474C144.529 11.7136 142.589 12.34 140.136 12.34V16.34C143.092 16.34 146.039 15.6144 147.976 14.0926L145.504 10.9474ZM142.091 14.7617L143.807 6.80567L139.897 5.96232L138.181 13.9183L142.091 14.7617ZM142.058 8.37338C147.263 7.83491 150.604 4.89768 152.118 2.75336L148.85 0.446631C147.868 1.83832 145.489 3.99709 141.646 4.39462L142.058 8.37338ZM150.484 3.6H160.78V-0.400002H150.484V3.6ZM158.823 1.18629L151.127 37.5863L155.041 38.4137L162.737 2.01371L158.823 1.18629ZM176.765 37.04C172.983 37.04 169.9 35.6178 167.749 33.2692C165.585 30.9062 164.257 27.4845 164.257 23.336H160.257C160.257 28.3395 161.868 32.7698 164.799 35.9708C167.744 39.1862 171.916 41.04 176.765 41.04V37.04ZM164.257 23.336C164.257 12.0395 172.086 2.56 181.393 2.56V-1.44C169.172 -1.44 160.257 10.6085 160.257 23.336H164.257ZM181.393 2.56C185.176 2.56 188.258 3.98223 190.409 6.33082C192.574 8.69378 193.901 12.1155 193.901 16.264H197.901C197.901 11.2605 196.291 6.83022 193.359 3.62917C190.414 0.413768 186.243 -1.44 181.393 -1.44V2.56ZM193.901 16.264C193.901 27.5605 186.072 37.04 176.765 37.04V41.04C188.986 41.04 197.901 28.9915 197.901 16.264H193.901ZM177.649 30.484C180.883 30.484 183.042 27.8692 184.272 25.333C185.564 22.6681 186.253 19.3087 186.253 16.264H182.253C182.253 18.7833 181.668 21.5339 180.673 23.588C179.614 25.7708 178.471 26.484 177.649 26.484V30.484ZM186.253 16.264C186.253 14.2695 185.826 12.4831 184.812 11.1479C183.744 9.74047 182.194 9.064 180.509 9.064V13.064C181.061 13.064 181.383 13.2455 181.627 13.5671C181.926 13.9609 182.253 14.7745 182.253 16.264H186.253ZM180.509 9.064C177.269 9.064 175.112 11.7011 173.886 14.2364C172.595 16.9053 171.905 20.2635 171.905 23.284H175.905C175.905 20.7925 176.489 18.0407 177.487 15.9776C178.549 13.7809 179.694 13.064 180.509 13.064V9.064ZM171.905 23.284C171.905 25.2785 172.332 27.0649 173.346 28.4001C174.415 29.8075 175.965 30.484 177.649 30.484V26.484C177.098 26.484 176.776 26.3025 176.532 25.9809C176.232 25.5871 175.905 24.7735 175.905 23.284H171.905Z" fill="url(#paint0_linear_455_126)" mask="url(#path-1-outside-1_455_126)"/>
<defs>
<linearGradient id="paint0_linear_455_126" x1="-3" y1="21.5" x2="197" y2="21.5" gradientUnits="userSpaceOnUse">
<stop stop-color="#6A11CB"/>
<stop offset="1" stop-color="#2575FC"/>
</linearGradient>
</defs>
</svg>
