<svg width="44" height="44" viewBox="0 0 44 44" fill="none" xmlns="http://www.w3.org/2000/svg">
<path d="M36.6667 5.5L7.33335 5.5C5.31119 5.5 3.66669 7.1445 3.66669 9.16667L3.66669 29.3333C3.66669 31.3555 5.31119 33 7.33335 33H14.6667L11.3667 37.4L14.3 39.6L19.25 33H24.75L29.7 39.6L32.6334 37.4L29.3334 33H36.6667C38.6889 33 40.3334 31.3555 40.3334 29.3333V9.16667C40.3334 7.1445 38.6889 5.5 36.6667 5.5ZM7.33335 29.3333L7.33335 9.16667L36.6667 9.16667L36.6685 29.3333L7.33335 29.3333Z" fill="#BABABA"/>
<path d="M11 22H18.3333V25.6667H11V22Z" fill="#BABABA"/>
</svg>
